<?xml version="1.0" encoding="utf-8"?>
<!-- Generator: Adobe Illustrator 24.1.1, SVG Export Plug-In . SVG Version: 6.00 Build 0)  -->
<svg version="1.1" id="Layer_1" xmlns="http://www.w3.org/2000/svg" xmlns:xlink="http://www.w3.org/1999/xlink" x="0px" y="0px"
	 viewBox="0 0 500 500" style="enable-background:new 0 0 500 500;" xml:space="preserve">
<style type="text/css">
	.st0{fill:#EBEBEB;}
	.st1{fill:#E0E0E0;}
	.st2{fill:#F5F5F5;}
	.st3{fill:#E6E6E6;}
	.st4{fill:#F0F0F0;}
	.st5{opacity:0.2;fill:#E0E0E0;enable-background:new    ;}
	.st6{fill:#2B6F87;}
	.st7{opacity:0.2;enable-background:new    ;}
	.st8{opacity:0.5;fill:#FFFFFF;enable-background:new    ;}
	.st9{opacity:0.2;fill:#FFFFFF;enable-background:new    ;}
	.st10{fill:#263238;}
	.st11{opacity:0.3;fill:#FFFFFF;enable-background:new    ;}
	.st12{opacity:0.6;fill:#FFFFFF;enable-background:new    ;}
	.st13{fill:#E4897B;}
	.st14{opacity:0.1;enable-background:new    ;}
	.st15{fill:#407BFF;}
	.st16{fill:#FFFFFF;}
	.st17{fill:#DE5753;}
	.st18{opacity:0.4;enable-background:new    ;}
	.st19{opacity:0.2;}
	.st20{opacity:0.7;fill:#FFFFFF;enable-background:new    ;}
	.st21{opacity:0.4;fill:#FFFFFF;enable-background:new    ;}
	.st22{opacity:0.1;fill:#FFFFFF;enable-background:new    ;}
</style>
<g id="freepik--background-complete--inject-7">
	<rect y="382.4" class="st0" width="500" height="0.3"/>
	<rect x="416.8" y="398.5" class="st0" width="33.1" height="0.3"/>
	<rect x="322.5" y="401.2" class="st0" width="8.7" height="0.3"/>
	<rect x="396.6" y="389.2" class="st0" width="19.2" height="0.3"/>
	<rect x="52.5" y="390.9" class="st0" width="43.2" height="0.3"/>
	<rect x="104.6" y="390.9" class="st0" width="6.3" height="0.3"/>
	<rect x="131.5" y="395.1" class="st0" width="93.7" height="0.3"/>
	<path class="st0" d="M237,337.8H43.9c-3.1,0-5.7-2.6-5.7-5.7V60.7c0-3.1,2.6-5.7,5.7-5.7H237c3.2,0,5.7,2.6,5.7,5.7c0,0,0,0,0,0
		v271.4C242.7,335.2,240.2,337.8,237,337.8z M43.9,55.2c-3,0-5.5,2.4-5.5,5.5v271.4c0,3,2.4,5.5,5.5,5.5H237c3,0,5.5-2.4,5.5-5.5
		V60.7c0-3-2.4-5.5-5.5-5.5H43.9z"/>
	<path class="st0" d="M453.3,337.8H260.2c-3.2,0-5.7-2.6-5.7-5.7V60.7c0-3.1,2.6-5.7,5.7-5.7h193.1c3.1,0,5.7,2.5,5.7,5.7v271.4
		C459,335.2,456.5,337.8,453.3,337.8z M260.2,55.2c-3,0-5.5,2.4-5.5,5.5v271.4c0,3,2.4,5.5,5.5,5.5h193.1c3,0,5.5-2.4,5.5-5.5V60.7
		c0-3-2.4-5.5-5.5-5.5H260.2z"/>
	<rect x="203.1" y="117.2" class="st1" width="242.3" height="233.5"/>
	<rect x="207" y="121.4" class="st2" width="238.4" height="225.2"/>
	<polygon class="st3" points="208.8,292.1 208.8,224.4 215.8,224.4 215.8,215.4 231.7,208 231.7,198.8 234.3,198.8 234.3,224.4 
		236.9,224.4 236.9,292.1 240.5,292.1 240.5,256.9 248.4,256.9 248.4,238.4 251,238.4 251,292.1 257.2,292.1 257.2,271.9 
		261.6,271.9 261.6,266.6 271.3,266.6 271.3,248.1 276.5,248.1 276.5,235.8 282.7,235.8 282.7,217.3 285.3,217.3 285.3,235.8 
		291.5,235.8 291.5,248.1 296.8,248.1 296.8,266.6 306.4,266.6 306.4,271.9 310.8,271.9 310.8,292.1 316.1,292.1 316.1,266.6 
		325.8,266.6 325.8,210.3 328.4,210.3 328.4,204.1 349.5,204.1 349.5,210.3 354,210.3 354,250.8 371.5,250.8 371.5,255.1 
		377.7,255.1 377.7,257.8 371.5,257.8 371.5,273.6 390,273.6 390,220.8 393.5,220.8 393.5,210.3 402.3,210.3 402.3,169.8 405,169.8 
		405,210.3 411.1,210.3 411.1,220.8 445.4,220.8 445.4,346.6 207,346.6 207,292.1 	"/>
	<rect x="424.6" y="223.6" class="st4" width="2.5" height="2.5"/>
	<rect x="424.6" y="227.8" class="st4" width="2.5" height="2.5"/>
	<rect x="424.6" y="244.5" class="st4" width="2.5" height="2.5"/>
	<rect x="424.6" y="248.7" class="st4" width="2.5" height="2.5"/>
	<rect x="424.6" y="252.8" class="st4" width="2.5" height="2.5"/>
	<rect x="424.6" y="265.4" class="st4" width="2.5" height="2.5"/>
	<rect x="424.6" y="269.6" class="st4" width="2.5" height="2.5"/>
	<rect x="420.6" y="240.3" class="st4" width="2.5" height="2.5"/>
	<rect x="420.6" y="244.5" class="st4" width="2.5" height="2.5"/>
	<rect x="420.6" y="248.7" class="st4" width="2.5" height="2.5"/>
	<rect x="420.6" y="252.8" class="st4" width="2.5" height="2.5"/>
	<rect x="420.6" y="257" class="st4" width="2.5" height="2.5"/>
	<rect x="420.6" y="265.4" class="st4" width="2.5" height="2.5"/>
	<rect x="420.6" y="269.6" class="st4" width="2.5" height="2.5"/>
	<rect x="416.7" y="223.6" class="st4" width="2.5" height="2.5"/>
	<rect x="416.7" y="227.8" class="st4" width="2.5" height="2.5"/>
	<rect x="416.7" y="231.9" class="st4" width="2.5" height="2.5"/>
	<rect x="416.7" y="236.1" class="st4" width="2.5" height="2.5"/>
	<rect x="416.7" y="240.3" class="st4" width="2.5" height="2.5"/>
	<rect x="416.7" y="244.5" class="st4" width="2.5" height="2.5"/>
	<rect x="416.7" y="248.7" class="st4" width="2.5" height="2.5"/>
	<rect x="416.7" y="252.8" class="st4" width="2.5" height="2.5"/>
	<rect x="416.7" y="257" class="st4" width="2.5" height="2.5"/>
	<rect x="416.7" y="261.2" class="st4" width="2.5" height="2.5"/>
	<rect x="416.7" y="269.6" class="st4" width="2.5" height="2.5"/>
	<rect x="412.7" y="223.6" class="st4" width="2.5" height="2.5"/>
	<rect x="412.7" y="227.8" class="st4" width="2.5" height="2.5"/>
	<rect x="412.7" y="231.9" class="st4" width="2.5" height="2.5"/>
	<rect x="412.7" y="236.1" class="st4" width="2.5" height="2.5"/>
	<rect x="412.7" y="240.3" class="st4" width="2.5" height="2.5"/>
	<rect x="412.7" y="244.5" class="st4" width="2.5" height="2.5"/>
	<rect x="412.7" y="248.7" class="st4" width="2.5" height="2.5"/>
	<rect x="412.7" y="286.3" class="st4" width="2.5" height="2.5"/>
	<rect x="408.8" y="223.6" class="st4" width="2.5" height="2.5"/>
	<rect x="408.8" y="227.8" class="st4" width="2.5" height="2.5"/>
	<rect x="408.8" y="231.9" class="st4" width="2.5" height="2.5"/>
	<rect x="408.8" y="236.1" class="st4" width="2.5" height="2.5"/>
	<rect x="408.8" y="240.3" class="st4" width="2.5" height="2.5"/>
	<rect x="408.8" y="244.5" class="st4" width="2.5" height="2.5"/>
	<rect x="408.8" y="248.7" class="st4" width="2.5" height="2.5"/>
	<rect x="408.8" y="252.8" class="st4" width="2.5" height="2.5"/>
	<rect x="408.8" y="277.9" class="st4" width="2.5" height="2.5"/>
	<rect x="408.8" y="282.1" class="st4" width="2.5" height="2.5"/>
	<rect x="408.8" y="286.3" class="st4" width="2.5" height="2.5"/>
	<rect x="408.8" y="290.5" class="st4" width="2.5" height="2.5"/>
	<rect x="408.8" y="307.2" class="st4" width="2.5" height="2.5"/>
	<rect x="404.8" y="223.6" class="st4" width="2.5" height="2.5"/>
	<rect x="404.8" y="227.8" class="st4" width="2.5" height="2.5"/>
	<rect x="404.8" y="231.9" class="st4" width="2.5" height="2.5"/>
	<rect x="404.8" y="236.1" class="st4" width="2.5" height="2.5"/>
	<rect x="404.8" y="240.3" class="st4" width="2.5" height="2.5"/>
	<rect x="404.8" y="244.5" class="st4" width="2.5" height="2.5"/>
	<rect x="404.8" y="248.7" class="st4" width="2.5" height="2.5"/>
	<rect x="404.8" y="252.8" class="st4" width="2.5" height="2.5"/>
	<rect x="404.8" y="257" class="st4" width="2.5" height="2.5"/>
	<rect x="404.8" y="261.2" class="st4" width="2.5" height="2.5"/>
	<rect x="404.8" y="273.7" class="st4" width="2.5" height="2.5"/>
	<rect x="404.8" y="277.9" class="st4" width="2.5" height="2.5"/>
	<rect x="404.8" y="282.1" class="st4" width="2.5" height="2.5"/>
	<rect x="404.8" y="286.3" class="st4" width="2.5" height="2.5"/>
	<rect x="404.8" y="290.5" class="st4" width="2.5" height="2.5"/>
	<rect x="404.8" y="307.2" class="st4" width="2.5" height="2.5"/>
	<rect x="400.9" y="223.6" class="st4" width="2.5" height="2.5"/>
	<rect x="400.9" y="227.8" class="st4" width="2.5" height="2.5"/>
	<rect x="400.9" y="231.9" class="st4" width="2.5" height="2.5"/>
	<rect x="400.9" y="236.1" class="st4" width="2.5" height="2.5"/>
	<rect x="400.9" y="240.3" class="st4" width="2.5" height="2.5"/>
	<rect x="400.9" y="244.5" class="st4" width="2.5" height="2.5"/>
	<rect x="400.9" y="248.7" class="st4" width="2.5" height="2.5"/>
	<rect x="400.9" y="252.8" class="st4" width="2.5" height="2.5"/>
	<rect x="400.9" y="257" class="st4" width="2.5" height="2.5"/>
	<rect x="400.9" y="261.2" class="st4" width="2.5" height="2.5"/>
	<rect x="400.9" y="265.4" class="st4" width="2.5" height="2.5"/>
	<rect x="400.9" y="269.6" class="st4" width="2.5" height="2.5"/>
	<rect x="400.9" y="273.7" class="st4" width="2.5" height="2.5"/>
	<rect x="400.9" y="277.9" class="st4" width="2.5" height="2.5"/>
	<rect x="400.9" y="282.1" class="st4" width="2.5" height="2.5"/>
	<rect x="400.9" y="286.3" class="st4" width="2.5" height="2.5"/>
	<rect x="400.9" y="290.5" class="st4" width="2.5" height="2.5"/>
	<rect x="400.9" y="294.6" class="st4" width="2.5" height="2.5"/>
	<rect x="396.9" y="223.6" class="st4" width="2.5" height="2.5"/>
	<rect x="396.9" y="227.8" class="st4" width="2.5" height="2.5"/>
	<rect x="396.9" y="231.9" class="st4" width="2.5" height="2.5"/>
	<rect x="396.9" y="236.1" class="st4" width="2.5" height="2.5"/>
	<rect x="396.9" y="240.3" class="st4" width="2.5" height="2.5"/>
	<rect x="396.9" y="244.5" class="st4" width="2.5" height="2.5"/>
	<rect x="396.9" y="248.7" class="st4" width="2.5" height="2.5"/>
	<rect x="396.9" y="252.8" class="st4" width="2.5" height="2.5"/>
	<rect x="396.9" y="257" class="st4" width="2.5" height="2.5"/>
	<rect x="396.9" y="261.2" class="st4" width="2.5" height="2.5"/>
	<rect x="396.9" y="273.7" class="st4" width="2.5" height="2.5"/>
	<rect x="396.9" y="277.9" class="st4" width="2.5" height="2.5"/>
	<rect x="396.9" y="282.1" class="st4" width="2.5" height="2.5"/>
	<rect x="396.9" y="286.3" class="st4" width="2.5" height="2.5"/>
	<rect x="392.9" y="223.6" class="st4" width="2.5" height="2.5"/>
	<rect x="392.9" y="227.8" class="st4" width="2.5" height="2.5"/>
	<rect x="392.9" y="231.9" class="st4" width="2.5" height="2.5"/>
	<rect x="392.9" y="236.1" class="st4" width="2.5" height="2.5"/>
	<rect x="392.9" y="240.3" class="st4" width="2.5" height="2.5"/>
	<rect x="392.9" y="244.5" class="st4" width="2.5" height="2.5"/>
	<rect x="392.9" y="248.7" class="st4" width="2.5" height="2.5"/>
	<rect x="392.9" y="252.8" class="st4" width="2.5" height="2.5"/>
	<rect x="392.9" y="257" class="st4" width="2.5" height="2.5"/>
	<rect x="392.9" y="261.2" class="st4" width="2.5" height="2.5"/>
	<rect x="392.9" y="273.7" class="st4" width="2.5" height="2.5"/>
	<rect x="392.9" y="277.9" class="st4" width="2.5" height="2.5"/>
	<rect x="392.9" y="282.1" class="st4" width="2.5" height="2.5"/>
	<rect x="348.4" y="212.7" class="st4" width="2.5" height="2.5"/>
	<rect x="348.4" y="216.9" class="st4" width="2.5" height="2.5"/>
	<rect x="348.4" y="221.1" class="st4" width="2.5" height="2.5"/>
	<rect x="348.4" y="225.3" class="st4" width="2.5" height="2.5"/>
	<rect x="348.4" y="229.5" class="st4" width="2.5" height="2.5"/>
	<rect x="348.4" y="233.6" class="st4" width="2.5" height="2.5"/>
	<rect x="348.4" y="237.8" class="st4" width="2.5" height="2.5"/>
	<rect x="348.4" y="242" class="st4" width="2.5" height="2.5"/>
	<rect x="348.4" y="254.5" class="st4" width="2.5" height="2.5"/>
	<rect x="348.4" y="258.7" class="st4" width="2.5" height="2.5"/>
	<rect x="344.4" y="212.7" class="st4" width="2.5" height="2.5"/>
	<rect x="344.4" y="216.9" class="st4" width="2.5" height="2.5"/>
	<rect x="344.4" y="221.1" class="st4" width="2.5" height="2.5"/>
	<rect x="344.4" y="225.3" class="st4" width="2.5" height="2.5"/>
	<rect x="344.4" y="229.5" class="st4" width="2.5" height="2.5"/>
	<rect x="344.4" y="233.6" class="st4" width="2.5" height="2.5"/>
	<rect x="344.4" y="237.8" class="st4" width="2.5" height="2.5"/>
	<rect x="344.4" y="242" class="st4" width="2.5" height="2.5"/>
	<rect x="344.4" y="258.7" class="st4" width="2.5" height="2.5"/>
	<rect x="340.4" y="212.7" class="st4" width="2.5" height="2.5"/>
	<rect x="340.4" y="216.9" class="st4" width="2.5" height="2.5"/>
	<rect x="340.4" y="221.1" class="st4" width="2.5" height="2.5"/>
	<rect x="340.4" y="225.3" class="st4" width="2.5" height="2.5"/>
	<rect x="340.4" y="229.5" class="st4" width="2.5" height="2.5"/>
	<rect x="340.4" y="233.6" class="st4" width="2.5" height="2.5"/>
	<rect x="340.4" y="237.8" class="st4" width="2.5" height="2.5"/>
	<rect x="340.4" y="242" class="st4" width="2.5" height="2.5"/>
	<rect x="336.5" y="212.7" class="st4" width="2.5" height="2.5"/>
	<rect x="336.5" y="216.9" class="st4" width="2.5" height="2.5"/>
	<rect x="336.5" y="221.1" class="st4" width="2.5" height="2.5"/>
	<rect x="336.5" y="225.3" class="st4" width="2.5" height="2.5"/>
	<rect x="336.5" y="229.5" class="st4" width="2.5" height="2.5"/>
	<rect x="336.5" y="233.6" class="st4" width="2.5" height="2.5"/>
	<rect x="336.5" y="242" class="st4" width="2.5" height="2.5"/>
	<rect x="336.5" y="246.2" class="st4" width="2.5" height="2.5"/>
	<rect x="336.5" y="258.7" class="st4" width="2.5" height="2.5"/>
	<rect x="336.5" y="262.9" class="st4" width="2.5" height="2.5"/>
	<rect x="336.5" y="267.1" class="st4" width="2.5" height="2.5"/>
	<rect x="336.5" y="271.3" class="st4" width="2.5" height="2.5"/>
	<rect x="336.5" y="275.4" class="st4" width="2.5" height="2.5"/>
	<rect x="336.5" y="279.6" class="st4" width="2.5" height="2.5"/>
	<rect x="336.5" y="283.8" class="st4" width="2.5" height="2.5"/>
	<rect x="332.5" y="212.7" class="st4" width="2.5" height="2.5"/>
	<rect x="332.5" y="216.9" class="st4" width="2.5" height="2.5"/>
	<rect x="332.5" y="221.1" class="st4" width="2.5" height="2.5"/>
	<rect x="332.5" y="225.3" class="st4" width="2.5" height="2.5"/>
	<rect x="332.5" y="229.5" class="st4" width="2.5" height="2.5"/>
	<rect x="332.5" y="233.6" class="st4" width="2.5" height="2.5"/>
	<rect x="332.5" y="246.2" class="st4" width="2.5" height="2.5"/>
	<rect x="332.5" y="250.4" class="st4" width="2.5" height="2.5"/>
	<rect x="332.5" y="254.5" class="st4" width="2.5" height="2.5"/>
	<rect x="332.5" y="258.7" class="st4" width="2.5" height="2.5"/>
	<rect x="332.5" y="262.9" class="st4" width="2.5" height="2.5"/>
	<rect x="332.5" y="267.1" class="st4" width="2.5" height="2.5"/>
	<rect x="332.5" y="271.3" class="st4" width="2.5" height="2.5"/>
	<rect x="332.5" y="275.4" class="st4" width="2.5" height="2.5"/>
	<rect x="332.5" y="279.6" class="st4" width="2.5" height="2.5"/>
	<rect x="332.5" y="283.8" class="st4" width="2.5" height="2.5"/>
	<rect x="332.5" y="288" class="st4" width="2.5" height="2.5"/>
	<rect x="332.5" y="296.3" class="st4" width="2.5" height="2.5"/>
	<rect x="328.6" y="212.7" class="st4" width="2.5" height="2.5"/>
	<rect x="328.6" y="216.9" class="st4" width="2.5" height="2.5"/>
	<rect x="328.6" y="221.1" class="st4" width="2.5" height="2.5"/>
	<rect x="328.6" y="225.3" class="st4" width="2.5" height="2.5"/>
	<rect x="328.6" y="229.5" class="st4" width="2.5" height="2.5"/>
	<rect x="328.6" y="233.6" class="st4" width="2.5" height="2.5"/>
	<rect x="328.6" y="246.2" class="st4" width="2.5" height="2.5"/>
	<rect x="328.6" y="250.4" class="st4" width="2.5" height="2.5"/>
	<rect x="328.6" y="254.5" class="st4" width="2.5" height="2.5"/>
	<rect x="328.6" y="258.7" class="st4" width="2.5" height="2.5"/>
	<rect x="328.6" y="271.3" class="st4" width="2.5" height="2.5"/>
	<rect x="328.6" y="275.4" class="st4" width="2.5" height="2.5"/>
	<rect x="328.6" y="279.6" class="st4" width="2.5" height="2.5"/>
	<rect x="328.6" y="283.8" class="st4" width="2.5" height="2.5"/>
	<rect x="328.6" y="288" class="st4" width="2.5" height="2.5"/>
	<rect x="328.6" y="296.3" class="st4" width="2.5" height="2.5"/>
	<rect x="328.6" y="300.5" class="st4" width="2.5" height="2.5"/>
	<rect x="292.6" y="251.6" class="st4" width="2.5" height="2.5"/>
	<rect x="292.6" y="255.8" class="st4" width="2.5" height="2.5"/>
	<rect x="292.6" y="260" class="st4" width="2.5" height="2.5"/>
	<rect x="292.6" y="264.1" class="st4" width="2.5" height="2.5"/>
	<rect x="292.6" y="268.3" class="st4" width="2.5" height="2.5"/>
	<rect x="292.6" y="272.5" class="st4" width="2.5" height="2.5"/>
	<rect x="292.6" y="276.7" class="st4" width="2.5" height="2.5"/>
	<rect x="292.6" y="289.2" class="st4" width="2.5" height="2.5"/>
	<rect x="292.6" y="293.4" class="st4" width="2.5" height="2.5"/>
	<rect x="292.6" y="297.6" class="st4" width="2.5" height="2.5"/>
	<rect x="288.7" y="251.6" class="st4" width="2.5" height="2.5"/>
	<rect x="288.7" y="255.8" class="st4" width="2.5" height="2.5"/>
	<rect x="288.7" y="260" class="st4" width="2.5" height="2.5"/>
	<rect x="288.7" y="264.1" class="st4" width="2.5" height="2.5"/>
	<rect x="288.7" y="268.3" class="st4" width="2.5" height="2.5"/>
	<rect x="288.7" y="272.5" class="st4" width="2.5" height="2.5"/>
	<rect x="288.7" y="276.7" class="st4" width="2.5" height="2.5"/>
	<rect x="284.7" y="251.6" class="st4" width="2.5" height="2.5"/>
	<rect x="284.7" y="255.8" class="st4" width="2.5" height="2.5"/>
	<rect x="284.7" y="260" class="st4" width="2.5" height="2.5"/>
	<rect x="284.7" y="264.1" class="st4" width="2.5" height="2.5"/>
	<rect x="284.7" y="268.3" class="st4" width="2.5" height="2.5"/>
	<rect x="284.7" y="272.5" class="st4" width="2.5" height="2.5"/>
	<rect x="284.7" y="276.7" class="st4" width="2.5" height="2.5"/>
	<rect x="280.8" y="251.6" class="st4" width="2.5" height="2.5"/>
	<rect x="280.8" y="255.8" class="st4" width="2.5" height="2.5"/>
	<rect x="280.8" y="260" class="st4" width="2.5" height="2.5"/>
	<rect x="280.8" y="264.1" class="st4" width="2.5" height="2.5"/>
	<rect x="280.8" y="268.3" class="st4" width="2.5" height="2.5"/>
	<rect x="280.8" y="272.5" class="st4" width="2.5" height="2.5"/>
	<rect x="280.8" y="276.7" class="st4" width="2.5" height="2.5"/>
	<rect x="280.8" y="280.9" class="st4" width="2.5" height="2.5"/>
	<rect x="280.8" y="285" class="st4" width="2.5" height="2.5"/>
	<rect x="280.8" y="289.2" class="st4" width="2.5" height="2.5"/>
	<rect x="280.8" y="293.4" class="st4" width="2.5" height="2.5"/>
	<rect x="276.8" y="251.6" class="st4" width="2.5" height="2.5"/>
	<rect x="276.8" y="255.8" class="st4" width="2.5" height="2.5"/>
	<rect x="276.8" y="260" class="st4" width="2.5" height="2.5"/>
	<rect x="276.8" y="264.1" class="st4" width="2.5" height="2.5"/>
	<rect x="276.8" y="268.3" class="st4" width="2.5" height="2.5"/>
	<rect x="276.8" y="272.5" class="st4" width="2.5" height="2.5"/>
	<rect x="276.8" y="276.7" class="st4" width="2.5" height="2.5"/>
	<rect x="276.8" y="280.9" class="st4" width="2.5" height="2.5"/>
	<rect x="276.8" y="285" class="st4" width="2.5" height="2.5"/>
	<rect x="276.8" y="289.2" class="st4" width="2.5" height="2.5"/>
	<rect x="276.8" y="293.4" class="st4" width="2.5" height="2.5"/>
	<rect x="276.8" y="297.6" class="st4" width="2.5" height="2.5"/>
	<rect x="276.8" y="310.1" class="st4" width="2.5" height="2.5"/>
	<rect x="276.8" y="314.3" class="st4" width="2.5" height="2.5"/>
	<rect x="272.8" y="251.6" class="st4" width="2.5" height="2.5"/>
	<rect x="272.8" y="255.8" class="st4" width="2.5" height="2.5"/>
	<rect x="272.8" y="260" class="st4" width="2.5" height="2.5"/>
	<rect x="272.8" y="272.5" class="st4" width="2.5" height="2.5"/>
	<rect x="272.8" y="276.7" class="st4" width="2.5" height="2.5"/>
	<rect x="272.8" y="280.9" class="st4" width="2.5" height="2.5"/>
	<rect x="272.8" y="285" class="st4" width="2.5" height="2.5"/>
	<rect x="272.8" y="289.2" class="st4" width="2.5" height="2.5"/>
	<rect x="272.8" y="293.4" class="st4" width="2.5" height="2.5"/>
	<rect x="272.8" y="297.6" class="st4" width="2.5" height="2.5"/>
	<rect x="272.8" y="310.1" class="st4" width="2.5" height="2.5"/>
	<rect x="272.8" y="314.3" class="st4" width="2.5" height="2.5"/>
	<rect x="272.8" y="318.5" class="st4" width="2.5" height="2.5"/>
	<rect x="231.4" y="226.5" class="st4" width="2.5" height="2.5"/>
	<rect x="231.4" y="230.7" class="st4" width="2.5" height="2.5"/>
	<rect x="231.4" y="234.9" class="st4" width="2.5" height="2.5"/>
	<rect x="231.4" y="239.1" class="st4" width="2.5" height="2.5"/>
	<rect x="231.4" y="243.2" class="st4" width="2.5" height="2.5"/>
	<rect x="231.4" y="247.4" class="st4" width="2.5" height="2.5"/>
	<rect x="231.4" y="251.6" class="st4" width="2.5" height="2.5"/>
	<rect x="231.4" y="255.8" class="st4" width="2.5" height="2.5"/>
	<rect x="231.4" y="260" class="st4" width="2.5" height="2.5"/>
	<rect x="231.4" y="264.1" class="st4" width="2.5" height="2.5"/>
	<rect x="231.4" y="268.3" class="st4" width="2.5" height="2.5"/>
	<rect x="231.4" y="272.5" class="st4" width="2.5" height="2.5"/>
	<rect x="231.4" y="276.7" class="st4" width="2.5" height="2.5"/>
	<rect x="231.4" y="280.9" class="st4" width="2.5" height="2.5"/>
	<rect x="231.4" y="285" class="st4" width="2.5" height="2.5"/>
	<rect x="231.4" y="289.2" class="st4" width="2.5" height="2.5"/>
	<rect x="231.4" y="293.4" class="st4" width="2.5" height="2.5"/>
	<rect x="231.4" y="297.6" class="st4" width="2.5" height="2.5"/>
	<rect x="231.4" y="301.8" class="st4" width="2.5" height="2.5"/>
	<rect x="231.4" y="305.9" class="st4" width="2.5" height="2.5"/>
	<rect x="231.4" y="310.1" class="st4" width="2.5" height="2.5"/>
	<rect x="231.4" y="314.3" class="st4" width="2.5" height="2.5"/>
	<rect x="231.4" y="318.5" class="st4" width="2.5" height="2.5"/>
	<rect x="227.4" y="226.5" class="st4" width="2.5" height="2.5"/>
	<rect x="227.4" y="230.7" class="st4" width="2.5" height="2.5"/>
	<rect x="227.4" y="234.9" class="st4" width="2.5" height="2.5"/>
	<rect x="227.4" y="239.1" class="st4" width="2.5" height="2.5"/>
	<rect x="227.4" y="243.2" class="st4" width="2.5" height="2.5"/>
	<rect x="227.4" y="247.4" class="st4" width="2.5" height="2.5"/>
	<rect x="227.4" y="251.6" class="st4" width="2.5" height="2.5"/>
	<rect x="227.4" y="255.8" class="st4" width="2.5" height="2.5"/>
	<rect x="227.4" y="260" class="st4" width="2.5" height="2.5"/>
	<rect x="227.4" y="264.1" class="st4" width="2.5" height="2.5"/>
	<rect x="227.4" y="268.3" class="st4" width="2.5" height="2.5"/>
	<rect x="227.4" y="272.5" class="st4" width="2.5" height="2.5"/>
	<rect x="227.4" y="276.7" class="st4" width="2.5" height="2.5"/>
	<rect x="227.4" y="280.9" class="st4" width="2.5" height="2.5"/>
	<rect x="227.4" y="285" class="st4" width="2.5" height="2.5"/>
	<rect x="227.4" y="289.2" class="st4" width="2.5" height="2.5"/>
	<rect x="227.4" y="293.4" class="st4" width="2.5" height="2.5"/>
	<rect x="227.4" y="297.6" class="st4" width="2.5" height="2.5"/>
	<rect x="227.4" y="301.8" class="st4" width="2.5" height="2.5"/>
	<rect x="223.4" y="226.5" class="st4" width="2.5" height="2.5"/>
	<rect x="223.4" y="230.7" class="st4" width="2.5" height="2.5"/>
	<rect x="223.4" y="234.9" class="st4" width="2.5" height="2.5"/>
	<rect x="223.4" y="239.1" class="st4" width="2.5" height="2.5"/>
	<rect x="223.4" y="243.2" class="st4" width="2.5" height="2.5"/>
	<rect x="223.4" y="247.4" class="st4" width="2.5" height="2.5"/>
	<rect x="223.4" y="251.6" class="st4" width="2.5" height="2.5"/>
	<rect x="223.4" y="255.8" class="st4" width="2.5" height="2.5"/>
	<rect x="223.4" y="260" class="st4" width="2.5" height="2.5"/>
	<rect x="223.4" y="264.1" class="st4" width="2.5" height="2.5"/>
	<rect x="223.4" y="268.3" class="st4" width="2.5" height="2.5"/>
	<rect x="223.4" y="272.5" class="st4" width="2.5" height="2.5"/>
	<rect x="223.4" y="276.7" class="st4" width="2.5" height="2.5"/>
	<rect x="223.4" y="280.9" class="st4" width="2.5" height="2.5"/>
	<rect x="223.4" y="285" class="st4" width="2.5" height="2.5"/>
	<rect x="223.4" y="289.2" class="st4" width="2.5" height="2.5"/>
	<rect x="223.4" y="293.4" class="st4" width="2.5" height="2.5"/>
	<rect x="223.4" y="297.6" class="st4" width="2.5" height="2.5"/>
	<rect x="223.4" y="301.8" class="st4" width="2.5" height="2.5"/>
	<rect x="219.5" y="226.5" class="st4" width="2.5" height="2.5"/>
	<rect x="219.5" y="230.7" class="st4" width="2.5" height="2.5"/>
	<rect x="219.5" y="234.9" class="st4" width="2.5" height="2.5"/>
	<rect x="219.5" y="239.1" class="st4" width="2.5" height="2.5"/>
	<rect x="219.5" y="243.2" class="st4" width="2.5" height="2.5"/>
	<rect x="219.5" y="247.4" class="st4" width="2.5" height="2.5"/>
	<rect x="219.5" y="251.6" class="st4" width="2.5" height="2.5"/>
	<rect x="219.5" y="255.8" class="st4" width="2.5" height="2.5"/>
	<rect x="219.5" y="260" class="st4" width="2.5" height="2.5"/>
	<rect x="219.5" y="264.1" class="st4" width="2.5" height="2.5"/>
	<rect x="219.5" y="268.3" class="st4" width="2.5" height="2.5"/>
	<rect x="219.5" y="272.5" class="st4" width="2.5" height="2.5"/>
	<rect x="219.5" y="276.7" class="st4" width="2.5" height="2.5"/>
	<rect x="219.5" y="280.9" class="st4" width="2.5" height="2.5"/>
	<rect x="219.5" y="285" class="st4" width="2.5" height="2.5"/>
	<rect x="215.5" y="226.5" class="st4" width="2.5" height="2.5"/>
	<rect x="215.5" y="230.7" class="st4" width="2.5" height="2.5"/>
	<rect x="215.5" y="234.9" class="st4" width="2.5" height="2.5"/>
	<rect x="215.5" y="239.1" class="st4" width="2.5" height="2.5"/>
	<rect x="215.5" y="243.2" class="st4" width="2.5" height="2.5"/>
	<rect x="215.5" y="247.4" class="st4" width="2.5" height="2.5"/>
	<rect x="215.5" y="251.6" class="st4" width="2.5" height="2.5"/>
	<rect x="215.5" y="255.8" class="st4" width="2.5" height="2.5"/>
	<rect x="215.5" y="260" class="st4" width="2.5" height="2.5"/>
	<rect x="215.5" y="264.1" class="st4" width="2.5" height="2.5"/>
	<rect x="215.5" y="268.3" class="st4" width="2.5" height="2.5"/>
	<rect x="215.5" y="272.5" class="st4" width="2.5" height="2.5"/>
	<rect x="215.5" y="276.7" class="st4" width="2.5" height="2.5"/>
	<rect x="211.6" y="226.5" class="st4" width="2.5" height="2.5"/>
	<rect x="211.6" y="230.7" class="st4" width="2.5" height="2.5"/>
	<rect x="211.6" y="234.9" class="st4" width="2.5" height="2.5"/>
	<rect x="211.6" y="239.1" class="st4" width="2.5" height="2.5"/>
	<rect x="211.6" y="243.2" class="st4" width="2.5" height="2.5"/>
	<rect x="211.6" y="247.4" class="st4" width="2.5" height="2.5"/>
	<rect x="211.6" y="251.6" class="st4" width="2.5" height="2.5"/>
	<rect x="211.6" y="255.8" class="st4" width="2.5" height="2.5"/>
	<rect x="211.6" y="260" class="st4" width="2.5" height="2.5"/>
	<rect x="211.6" y="264.1" class="st4" width="2.5" height="2.5"/>
	<rect x="211.6" y="268.3" class="st4" width="2.5" height="2.5"/>
	<rect x="211.6" y="272.5" class="st4" width="2.5" height="2.5"/>
	<rect x="442.6" y="225.3" class="st4" width="2.5" height="2.5"/>
	<rect x="442.6" y="229.5" class="st4" width="2.5" height="2.5"/>
	<rect x="442.6" y="233.6" class="st4" width="2.5" height="2.5"/>
	<rect x="442.6" y="237.8" class="st4" width="2.5" height="2.5"/>
	<rect x="442.6" y="242" class="st4" width="2.5" height="2.5"/>
	<rect x="442.6" y="246.2" class="st4" width="2.5" height="2.5"/>
	<rect x="442.6" y="250.4" class="st4" width="2.5" height="2.5"/>
	<rect x="442.6" y="254.5" class="st4" width="2.5" height="2.5"/>
	<rect x="442.6" y="258.7" class="st4" width="2.5" height="2.5"/>
	<rect x="442.6" y="262.9" class="st4" width="2.5" height="2.5"/>
	<rect x="442.6" y="267.1" class="st4" width="2.5" height="2.5"/>
	<rect x="442.6" y="271.3" class="st4" width="2.5" height="2.5"/>
	<rect x="442.6" y="275.4" class="st4" width="2.5" height="2.5"/>
	<rect x="442.6" y="279.6" class="st4" width="2.5" height="2.5"/>
	<rect x="442.6" y="283.8" class="st4" width="2.5" height="2.5"/>
	<rect x="442.6" y="288" class="st4" width="2.5" height="2.5"/>
	<rect x="442.6" y="292.1" class="st4" width="2.5" height="2.5"/>
	<rect x="442.6" y="300.5" class="st4" width="2.5" height="2.5"/>
	<rect x="442.6" y="304.7" class="st4" width="2.5" height="2.5"/>
	<rect x="442.6" y="308.9" class="st4" width="2.5" height="2.5"/>
	<rect x="442.6" y="313" class="st4" width="2.5" height="2.5"/>
	<rect x="442.6" y="317.2" class="st4" width="2.5" height="2.5"/>
	<rect x="438.7" y="225.3" class="st4" width="2.5" height="2.5"/>
	<rect x="438.7" y="229.5" class="st4" width="2.5" height="2.5"/>
	<rect x="438.7" y="233.6" class="st4" width="2.5" height="2.5"/>
	<rect x="438.7" y="237.8" class="st4" width="2.5" height="2.5"/>
	<rect x="438.7" y="242" class="st4" width="2.5" height="2.5"/>
	<rect x="438.7" y="246.2" class="st4" width="2.5" height="2.5"/>
	<rect x="438.7" y="250.4" class="st4" width="2.5" height="2.5"/>
	<rect x="438.7" y="254.5" class="st4" width="2.5" height="2.5"/>
	<rect x="438.7" y="258.7" class="st4" width="2.5" height="2.5"/>
	<rect x="438.7" y="262.9" class="st4" width="2.5" height="2.5"/>
	<rect x="438.7" y="267.1" class="st4" width="2.5" height="2.5"/>
	<rect x="438.7" y="271.3" class="st4" width="2.5" height="2.5"/>
	<rect x="438.7" y="275.4" class="st4" width="2.5" height="2.5"/>
	<rect x="438.7" y="279.6" class="st4" width="2.5" height="2.5"/>
	<rect x="438.7" y="283.8" class="st4" width="2.5" height="2.5"/>
	<rect x="438.7" y="288" class="st4" width="2.5" height="2.5"/>
	<rect x="438.7" y="313" class="st4" width="2.5" height="2.5"/>
	<rect x="438.7" y="317.2" class="st4" width="2.5" height="2.5"/>
	<rect x="434.7" y="225.3" class="st4" width="2.5" height="2.5"/>
	<rect x="434.7" y="229.5" class="st4" width="2.5" height="2.5"/>
	<rect x="434.7" y="233.6" class="st4" width="2.5" height="2.5"/>
	<rect x="434.7" y="237.8" class="st4" width="2.5" height="2.5"/>
	<rect x="434.7" y="242" class="st4" width="2.5" height="2.5"/>
	<rect x="434.7" y="246.2" class="st4" width="2.5" height="2.5"/>
	<rect x="434.7" y="250.4" class="st4" width="2.5" height="2.5"/>
	<rect x="434.7" y="254.5" class="st4" width="2.5" height="2.5"/>
	<rect x="434.7" y="258.7" class="st4" width="2.5" height="2.5"/>
	<rect x="434.7" y="262.9" class="st4" width="2.5" height="2.5"/>
	<rect x="434.7" y="267.1" class="st4" width="2.5" height="2.5"/>
	<rect x="434.7" y="271.3" class="st4" width="2.5" height="2.5"/>
	<rect x="434.7" y="275.4" class="st4" width="2.5" height="2.5"/>
	<rect x="434.7" y="279.6" class="st4" width="2.5" height="2.5"/>
	<rect x="434.7" y="283.8" class="st4" width="2.5" height="2.5"/>
	<rect x="434.7" y="288" class="st4" width="2.5" height="2.5"/>
	<rect x="434.7" y="296.3" class="st4" width="2.5" height="2.5"/>
	<rect x="434.7" y="300.5" class="st4" width="2.5" height="2.5"/>
	<rect x="434.7" y="304.7" class="st4" width="2.5" height="2.5"/>
	<rect x="434.7" y="308.9" class="st4" width="2.5" height="2.5"/>
	<rect x="434.7" y="317.2" class="st4" width="2.5" height="2.5"/>
	<rect x="365.7" y="254.5" class="st4" width="2.5" height="2.5"/>
	<rect x="365.7" y="258.7" class="st4" width="2.5" height="2.5"/>
	<rect x="365.7" y="262.9" class="st4" width="2.5" height="2.5"/>
	<rect x="365.7" y="267.1" class="st4" width="2.5" height="2.5"/>
	<rect x="365.7" y="271.3" class="st4" width="2.5" height="2.5"/>
	<rect x="365.7" y="275.4" class="st4" width="2.5" height="2.5"/>
	<rect x="365.7" y="279.6" class="st4" width="2.5" height="2.5"/>
	<rect x="365.7" y="283.8" class="st4" width="2.5" height="2.5"/>
	<rect x="365.7" y="288" class="st4" width="2.5" height="2.5"/>
	<rect x="365.7" y="292.1" class="st4" width="2.5" height="2.5"/>
	<rect x="365.7" y="296.3" class="st4" width="2.5" height="2.5"/>
	<rect x="365.7" y="300.5" class="st4" width="2.5" height="2.5"/>
	<rect x="365.7" y="304.7" class="st4" width="2.5" height="2.5"/>
	<rect x="365.7" y="313" class="st4" width="2.5" height="2.5"/>
	<rect x="365.7" y="317.2" class="st4" width="2.5" height="2.5"/>
	<rect x="365.7" y="321.4" class="st4" width="2.5" height="2.5"/>
	<rect x="365.7" y="325.6" class="st4" width="2.5" height="2.5"/>
	<rect x="365.7" y="333.9" class="st4" width="2.5" height="2.5"/>
	<rect x="365.7" y="338.1" class="st4" width="2.5" height="2.5"/>
	<rect x="365.7" y="342.3" class="st4" width="2.5" height="2.5"/>
	<rect x="361.7" y="254.5" class="st4" width="2.5" height="2.5"/>
	<rect x="361.7" y="258.7" class="st4" width="2.5" height="2.5"/>
	<rect x="361.7" y="262.9" class="st4" width="2.5" height="2.5"/>
	<rect x="361.7" y="267.1" class="st4" width="2.5" height="2.5"/>
	<rect x="361.7" y="271.3" class="st4" width="2.5" height="2.5"/>
	<rect x="361.7" y="275.4" class="st4" width="2.5" height="2.5"/>
	<rect x="361.7" y="279.6" class="st4" width="2.5" height="2.5"/>
	<rect x="361.7" y="283.8" class="st4" width="2.5" height="2.5"/>
	<rect x="361.7" y="288" class="st4" width="2.5" height="2.5"/>
	<rect x="361.7" y="292.1" class="st4" width="2.5" height="2.5"/>
	<rect x="361.7" y="296.3" class="st4" width="2.5" height="2.5"/>
	<rect x="361.7" y="300.5" class="st4" width="2.5" height="2.5"/>
	<rect x="361.7" y="304.7" class="st4" width="2.5" height="2.5"/>
	<rect x="361.7" y="317.2" class="st4" width="2.5" height="2.5"/>
	<rect x="361.7" y="321.4" class="st4" width="2.5" height="2.5"/>
	<rect x="361.7" y="329.8" class="st4" width="2.5" height="2.5"/>
	<rect x="361.7" y="333.9" class="st4" width="2.5" height="2.5"/>
	<rect x="361.7" y="338.1" class="st4" width="2.5" height="2.5"/>
	<rect x="361.7" y="342.3" class="st4" width="2.5" height="2.5"/>
	<rect x="357.7" y="254.5" class="st4" width="2.5" height="2.5"/>
	<rect x="357.7" y="258.7" class="st4" width="2.5" height="2.5"/>
	<rect x="357.7" y="262.9" class="st4" width="2.5" height="2.5"/>
	<rect x="357.7" y="267.1" class="st4" width="2.5" height="2.5"/>
	<rect x="357.7" y="271.3" class="st4" width="2.5" height="2.5"/>
	<rect x="357.7" y="275.4" class="st4" width="2.5" height="2.5"/>
	<rect x="357.7" y="279.6" class="st4" width="2.5" height="2.5"/>
	<rect x="357.7" y="283.8" class="st4" width="2.5" height="2.5"/>
	<rect x="357.7" y="288" class="st4" width="2.5" height="2.5"/>
	<rect x="357.7" y="292.1" class="st4" width="2.5" height="2.5"/>
	<rect x="357.7" y="296.3" class="st4" width="2.5" height="2.5"/>
	<rect x="357.7" y="300.5" class="st4" width="2.5" height="2.5"/>
	<rect x="357.7" y="304.7" class="st4" width="2.5" height="2.5"/>
	<rect x="357.7" y="308.9" class="st4" width="2.5" height="2.5"/>
	<rect x="357.7" y="317.2" class="st4" width="2.5" height="2.5"/>
	<rect x="357.7" y="325.6" class="st4" width="2.5" height="2.5"/>
	<rect x="357.7" y="329.8" class="st4" width="2.5" height="2.5"/>
	<rect x="357.7" y="333.9" class="st4" width="2.5" height="2.5"/>
	<rect x="357.7" y="338.1" class="st4" width="2.5" height="2.5"/>
	<rect x="357.7" y="342.3" class="st4" width="2.5" height="2.5"/>
	<rect x="381.8" y="278.4" class="st4" width="2.5" height="2.5"/>
	<rect x="381.8" y="282.5" class="st4" width="2.5" height="2.5"/>
	<rect x="381.8" y="286.7" class="st4" width="2.5" height="2.5"/>
	<rect x="381.8" y="290.9" class="st4" width="2.5" height="2.5"/>
	<rect x="381.8" y="295.1" class="st4" width="2.5" height="2.5"/>
	<rect x="381.8" y="299.3" class="st4" width="2.5" height="2.5"/>
	<rect x="381.8" y="311.8" class="st4" width="2.5" height="2.5"/>
	<rect x="381.8" y="316" class="st4" width="2.5" height="2.5"/>
	<rect x="381.8" y="320.1" class="st4" width="2.5" height="2.5"/>
	<rect x="381.8" y="324.3" class="st4" width="2.5" height="2.5"/>
	<rect x="381.8" y="328.5" class="st4" width="2.5" height="2.5"/>
	<rect x="381.8" y="332.7" class="st4" width="2.5" height="2.5"/>
	<rect x="381.8" y="336.9" class="st4" width="2.5" height="2.5"/>
	<rect x="377.8" y="278.4" class="st4" width="2.5" height="2.5"/>
	<rect x="377.8" y="282.5" class="st4" width="2.5" height="2.5"/>
	<rect x="377.8" y="286.7" class="st4" width="2.5" height="2.5"/>
	<rect x="377.8" y="290.9" class="st4" width="2.5" height="2.5"/>
	<rect x="377.8" y="295.1" class="st4" width="2.5" height="2.5"/>
	<rect x="377.8" y="299.3" class="st4" width="2.5" height="2.5"/>
	<rect x="377.8" y="311.8" class="st4" width="2.5" height="2.5"/>
	<rect x="377.8" y="316" class="st4" width="2.5" height="2.5"/>
	<rect x="377.8" y="320.1" class="st4" width="2.5" height="2.5"/>
	<rect x="377.8" y="324.3" class="st4" width="2.5" height="2.5"/>
	<rect x="377.8" y="328.5" class="st4" width="2.5" height="2.5"/>
	<rect x="377.8" y="332.7" class="st4" width="2.5" height="2.5"/>
	<rect x="377.8" y="341" class="st4" width="2.5" height="2.5"/>
	<rect x="246.3" y="260" class="st4" width="2.5" height="2.5"/>
	<rect x="246.3" y="264.1" class="st4" width="2.5" height="2.5"/>
	<rect x="246.3" y="268.3" class="st4" width="2.5" height="2.5"/>
	<rect x="246.3" y="272.5" class="st4" width="2.5" height="2.5"/>
	<rect x="246.3" y="276.7" class="st4" width="2.5" height="2.5"/>
	<rect x="246.3" y="280.9" class="st4" width="2.5" height="2.5"/>
	<rect x="246.3" y="285" class="st4" width="2.5" height="2.5"/>
	<rect x="246.3" y="289.2" class="st4" width="2.5" height="2.5"/>
	<rect x="246.3" y="293.4" class="st4" width="2.5" height="2.5"/>
	<rect x="246.3" y="297.6" class="st4" width="2.5" height="2.5"/>
	<rect x="246.3" y="301.8" class="st4" width="2.5" height="2.5"/>
	<rect x="246.3" y="310.1" class="st4" width="2.5" height="2.5"/>
	<rect x="246.3" y="314.3" class="st4" width="2.5" height="2.5"/>
	<rect x="246.3" y="318.5" class="st4" width="2.5" height="2.5"/>
	<rect x="246.3" y="322.6" class="st4" width="2.5" height="2.5"/>
	<rect x="246.3" y="326.8" class="st4" width="2.5" height="2.5"/>
	<rect x="246.3" y="331" class="st4" width="2.5" height="2.5"/>
	<rect x="246.3" y="335.2" class="st4" width="2.5" height="2.5"/>
	<rect x="246.3" y="339.4" class="st4" width="2.5" height="2.5"/>
	<rect x="242.4" y="260" class="st4" width="2.5" height="2.5"/>
	<rect x="242.4" y="264.1" class="st4" width="2.5" height="2.5"/>
	<rect x="242.4" y="268.3" class="st4" width="2.5" height="2.5"/>
	<rect x="242.4" y="272.5" class="st4" width="2.5" height="2.5"/>
	<rect x="242.4" y="276.7" class="st4" width="2.5" height="2.5"/>
	<rect x="242.4" y="280.9" class="st4" width="2.5" height="2.5"/>
	<rect x="242.4" y="285" class="st4" width="2.5" height="2.5"/>
	<rect x="242.4" y="289.2" class="st4" width="2.5" height="2.5"/>
	<rect x="242.4" y="293.4" class="st4" width="2.5" height="2.5"/>
	<rect x="242.4" y="297.6" class="st4" width="2.5" height="2.5"/>
	<rect x="242.4" y="301.8" class="st4" width="2.5" height="2.5"/>
	<rect x="242.4" y="305.9" class="st4" width="2.5" height="2.5"/>
	<rect x="242.4" y="310.1" class="st4" width="2.5" height="2.5"/>
	<rect x="242.4" y="314.3" class="st4" width="2.5" height="2.5"/>
	<rect x="242.4" y="318.5" class="st4" width="2.5" height="2.5"/>
	<rect x="242.4" y="322.6" class="st4" width="2.5" height="2.5"/>
	<rect x="242.4" y="326.8" class="st4" width="2.5" height="2.5"/>
	<rect x="242.4" y="331" class="st4" width="2.5" height="2.5"/>
	<rect x="242.4" y="335.2" class="st4" width="2.5" height="2.5"/>
	<rect x="242.4" y="339.4" class="st4" width="2.5" height="2.5"/>
	<rect x="265.8" y="276.2" class="st4" width="2.5" height="2.5"/>
	<rect x="265.8" y="280.4" class="st4" width="2.5" height="2.5"/>
	<rect x="265.8" y="284.6" class="st4" width="2.5" height="2.5"/>
	<rect x="265.8" y="288.8" class="st4" width="2.5" height="2.5"/>
	<rect x="265.8" y="293" class="st4" width="2.5" height="2.5"/>
	<rect x="265.8" y="297.1" class="st4" width="2.5" height="2.5"/>
	<rect x="265.8" y="301.3" class="st4" width="2.5" height="2.5"/>
	<rect x="265.8" y="305.5" class="st4" width="2.5" height="2.5"/>
	<rect x="265.8" y="309.7" class="st4" width="2.5" height="2.5"/>
	<rect x="265.8" y="313.8" class="st4" width="2.5" height="2.5"/>
	<rect x="261.9" y="276.2" class="st4" width="2.5" height="2.5"/>
	<rect x="261.9" y="280.4" class="st4" width="2.5" height="2.5"/>
	<rect x="261.9" y="284.6" class="st4" width="2.5" height="2.5"/>
	<rect x="261.9" y="288.8" class="st4" width="2.5" height="2.5"/>
	<rect x="261.9" y="293" class="st4" width="2.5" height="2.5"/>
	<rect x="261.9" y="297.1" class="st4" width="2.5" height="2.5"/>
	<rect x="261.9" y="301.3" class="st4" width="2.5" height="2.5"/>
	<rect x="261.9" y="305.5" class="st4" width="2.5" height="2.5"/>
	<rect x="261.9" y="309.7" class="st4" width="2.5" height="2.5"/>
	<rect x="283.7" y="117.6" class="st1" width="4.2" height="233.1"/>
	<rect x="362.4" y="117.6" class="st1" width="4.2" height="233.1"/>
	<rect x="441.1" y="117.6" class="st1" width="4.2" height="233.1"/>
	<path class="st4" d="M147.8,328h25.8c2.4,0,4.4,2,4.4,4.4l0,0v49.8l0,0h-34.6l0,0v-49.8C143.4,330,145.4,328,147.8,328
		C147.8,328,147.8,328,147.8,328z"/>
	<rect x="143.4" y="335.4" class="st3" width="34.6" height="3.9"/>
	<path class="st1" d="M163.1,375.7h8.6c1.3,0,2.4,1.1,2.4,2.4v4.2l0,0h-13.4l0,0v-4.2C160.7,376.8,161.8,375.7,163.1,375.7
		C163.1,375.7,163.1,375.7,163.1,375.7z"/>
	<path class="st3" d="M174.1,382.3h-9.6c-0.9,0-1.5-0.7-1.5-1.5l0,0l0,0c0-0.8,0.7-1.5,1.5-1.5h9.6c0.8,0,1.5,0.7,1.5,1.5l0,0
		C175.7,381.6,175,382.3,174.1,382.3L174.1,382.3z"/>
	
		<ellipse transform="matrix(0.9733 -0.2297 0.2297 0.9733 -10.6274 76.277)" class="st1" cx="322.3" cy="83.8" rx="23.5" ry="23.5"/>
	<circle class="st4" cx="322.3" cy="83.8" r="20"/>
	<polyline class="st4" points="323.3,70 323.3,84 332.5,78.8 	"/>
	<path class="st1" d="M323.3,85c-0.2,0-0.4,0-0.5-0.1c-0.3-0.2-0.5-0.5-0.5-0.9V70c0-0.6,0.4-1,1-1s1,0.4,1,1v12.3l7.8-4.4
		c0.5-0.3,1.1-0.1,1.4,0.4c0.3,0.5,0.1,1.1-0.4,1.4l-9.3,5.3C323.6,85,323.4,85,323.3,85z"/>
	<path class="st1" d="M96.9,313.6c-1.8-3-4.8-0.4-4.8-0.4c0.4-5.7-4.8-9.6-4.8-9.6s6.1,0,6.9-5.8s-2.1-3.1-4.9-3.1s-5.7,8.1-2,12.6
		s2.7,12.4-5.8,19.9c-2,1.9-3.5,4.3-4.4,6.9c0.6-6.9,1-16.6-1-23.1c-3.4-11,3.1-14,5-19.5s-5-10.2-5-10.2s6.5-3,3.3-6.4
		s-9.7-2.9-9.7,1.5s4.4,6.1,4.4,6.1s5.1,5.3,5.1,8s-5.1,8.7-5.1,8.7s2.3-5.1-2.3-5.3s-6.1,5.9-4.2,8.7s5.1,0.4,5.1,0.4
		c0.2,3.2,0.7,6.4,1.4,9.5c0.5,1.6,0.3,7.8-0.1,14.3c-0.9-2.3-2.3-4.4-4.1-6.1c-8.5-7.5-9.5-15.3-5.8-19.9c3.7-4.6,0.8-12.7-2-12.6
		s-5.8-2.7-4.9,3.1s6.9,5.8,6.9,5.8s-5.2,3.9-4.8,9.6c0,0-3-2.6-4.8,0.4c-3.2,5.3,4.2,8.6,5.5,6c0,0,15.8,11.2,12,27.3l0.9,1.3
		c-0.1,1.3-0.2,2.1-0.2,2.1l1.2-0.5l1.4,2.1c0,2.3,0.1,4.7,0.4,7l3.8-5.6c-3.8-16.1,12-27.3,12-27.3
		C92.7,322.2,100.1,318.9,96.9,313.6z"/>
	<path class="st5" d="M96.9,313.6c-1.8-3-4.8-0.4-4.8-0.4c0.4-5.7-4.8-9.6-4.8-9.6s6.1,0,6.9-5.8s-2.1-3.1-4.9-3.1s-5.7,8.1-2,12.6
		s2.7,12.4-5.8,19.9c-2,1.9-3.5,4.3-4.4,6.9c0.6-6.9,1-16.6-1-23.1c-3.4-11,3.1-14,5-19.5s-5-10.2-5-10.2s6.5-3,3.3-6.4
		s-9.7-2.9-9.7,1.5s4.4,6.1,4.4,6.1s5.1,5.3,5.1,8s-5.1,8.7-5.1,8.7s2.3-5.1-2.3-5.3s-6.1,5.9-4.2,8.7s5.1,0.4,5.1,0.4
		c0.2,3.2,0.7,6.4,1.4,9.5c0.5,1.6,0.3,7.8-0.1,14.3c-0.9-2.3-2.3-4.4-4.1-6.1c-8.5-7.5-9.5-15.3-5.8-19.9c3.7-4.6,0.8-12.7-2-12.6
		s-5.8-2.7-4.9,3.1s6.9,5.8,6.9,5.8s-5.2,3.9-4.8,9.6c0,0-3-2.6-4.8,0.4c-3.2,5.3,4.2,8.6,5.5,6c0,0,15.8,11.2,12,27.3l0.9,1.3
		c-0.1,1.3-0.2,2.1-0.2,2.1l1.2-0.5l1.4,2.1c0,2.3,0.1,4.7,0.4,7l3.8-5.6c-3.8-16.1,12-27.3,12-27.3
		C92.7,322.2,100.1,318.9,96.9,313.6z"/>
	<polygon class="st3" points="93.8,382.3 57.7,382.3 53.8,342.7 97.8,342.7 	"/>
	<rect x="51.8" y="338.3" class="st4" width="47.8" height="8.7"/>
</g>
<g id="freepik--Shadow--inject-7">
	<ellipse id="freepik--path--inject-7" class="st2" cx="250" cy="416.2" rx="193.9" ry="11.3"/>
</g>
<g id="freepik--Plant--inject-7">
	<path class="st6" d="M410.5,384.7c0.1-1,3.6-25.2-3.4-33.5c-1.4-1.8-3.5-2.8-5.8-2.9c-14.2-0.3-16.1,11-16.1,11.1l1.7,0.3
		c0.1-0.4,1.7-10,14.4-9.7c1.8,0,3.5,0.9,4.6,2.3c6.5,7.8,3,31.9,3,32.2L410.5,384.7z"/>
	<path class="st6" d="M411.3,383.6l1.7-0.1c0-0.2-0.6-22.3,10.3-26.8c10.6-4.5,15.4,4.7,15.6,5.1l1.5-0.8c0-0.1-5.7-11-17.8-5.9
		C410.7,360.2,411.3,382.7,411.3,383.6z"/>
	<path class="st6" d="M411.3,385.4c0-0.4,0.1-35.2,6.9-45.4c6.5-9.8,17-5.2,17.5-5l0.7-1.5c-0.1,0-12.3-5.4-19.6,5.6
		c-7.1,10.6-7.2,44.9-7.2,46.3L411.3,385.4z"/>
	<path class="st6" d="M399.2,349.2c0,0,6.2,2.3,4.3,7.6s-21.4,14.2-21.4,14.2s-8.2-7.5-0.7-19.7S399.1,345.3,399.2,349.2z"/>
	<path class="st6" d="M418.5,338.1c0,0-4.4-0.5-4-3.1s17.1-9.5,26.9,1.6c0,0-6.3,10.8-15.4,11S418.5,338.1,418.5,338.1z"/>
	<path class="st6" d="M423,356c0,0-3-2.4,0.2-3.6s19.3-0.9,19.5,15c0,0-18.7,3.1-21-2.9S423,356,423,356z"/>
	<path class="st7" d="M399.2,349.2c0,0,6.2,2.3,4.3,7.6s-21.4,14.2-21.4,14.2s-8.2-7.5-0.7-19.7S399.1,345.3,399.2,349.2z"/>
	<path class="st7" d="M418.5,338.1c0,0-4.4-0.5-4-3.1s17.1-9.5,26.9,1.6c0,0-6.3,10.8-15.4,11S418.5,338.1,418.5,338.1z"/>
	<path class="st7" d="M423,356c0,0-3-2.4,0.2-3.6s19.3-0.9,19.5,15c0,0-18.7,3.1-21-2.9S423,356,423,356z"/>
	<polygon class="st6" points="395.9,417.1 424.9,417.1 428,385.4 392.8,385.4 	"/>
	<polygon class="st8" points="395.9,417.1 424.9,417.1 428,385.4 392.8,385.4 	"/>
	<rect x="391.3" y="381.8" class="st6" width="38.3" height="7"/>
	<rect x="391.3" y="381.8" class="st9" width="38.3" height="7"/>
</g>
<g id="freepik--Chair--inject-7">
	<path class="st10" d="M363.1,394.3l-28.8-2.8V351h-11.4v40.5l-28.9,2.8c-2.9,0.3-5.1,2.7-5.1,5.6v4.3h79.3v-4.3
		C368.2,397,366,394.6,363.1,394.3z"/>
	<path class="st9" d="M363.1,394.3l-28.8-2.8V351h-11.4v40.5l-28.9,2.8c-2.9,0.3-5.1,2.7-5.1,5.6v4.3h79.3v-4.3
		C368.2,397,366,394.6,363.1,394.3z"/>
	<circle class="st10" cx="292" cy="409.6" r="7.5"/>
	<circle class="st10" cx="365.1" cy="409.6" r="7.5"/>
	<path class="st10" d="M320.9,323.6h15.4l0,0v31.9c0,2.3-1.8,4.1-4.1,4.1l0,0h-7.1c-2.3,0-4.1-1.8-4.1-4.1l0,0V323.6L320.9,323.6z"
		/>
	<path class="st11" d="M320.9,323.6h15.4l0,0v31.9c0,2.3-1.8,4.1-4.1,4.1l0,0h-7.1c-2.3,0-4.1-1.8-4.1-4.1l0,0V323.6L320.9,323.6z"
		/>
	<path class="st10" d="M355.9,260.4c0,0,2.2,54-12.9,63.3h17.2c0,0,13.3-18.4,9.5-63.3H355.9z"/>
	<path class="st11" d="M355.9,260.4c0,0,2.2,54-12.9,63.3h17.2c0,0,13.3-18.4,9.5-63.3H355.9z"/>
	<path class="st10" d="M366,327.8h-76.9l0,0v-6.7c0-2.8,2.2-5,5-5H361c2.8,0,5,2.2,5,5V327.8L366,327.8z"/>
	<path class="st10" d="M367.2,327.8h-79.3c-1.1,0-2-0.9-2-2v-1.8c0-1.1,0.9-2,2-2h79.3c1.1,0,2,0.9,2,2v1.8
		C369.3,326.9,368.4,327.8,367.2,327.8z"/>
	<path class="st12" d="M367.2,327.8h-79.3c-1.1,0-2-0.9-2-2v-1.8c0-1.1,0.9-2,2-2h79.3c1.1,0,2,0.9,2,2v1.8
		C369.3,326.9,368.4,327.8,367.2,327.8z"/>
	<path class="st10" d="M346.5,231.4H374c8.1,0,14.6,6.5,14.6,14.6v10.8c0,8.1-6.5,14.6-14.6,14.6h-27.5c-8.1,0-14.6-6.5-14.6-14.6
		V246C331.9,237.9,338.4,231.4,346.5,231.4z"/>
</g>
<g id="freepik--Character--inject-7">
	<path class="st13" d="M263,187.3l-5.5-14.5c0,0,2.4-2.2,0.7-4.4s-11.7-8.4-13.6-7.3s-5.9,5.2-3.7,7.5s12,6.1,12,6.1l4.9,19
		L263,187.3z"/>
	<path class="st6" d="M301.4,214.8c0,0-25-5.1-27.7-6.4S261,177.8,261,177.8l-7.7,3.6c0,0,6.2,29.5,12.5,36.6s33.4,13,33.4,13
		L301.4,214.8z"/>
	<path class="st7" d="M299.2,230.9l-0.5-0.1c-1.4-0.3-5.6-1.3-10.7-2.8c-8.2-2.4-18.6-6-22.2-10.1c-6.3-7-12.5-36.6-12.5-36.6
		l7.7-3.6c0,0,10,29.4,12.8,30.7s27.7,6.4,27.7,6.4L299.2,230.9z"/>
	<polygon class="st6" points="261.1,177.2 262.7,180.3 252.8,183.7 253.1,179.9 	"/>
	<path class="st7" d="M299.4,230.5c-1.4-0.2-5.7-0.9-10.9-2c3-5.1,11.6-7.7,11.6-7.7L299.4,230.5z"/>
	<path class="st10" d="M336.6,194.4c0,0,1.5,13.8-3.6,17.2s-30.3-0.6-33.2-6.1s7.9-20.7,7.9-20.7L336.6,194.4z"/>
	<polygon class="st13" points="234.6,376.4 241.2,378 244.5,368.9 247.5,360.6 240,357.5 237.1,367.5 	"/>
	<polygon class="st7" points="237.1,367.5 244.5,368.9 247.5,360.6 240,357.5 	"/>
	<path class="st6" d="M237.8,362.7l9.1,3.4c0,0,24.3-60.8,29.3-61s55.9,23.2,68.7,10.2s-5.7-44.3-5.7-44.3s-30.7-4.4-33,2.5
		c-0.6,2-1,4.1-1.3,6.2c-0.4,2.1-0.6,3.9-0.6,3.9l0,0c-1-0.2-31.8-8.2-43.9,0C248.1,292,237.8,362.7,237.8,362.7z"/>
	<path class="st12" d="M237.8,362.7l9.1,3.4c0,0,24.3-60.8,29.3-61s55.9,23.2,68.7,10.2s-5.7-44.3-5.7-44.3s-30.7-4.4-33,2.5
		c-0.6,2-1,4.1-1.3,6.2c-0.4,2.1-0.6,3.9-0.6,3.9l0,0c-1-0.2-31.8-8.2-43.9,0C248.1,292,237.8,362.7,237.8,362.7z"/>
	<polygon class="st13" points="290.3,402.3 296.8,400.7 295.6,391.3 294.4,382.6 286.3,383.4 288.4,393.4 	"/>
	<polygon class="st7" points="288.4,393.6 295.6,391.4 294.4,382.7 286.3,383.4 	"/>
	<polygon class="st6" points="250.7,362.7 237.4,358.2 236.8,363.6 246.9,367.2 	"/>
	<path class="st6" d="M322.9,318.4c0,0-2.1,0-34.3-1.5c0,0,4.8,40.2,7.4,70.4l-9.6,1.6c0,0-23-64.5-22.8-74.8s12-13.3,12-13.3
		S298.6,314.2,322.9,318.4z"/>
	<path class="st12" d="M322.9,318.4c0,0-2.1,0-34.3-1.5c0,0,4.8,40.2,7.4,70.4l-9.6,1.6c0,0-23-64.5-22.8-74.8s12-13.3,12-13.3
		S298.6,314.2,322.9,318.4z"/>
	<path class="st14" d="M322.9,318.4c0,0-2.1,0-34.3-1.5c0,0,4.8,40.2,7.4,70.4l-9.6,1.6c0,0-23-64.5-22.8-74.8s12-13.3,12-13.3
		S298.6,314.2,322.9,318.4z"/>
	<polygon class="st6" points="297.5,384.4 284.2,385.9 286.8,391 297.5,389.7 	"/>
	<path class="st14" d="M304.4,283.7l18,3.7c0,0-9.9-5.5-17.4-7.6C304.6,281.9,304.4,283.7,304.4,283.7z"/>
	<polygon class="st10" points="338.5,266.2 339.2,271 306.2,273.5 305.4,267.9 	"/>
	<polygon class="st7" points="338.5,266.2 339.2,271 306.2,273.5 305.4,267.9 	"/>
	
		<rect x="327.7" y="265.8" transform="matrix(0.9948 -0.1023 0.1023 0.9948 -25.8894 35.0099)" class="st15" width="1.6" height="8.4"/>
	
		<rect x="313.2" y="267.7" transform="matrix(0.9979 -6.418384e-02 6.418384e-02 0.9979 -16.7033 20.8954)" class="st16" width="7.2" height="5.5"/>
	
		<rect x="307.4" y="266.7" transform="matrix(0.9948 -0.1023 0.1023 0.9948 -26.0848 32.9438)" class="st15" width="1.6" height="8.4"/>
	
		<rect x="327.7" y="265.8" transform="matrix(0.9948 -0.1023 0.1023 0.9948 -25.8894 35.0099)" class="st12" width="1.6" height="8.4"/>
	
		<rect x="307.4" y="266.7" transform="matrix(0.9948 -0.1023 0.1023 0.9948 -26.0848 32.9438)" class="st12" width="1.6" height="8.4"/>
	<path class="st6" d="M300.8,214.3c6.2,1.7,12.6,2.4,19,2.1c10.6-0.5,23.2,4.6,23.2,4.6l-4.5,45.2l-33.1,1.7
		C305.3,267.9,294.2,230.2,300.8,214.3z"/>
	<path class="st10" d="M306.1,188.8c0,0,1.9-21.9,20.2-14c23,10,4.7,36.7-6.5,31.3S306.1,188.8,306.1,188.8z"/>
	<path class="st7" d="M311.3,217.7l0.5,12.4l4.1-5.8c0,0-1.5,13.7-0.6,21.2c0,0,0.8-13.4,2.6-21.2l4.4,5.8l6.3-12.3
		C328.6,217.7,318.4,214.1,311.3,217.7z"/>
	<path class="st13" d="M316.9,220l9.5-2.7c-5.9-4-2.9-13-2.9-13l-9.4,3.3c0.4,1.3,0.8,2.6,1,4c1,5.9-1.7,6.3-1.7,6.3L316.9,220z"/>
	<path class="st7" d="M314.1,207.6c0.4,1.3,0.8,2.6,1,4c4.5-1.8,8.4-7.3,8.4-7.3L314.1,207.6z"/>
	<path class="st13" d="M320.3,179.4c-8.3-1.8-12,2-14.5,10.5c-3.1,10.6-2.4,18.7,8.5,18.7C329,208.6,334.1,182.5,320.3,179.4z"/>
	<path class="st17" d="M311.2,190.6c-0.9,1.1-2,2.1-3.2,2.9c0.3,0.8,1.1,1.4,2,1.4L311.2,190.6z"/>
	<path class="st10" d="M316.5,191.1c-0.2,0.7,0.1,1.3,0.5,1.4s1-0.4,1.1-1s-0.1-1.3-0.5-1.4S316.7,190.4,316.5,191.1z"/>
	<path class="st10" d="M317.8,190.1l-1.3-0.9C316.5,189.2,316.9,190.6,317.8,190.1z"/>
	<path class="st10" d="M308.1,188.9c-0.2,0.7,0.1,1.3,0.5,1.4s1-0.4,1.1-1s-0.1-1.3-0.5-1.4S308.2,188.2,308.1,188.9z"/>
	<path class="st10" d="M309.4,187.9L308,187C308,187,308.5,188.4,309.4,187.9z"/>
	<path class="st10" d="M321.2,187.8c-0.1,0-0.3-0.1-0.3-0.2c-0.7-1-1.8-1.7-3-1.9c-0.2,0-0.3-0.2-0.3-0.4c0-0.2,0.2-0.3,0.4-0.3
		c1.5,0.1,2.8,1,3.6,2.3c0.1,0.2,0,0.4-0.2,0.5c0,0,0,0,0,0C321.3,187.8,321.2,187.8,321.2,187.8z"/>
	<path class="st10" d="M311.9,184c-0.1,0-0.1,0-0.2-0.1c-1-0.5-2.2-0.5-3.1,0c-0.2,0.1-0.4,0-0.5-0.2c0,0,0,0,0,0
		c-0.1-0.2,0-0.4,0.2-0.5c0,0,0,0,0,0c1.2-0.6,2.6-0.5,3.8,0.1c0.2,0.1,0.2,0.3,0.1,0.5c0,0,0,0,0,0C312.1,183.9,312,184,311.9,184z
		"/>
	<path class="st10" d="M326.3,195.5c0,0-2.4-7.7-0.6-12.9c0,0-15-10.4-19.5,6.2c0,0,1.7-15.2,16.1-12.4s9.7,23.8,0.9,28.4
		C323.1,204.8,327.7,200.3,326.3,195.5z"/>
	<path class="st13" d="M324.5,197c0.6-2,2.7-3.1,4.7-2.5c2.5,0.9,2.6,6.4-4.1,6.3C324.1,200.7,323.8,199.7,324.5,197z"/>
	<path class="st10" d="M308.5,198.1c0.2,1,0.4,2.1,0.4,3.1h0.5c2.5,0.2,3.7-0.5,4.3-1.4c0.3-0.4,0.5-0.9,0.5-1.4c0-0.3,0-0.6,0-0.9
		c-1.6,0.6-3.3,0.8-5,0.6C308.9,198.2,308.5,198.1,308.5,198.1z"/>
	<path class="st16" d="M309.4,198.2l0.1,0.9c2.3,0.2,4,0,4.8-0.6c0-0.3,0-0.6,0-0.9C312.8,198.2,311.1,198.4,309.4,198.2z"/>
	<path class="st17" d="M309.5,201.3c2.5,0.2,3.7-0.5,4.3-1.4c-0.9-0.1-1.9,0-2.8,0.3C310.4,200.4,309.9,200.8,309.5,201.3z"/>
	<path class="st10" d="M320.3,180.1c0,0,0.3,14.4,9,16.2s-0.8-18.6-0.8-18.6s-12.9-8.4-21.5-2.5s-0.9,13.6-0.9,13.6
		S307.9,178.1,320.3,180.1z"/>
	<path class="st10" d="M323.6,193.3c-0.1,0-0.1,0-0.2-0.1c-6.2-4.8-3.1-14.1-3.1-14.2c0-0.1,0.2-0.2,0.3-0.2c0.1,0,0.2,0.2,0.1,0.3
		c0,0.1-3,9,2.9,13.6c0.1,0.1,0.1,0.2,0,0.3c0,0,0,0,0,0C323.7,193.3,323.7,193.3,323.6,193.3z"/>
	<path class="st6" d="M331.8,199.3c-1.1,2.9-3.9,4.6-6.3,3.7s-3.4-4-2.3-6.9s3.9-4.6,6.3-3.7S332.9,196.3,331.8,199.3z"/>
	<path class="st18" d="M331.8,199.3c-1.1,2.9-3.9,4.6-6.3,3.7s-3.4-4-2.3-6.9s3.9-4.6,6.3-3.7S332.9,196.3,331.8,199.3z"/>
	<path class="st6" d="M329,194.4c0,0,3.6-16.1-4.5-20.3c0.9,0.1,1.8,0.3,2.7,0.5c1,0.3,7.5,6.8,4.2,21.3L329,194.4z"/>
	<path class="st7" d="M329,194.4c0,0,3.6-16.1-4.5-20.3c0.9,0.1,1.8,0.3,2.7,0.5c1,0.3,7.5,6.8,4.2,21.3L329,194.4z"/>
	<path class="st6" d="M314,203.6l-0.6-0.1l0.2-1c4.4,0.7,8.9-0.3,12.7-2.7l0.6,0.8C323.1,203.2,318.5,204.2,314,203.6z"/>
	<g class="st19">
		<path d="M314,203.6l-0.6-0.1l0.2-1c4.4,0.7,8.9-0.3,12.7-2.7l0.6,0.8C323.1,203.2,318.5,204.2,314,203.6z"/>
	</g>
	<path class="st6" d="M331.5,198.9c-0.7,1.9-2.6,3-4.2,2.4s-2.3-2.6-1.5-4.6s2.6-3,4.2-2.4S332.2,196.9,331.5,198.9z"/>
	<path class="st6" d="M313.1,204l-0.8-0.1c-0.6-0.1-1-0.6-0.9-1.2c0,0,0,0,0,0l0,0c0.1-0.6,0.6-1,1.2-0.9c0,0,0,0,0,0l0.8,0.1
		c0.6,0.1,1,0.6,0.9,1.2l0,0C314.2,203.7,313.7,204.1,313.1,204z"/>
	<path class="st18" d="M313.1,204l-0.8-0.1c-0.6-0.1-1-0.6-0.9-1.2c0,0,0,0,0,0l0,0c0.1-0.6,0.6-1,1.2-0.9c0,0,0,0,0,0l0.8,0.1
		c0.6,0.1,1,0.6,0.9,1.2l0,0C314.2,203.7,313.7,204.1,313.1,204z"/>
	<polygon class="st6" points="323.9,213.9 317.9,219.7 320.3,226.8 328.6,217.7 	"/>
	<polygon class="st6" points="315.3,215.1 316.2,219.6 313.2,225.9 311.3,217.7 	"/>
	<path class="st13" d="M322.6,218.9l3.5-12.6c0,0-1.7-3.1-1.3-3.8s2.2-9.1,3.4-10.1s6.5,0.6,7.1,1.5s-5,12.4-5,12.4l-2,13.7
		L322.6,218.9z"/>
	<path class="st6" d="M343,221c9.5,9.7-9.5,31.7-20.4,30.8s0.3-40.9,0.3-40.9l7,1.1c0,0-2.5,17.3-1.7,18.6S339.9,217.8,343,221z"/>
	<path class="st7" d="M343,221c9.5,9.7-9.5,31.7-20.4,30.8s0.3-40.9,0.3-40.9l7,1.1c0,0-2.5,17.3-1.7,18.6S339.9,217.8,343,221z"/>
	<polygon class="st6" points="322.3,209.7 321.3,213 331,213.9 331,211 	"/>
	<path class="st12" d="M303.6,235.8h3.9c0.4,0,0.8,0.4,0.8,0.8v7.4c0,0.4-0.4,0.8-0.8,0.8h-3.9c-0.4,0-0.8-0.4-0.8-0.8v-7.4
		C302.8,236.2,303.2,235.8,303.6,235.8z"/>
	<rect x="303.1" y="236.4" class="st7" width="4.5" height="6.1"/>
	<rect x="305" y="233.6" class="st10" width="1" height="3.6"/>
	<path class="st6" d="M223.7,389.2c1-0.5,2.1-0.7,3.2-0.8l0,0c0,0,3.8-2.2,7.6-10.9h4.2c1.5,0,2.8,0.9,3.3,2.3
		c0.1,0.2,0.1,0.4,0.1,0.6c-0.1,1-0.2,2-0.3,3c-0.6,3.4-1.4,6.7-2.5,10l-0.7-0.2l1.3-6.3c0.4-2.1-1.8-0.1-2.9,2.1s-2.6,4.4-7.3,3.3
		C224.2,390.9,222,390.1,223.7,389.2z"/>
	<path class="st13" d="M235.2,375.2c0,0-5.3,11.1-8.3,13.2c0,0,4.1,2.4,8.3-3c5.5-7,6.8-5,6.8-5c-0.1-1.2-0.3-2.4-0.7-3.6
		C240.6,374.5,235.2,375.2,235.2,375.2z"/>
	<path class="st6" d="M281.9,415.5c0.9-0.7,1.8-1.2,2.9-1.5l0,0c0,0,3.2-3.1,4.8-12.4l4.1-1c1.4-0.3,2.9,0.3,3.7,1.5
		c0.1,0.2,0.2,0.3,0.3,0.5c0.2,1,0.3,2,0.4,3c0.2,3.4,0.2,6.8,0,10.3h-0.7l-0.2-6.4c-0.1-2.2-1.8,0.4-2.3,2.7s-1.5,4.8-6.3,4.9
		C282.8,417.1,280.5,416.9,281.9,415.5z"/>
	<path class="st13" d="M289.8,399.2c0,0-2.5,12-5,14.8c0,0,4.5,1.4,7.4-4.9c3.7-8.1,5.5-6.5,5.5-6.5c-0.4-1.1-0.9-2.3-1.5-3.3
		C294.8,397.3,289.8,399.2,289.8,399.2z"/>
</g>
<g id="freepik--speech-bubble--inject-7">
	<path class="st6" d="M347.9,157.1h34.9c2.8,0,5.1,2.3,5.1,5.1v14.9c0,2.8-2.3,5.1-5.1,5.1h-34.9c-2.8,0-5.1-2.3-5.1-5.1v-14.9
		C342.8,159.4,345,157.1,347.9,157.1z"/>
	<polygon class="st6" points="354.9,179.4 344.3,193.7 361.3,180.3 	"/>
	<path class="st16" d="M355.2,169.7c0,0.8-0.7,1.5-1.5,1.5s-1.5-0.7-1.5-1.5s0.7-1.5,1.5-1.5c0,0,0,0,0,0
		C354.6,168.2,355.2,168.9,355.2,169.7L355.2,169.7z"/>
	<path class="st16" d="M362.9,169.7c0,0.8-0.7,1.5-1.5,1.5s-1.5-0.7-1.5-1.5s0.7-1.5,1.5-1.5c0,0,0,0,0,0
		C362.3,168.2,362.9,168.9,362.9,169.7L362.9,169.7z"/>
	<path class="st16" d="M370.6,169.7c0,0.8-0.7,1.5-1.5,1.5s-1.5-0.7-1.5-1.5s0.7-1.5,1.5-1.5c0,0,0,0,0,0
		C370,168.2,370.6,168.9,370.6,169.7L370.6,169.7z"/>
	<path class="st16" d="M378.3,169.7c0,0.8-0.7,1.5-1.5,1.5s-1.5-0.7-1.5-1.5s0.7-1.5,1.5-1.5c0,0,0,0,0,0
		C377.7,168.2,378.3,168.9,378.3,169.7L378.3,169.7z"/>
</g>
<g id="freepik--Bird--inject-7">
	<path class="st6" d="M226.8,131.9l24.9,13.4c0.7,0.4,0.9,1.2,0.6,1.9l-7.9,14.8c-0.4,0.7-1.2,0.9-1.9,0.6l-24.9-13.4
		c-0.7-0.4-0.9-1.2-0.6-1.9l7.9-14.8C225.3,131.8,226.1,131.6,226.8,131.9z"/>
	<path class="st20" d="M226.8,131.9l24.9,13.4c0.7,0.4,0.9,1.2,0.6,1.9l-7.9,14.8c-0.4,0.7-1.2,0.9-1.9,0.6l-24.9-13.4
		c-0.7-0.4-0.9-1.2-0.6-1.9l7.9-14.8C225.3,131.8,226.1,131.6,226.8,131.9z"/>
	<path class="st7" d="M224.3,133.7l7.8,14.6c0.6,1.1,1.8,1.8,3.1,1.7l16.2-1.6l-16.5,2.4c-1.5,0.2-2.9-0.6-3.6-1.9L224.3,133.7z"/>
	<path class="st6" d="M205.3,131c0.3-5.6,4.4-16.8,9.4-20.2s1.7,1.3,1.7,1.3s4.8-4.6,7.3-4.5s0,3,0,3s5.1-3.2,7.5-3s0,2.9,0,2.9
		s4.2-3,5.9-1.6s-21.9,17-24.5,23.3S205.1,136.6,205.3,131z"/>
	<path class="st21" d="M205.3,131c0.3-5.6,4.4-16.8,9.4-20.2s1.7,1.3,1.7,1.3s4.8-4.6,7.3-4.5s0,3,0,3s5.1-3.2,7.5-3s0,2.9,0,2.9
		s4.2-3,5.9-1.6s-21.9,17-24.5,23.3S205.1,136.6,205.3,131z"/>
	<path class="st6" d="M225.6,130.2l3.1,2c0.1,0.1,0.2,0.2,0.1,0.4c-0.1,0.1-0.1,0.1-0.2,0.1l-3.3-0.3l0.3,2.5c0,0.2-0.1,0.3-0.2,0.3
		c-0.1,0-0.2,0-0.3-0.1l-1.9-2.1L225.6,130.2z"/>
	<path class="st11" d="M225.6,130.2l3.1,2c0.1,0.1,0.2,0.2,0.1,0.4c-0.1,0.1-0.1,0.1-0.2,0.1l-3.3-0.3l0.3,2.5
		c0,0.2-0.1,0.3-0.2,0.3c-0.1,0-0.2,0-0.3-0.1l-1.9-2.1L225.6,130.2z"/>
	<path class="st6" d="M181.4,117.6c0,0,4.4-3,10.9-1.1c0,0,1.9,8.7,7.1,11.6c2.9,1.6,9.8,1.4,15.3-0.3c6.6-2.1,9.8-2.1,10.9,0.3
		c1.2,2.5-0.1,5-5.1,6.2s-9,9.9-18.1,10s-13.9-9-11.6-17C188.7,123.3,185.4,119.9,181.4,117.6z"/>
	<path class="st8" d="M181.4,117.6c0,0,4.4-3,10.9-1.1c0,0,1.9,8.7,7.1,11.6c2.9,1.6,9.8,1.4,15.3-0.3c6.6-2.1,9.8-2.1,10.9,0.3
		c1.2,2.5-0.1,5-5.1,6.2s-9,9.9-18.1,10s-13.9-9-11.6-17C188.7,123.3,185.4,119.9,181.4,117.6z"/>
	<path class="st10" d="M223.2,129.8c0,0.2-0.2,0.4-0.4,0.4c-0.2,0-0.4-0.2-0.4-0.4c0-0.2,0.2-0.4,0.4-0.4l0,0
		C223,129.4,223.2,129.6,223.2,129.8z"/>
	<path class="st6" d="M200.4,137.2c-5.4,1.5-17.3,1-22.1-2.7s0.7-2,0.7-2s-5.9-3.1-6.5-5.5s2.9-0.9,2.9-0.9s-4.6-3.9-5.2-6.2
		s2.8-0.9,2.8-0.9s-4.2-3.1-3.3-5.2s22.9,15.6,29.8,16.1S205.8,135.7,200.4,137.2z"/>
	<path class="st21" d="M200.4,137.2c-5.4,1.5-17.3,1-22.1-2.7s0.7-2,0.7-2s-5.9-3.1-6.5-5.5s2.9-0.9,2.9-0.9s-4.6-3.9-5.2-6.2
		s2.8-0.9,2.8-0.9s-4.2-3.1-3.3-5.2s22.9,15.6,29.8,16.1S205.8,135.7,200.4,137.2z"/>
	<path class="st6" d="M165.2,112.8c0,0-0.1,0-0.1,0c-0.9-0.3-1.9-0.6-2.8-0.9c-0.2-0.1-0.3-0.3-0.3-0.5c0.1-0.2,0.3-0.3,0.5-0.3
		c1,0.3,1.9,0.6,2.9,1c0.2,0.1,0.3,0.3,0.2,0.5C165.5,112.8,165.3,112.9,165.2,112.8L165.2,112.8z"/>
	<path class="st15" d="M104.7,194c-0.2,0-0.4-0.2-0.4-0.4c0-0.2,0.2-0.4,0.4-0.4c2,0,4-0.2,5.9-0.6c0.2,0,0.4,0.1,0.4,0.3
		c0,0.2-0.1,0.4-0.3,0.4c0,0,0,0,0,0C108.8,193.8,106.8,194,104.7,194z M98.7,193.7L98.7,193.7c-2-0.2-4-0.5-6-1
		c-0.2,0-0.3-0.2-0.3-0.4c0-0.2,0.2-0.3,0.4-0.3c1.9,0.4,3.9,0.8,5.9,1c0.2,0,0.3,0.2,0.3,0.4C99.1,193.5,98.9,193.7,98.7,193.7
		L98.7,193.7z M116.5,191.7c-0.1,0-0.3-0.1-0.3-0.2c-0.1-0.2,0-0.4,0.2-0.5c0,0,0,0,0,0c1.8-0.8,3.5-1.8,5-3.1
		c0.2-0.1,0.4-0.1,0.5,0.1c0.1,0.2,0.1,0.4,0,0.5c-1.6,1.3-3.3,2.4-5.2,3.3C116.6,191.7,116.5,191.7,116.5,191.7L116.5,191.7z
		 M87,191c0,0-0.1,0-0.1,0c-1.9-0.6-3.8-1.4-5.7-2.2c-0.2-0.1-0.2-0.3-0.1-0.5c0.1-0.2,0.3-0.2,0.5-0.2c1.8,0.8,3.7,1.5,5.6,2.2
		c0.2,0.1,0.3,0.3,0.2,0.5C87.3,190.9,87.2,191,87,191z M76,186.1c-0.1,0-0.1,0-0.2,0c-1.8-1-3.5-2.1-5.2-3.2
		c-0.2-0.1-0.2-0.4-0.1-0.5c0.1-0.2,0.4-0.2,0.5-0.1c1.6,1.1,3.3,2.2,5.1,3.2c0.2,0.1,0.2,0.3,0.1,0.5c0,0,0,0,0,0
		C76.2,186.1,76.1,186.2,76,186.1L76,186.1z M125.4,183.9c-0.1,0-0.1,0-0.2,0c-0.2-0.1-0.2-0.3-0.1-0.5c0,0,0,0,0,0
		c0.3-0.5,0.6-1.1,0.9-1.7c0.6-1.2,1-2.5,1.3-3.8c0.1-0.2,0.3-0.3,0.5-0.3c0.2,0.1,0.3,0.3,0.3,0.5c-0.3,1.4-0.8,2.7-1.3,3.9
		c-0.3,0.6-0.6,1.2-0.9,1.8C125.7,183.9,125.5,183.9,125.4,183.9L125.4,183.9z M66.1,179.2c-0.1,0-0.2,0-0.2-0.1
		c-1.5-1.3-2.9-2.8-4.3-4.3c-0.1-0.1-0.1-0.4,0-0.5c0.1-0.1,0.4-0.1,0.5,0c1.3,1.5,2.7,2.9,4.2,4.3c0.1,0.1,0.1,0.4,0,0.5
		C66.3,179.2,66.2,179.2,66.1,179.2L66.1,179.2z M128.3,172.3c-0.2,0-0.4-0.2-0.4-0.4c0,0,0,0,0,0c0-2-0.2-4-0.6-5.9
		c0-0.2,0.1-0.4,0.3-0.4c0.2,0,0.4,0.1,0.4,0.3c0.4,2,0.5,4,0.6,6.1C128.7,172.1,128.5,172.3,128.3,172.3
		C128.3,172.3,128.3,172.3,128.3,172.3L128.3,172.3z M126.3,160.4c-0.2,0-0.3-0.1-0.4-0.3c-0.5-1.8-1.1-3.6-1.9-5.7
		c-0.1-0.2,0-0.4,0.2-0.5c0,0,0,0,0,0c0.2-0.1,0.4,0,0.5,0.2c0.8,2.1,1.4,4,1.9,5.7c0.1,0.2-0.1,0.4-0.3,0.5L126.3,160.4z
		 M122.2,149.1c-0.1,0-0.3-0.1-0.3-0.2c-0.6-1.6-1.5-3.4-2.4-5.4v-0.1c-0.1-0.2,0.1-0.4,0.3-0.5c0.2,0,0.3,0,0.4,0.2v0.1
		c0.9,2,1.8,3.8,2.4,5.4c0.1,0.2,0,0.4-0.2,0.5L122.2,149.1z M117.2,138.1c-0.2,0-0.3-0.1-0.3-0.2c-0.9-2.1-1.6-3.9-2.2-5.6
		c-0.1-0.2,0-0.4,0.2-0.5c0.2-0.1,0.4,0,0.5,0.2c0.6,1.7,1.3,3.5,2.2,5.6c0.1,0.2,0,0.4-0.2,0.5c0,0,0,0,0,0
		C117.3,138.1,117.2,138.1,117.2,138.1L117.2,138.1z M113.5,126.6c-0.2,0-0.3-0.1-0.4-0.3c-0.2-1.1-0.3-2.2-0.3-3.2
		c0-1,0.1-1.9,0.3-2.9c0.1-0.2,0.3-0.3,0.5-0.2c0.2,0.1,0.3,0.2,0.3,0.4c-0.2,0.9-0.3,1.8-0.3,2.7c0,1,0.1,2.1,0.3,3.1
		C113.9,126.4,113.8,126.6,113.5,126.6L113.5,126.6z M116.1,115.3c-0.1,0-0.2,0-0.2-0.1c-0.1-0.1-0.1-0.4,0-0.5
		c1.3-1.6,3-2.9,4.8-3.8c0.2-0.1,0.4,0,0.5,0.2c0.1,0.2,0,0.4-0.2,0.5c-1.7,0.9-3.3,2.1-4.6,3.6
		C116.4,115.2,116.3,115.3,116.1,115.3L116.1,115.3z M156.5,110.4L156.5,110.4c-2-0.4-4-0.7-6-1c-0.2,0-0.3-0.2-0.3-0.4c0,0,0,0,0,0
		c0-0.2,0.2-0.3,0.4-0.3c0,0,0,0,0,0c2,0.3,4,0.6,6,1c0.2,0,0.3,0.3,0.3,0.5C156.8,110.2,156.7,110.4,156.5,110.4L156.5,110.4z
		 M126.5,109.5c-0.2,0-0.4-0.1-0.4-0.3c0-0.2,0.1-0.4,0.3-0.4c2-0.4,4-0.7,6-0.9c0.2,0,0.4,0.1,0.4,0.3c0,0.2-0.1,0.4-0.3,0.4
		c0,0,0,0,0,0C130.4,108.8,128.5,109.1,126.5,109.5L126.5,109.5z M144.5,108.8L144.5,108.8c-1.7-0.1-3.8-0.3-6-0.3
		c-0.2,0-0.4-0.2-0.4-0.4c0-0.2,0.2-0.4,0.4-0.4c0,0,0,0,0,0c2.2,0.1,4.3,0.2,6,0.3c0.2,0,0.4,0.2,0.4,0.4c0,0,0,0,0,0
		C144.8,108.6,144.7,108.8,144.5,108.8L144.5,108.8z"/>
	<path class="st6" d="M58.4,170c-0.1,0-0.3-0.1-0.3-0.2c-0.5-0.9-1-1.8-1.3-2.7c-0.1-0.2,0-0.4,0.2-0.5c0,0,0,0,0,0
		c0.2-0.1,0.4,0,0.5,0.2c0.4,0.9,0.8,1.8,1.3,2.6c0.1,0.2,0.1,0.4-0.1,0.5C58.5,170,58.4,170,58.4,170L58.4,170z"/>
</g>
<g id="freepik--Desk--inject-7">
	<rect x="141.9" y="249" class="st16" width="38" height="7.8"/>
	<rect x="141.9" y="249" class="st14" width="38" height="7.8"/>
	<rect x="141.9" y="249" class="st14" width="16" height="7.8"/>
	<polygon class="st14" points="141.9,250.2 175.6,250.2 141.9,251.1 	"/>
	<polygon class="st14" points="179.8,251.5 150.5,252.2 179.8,252.2 	"/>
	<polygon class="st14" points="143.4,253.7 157.8,253.1 179.1,253.7 157.8,254 	"/>
	<polygon class="st14" points="141.9,255.3 166.9,255.3 141.9,255.9 	"/>
	<polygon class="st14" points="179.8,255.9 163,256.2 179.8,256.2 	"/>
	<rect x="136.6" y="241.3" class="st16" width="38" height="7.8"/>
	<rect x="136.6" y="241.3" class="st14" width="38" height="7.8"/>
	<rect x="136.6" y="241.3" class="st14" width="16" height="7.8"/>
	<polygon class="st14" points="136.6,242.4 170.4,242.4 136.6,243.3 	"/>
	<polygon class="st14" points="174.5,243.7 145.2,244.5 174.5,244.5 	"/>
	<polygon class="st14" points="138.1,245.9 152.6,245.3 173.8,245.9 152.6,246.2 	"/>
	<polygon class="st14" points="136.6,247.6 161.6,247.6 136.6,248.1 	"/>
	<polygon class="st14" points="174.5,248.1 157.8,248.5 174.5,248.5 	"/>
	<rect x="140.9" y="233.5" class="st16" width="38" height="7.8"/>
	<rect x="140.9" y="233.5" class="st14" width="38" height="7.8"/>
	<rect x="140.9" y="233.5" class="st14" width="16" height="7.8"/>
	<polygon class="st14" points="140.9,234.6 174.7,234.6 140.9,235.6 	"/>
	<polygon class="st14" points="178.9,235.9 149.6,236.7 178.9,236.7 	"/>
	<polygon class="st14" points="142.4,238.1 156.9,237.5 178.1,238.1 156.9,238.4 	"/>
	<polygon class="st14" points="140.9,239.8 165.9,239.8 140.9,240.4 	"/>
	<polygon class="st14" points="178.8,240.4 162.1,240.7 178.9,240.7 	"/>
	<polygon class="st10" points="204.1,256.7 205.1,252.9 245.7,252.9 264.4,254.8 265.1,256.7 	"/>
	<polygon class="st18" points="245.7,252.9 245.7,256.7 204.1,256.7 205.1,252.9 	"/>
	<path class="st10" d="M237.5,235.1c0.2,1.7-1,3.3-2.8,3.5c-0.1,0-0.3,0-0.4,0h-62.1c-2,0-3.7-1.6-3.9-3.6l-3.7-39.8
		c0-0.4,0-0.8,0.1-1.2c0.4-1.4,1.7-2.4,3.1-2.4H230c2,0,3.7,1.6,3.9,3.6L237.5,235.1z"/>
	<path class="st18" d="M234.1,238.6h-61.9c-2,0-3.7-1.6-3.9-3.6l-3.7-39.8c0-0.4,0-0.8,0.1-1.2h61.9c2,0,3.7,1.6,3.9,3.6l3.7,39.8
		C234.2,237.9,234.2,238.3,234.1,238.6z"/>
	<polygon class="st10" points="191.4,214.3 204.3,214.3 200.9,251.1 221.2,254.1 221.2,256.7 178.4,256.7 178.4,254.1 187.1,251.1 	
		"/>
	<polygon class="st22" points="204.3,214.3 194.8,256.1 187.1,255.9 191.4,214.3 	"/>
	<polygon class="st10" points="204.2,417.1 198.1,417.1 187.1,263.8 195.2,263.8 	"/>
	<polygon class="st21" points="204.2,417.1 198.1,417.1 187.6,271.4 187.1,264.1 195.2,264.1 195.6,271.4 	"/>
	<polygon class="st7" points="195.6,271.1 187.6,271.1 187.1,264.1 195.2,264.1 	"/>
	<polygon class="st10" points="249.2,417.1 243.1,417.1 242.1,263.8 250.2,263.8 	"/>
	<polygon class="st8" points="250.2,264.1 250,288.8 249.2,417.1 243.1,417.1 242.2,288.8 242.1,264.1 	"/>
	<polygon class="st7" points="250.2,264.1 250,289.1 242.2,289.1 242.1,264.1 	"/>
	<polygon class="st10" points="314.2,417.1 308.1,417.1 297.1,263.8 305.2,263.8 	"/>
	<polygon class="st8" points="314.2,417.1 308.1,417.1 297.6,271.4 297.1,264.1 305.2,264.1 305.6,271.4 	"/>
	<polygon class="st7" points="305.6,271.1 297.6,271.1 297.1,264.1 305.2,264.1 	"/>
	<polygon class="st10" points="134.1,417.1 128,417.1 137,263.8 145.1,263.8 	"/>
	<polygon class="st8" points="145.1,264.1 144.6,271.4 134.1,417.1 128,417.1 136.6,271.4 137,264.1 	"/>
	<polygon class="st7" points="137,264.1 145.1,264.1 144.6,271.1 136.6,271.1 	"/>
	<path class="st6" d="M130.6,260h181.1l0,0v5.5c0,1.2-1,2.2-2.2,2.2l0,0H132.7c-1.2,0-2.2-1-2.2-2.2l0,0L130.6,260L130.6,260z"/>
	<path class="st12" d="M130.6,260h181.1l0,0v5.5c0,1.2-1,2.2-2.2,2.2l0,0H132.7c-1.2,0-2.2-1-2.2-2.2l0,0L130.6,260L130.6,260z"/>
	<rect x="130.6" y="260" class="st7" width="181.1" height="3.8"/>
	<path class="st6" d="M315.5,261H126.8c-1.2,0-2.2-1-2.2-2.2l0,0l0,0c0-1.2,1-2.2,2.2-2.2h188.7c1.2,0,2.2,1,2.2,2.2l0,0
		C317.6,260,316.6,261,315.5,261L315.5,261z"/>
	<path class="st12" d="M315.5,261H126.8c-1.2,0-2.2-1-2.2-2.2l0,0l0,0c0-1.2,1-2.2,2.2-2.2h188.7c1.2,0,2.2,1,2.2,2.2l0,0
		C317.6,260,316.6,261,315.5,261L315.5,261z"/>
	<path class="st6" d="M270.8,250l2.3-3.5c0.5-0.7,1.2-1.1,2.1-1.1h2.9c0.2,0,0.5,0,0.7,0.1l10.5,3.2c0.6,0.2,1.1,0.6,1.4,1.1
		l1.5,2.5L270.8,250z"/>
	<path class="st7" d="M292.3,252.3l-15.3-1.7l-6.2-0.7l2.3-3.5c0.5-0.7,1.2-1.1,2.1-1.1h2.9c0.2,0,0.5,0,0.7,0.1l0.2,0.1l10.3,3.1
		c0.6,0.2,1.1,0.6,1.4,1.1L292.3,252.3z"/>
	<path class="st7" d="M292.3,252.3l-15.3-1.7l2.1-5.1l10.3,3.1c0.6,0.2,1.1,0.6,1.4,1.1L292.3,252.3z"/>
	<path class="st6" d="M299.5,256.3v0.3h-32.4l1.2-4.7c0.5-1.8,2.1-3,3.9-3h14.4c0.5,0,1,0.1,1.4,0.3l1.8,0.7l7.1,2.7
		C298.5,253.1,299.6,254.6,299.5,256.3z"/>
	<path class="st7" d="M299.5,256.3v0.3h-13.3l0.7-5.1c0.2-1.2,1.3-2,2.4-1.8c0.1,0,0.3,0.1,0.4,0.1l7.1,2.7
		C298.5,253.1,299.6,254.6,299.5,256.3z"/>
	<path class="st10" d="M288.3,253.2l4.2-12.7c0.2-0.5,0.7-0.8,1.2-0.6c0.1,0,0.1,0,0.2,0.1l0,0c0.4,0.2,0.6,0.7,0.5,1.1l-3.6,13.6
		C290.8,254.6,288.4,255.6,288.3,253.2z"/>
	<polygon class="st7" points="270.8,255.6 268.9,255.6 269.3,253.8 271.2,253.8 	"/>
	<polygon class="st7" points="273.6,255.5 271.7,255.5 272.1,253.7 274,253.7 	"/>
</g>
</svg>
