<?xml version="1.0" encoding="utf-8"?>
<!-- Generator: Adobe Illustrator 24.1.1, SVG Export Plug-In . SVG Version: 6.00 Build 0)  -->
<svg version="1.1" id="Layer_1" xmlns="http://www.w3.org/2000/svg" xmlns:xlink="http://www.w3.org/1999/xlink" x="0px" y="0px"
	 viewBox="0 0 32 32" style="enable-background:new 0 0 32 32;" xml:space="preserve">
<style type="text/css">
	.st0{fill:#FFFFFF;}
</style>
<path class="st0" d="M25.7,2.9H11.9C11.4,2.3,10.7,2,9.9,2C8.4,2,7.2,3.2,7.2,4.7c0,0,0,0,0,0v8.1c0.1,0.5,0.5,0.9,1,0.8
	c0.4,0,0.8-0.4,0.8-0.8V4.7c0-0.5,0.4-0.9,0.9-0.9c0.5,0,0.9,0.4,0.9,0.9v7.2c0.1,1.5-1,2.7-2.5,2.8c-1.5,0.1-2.7-1-2.8-2.5
	c0-0.1,0-0.2,0-0.3V4.7c0-0.5-0.4-0.9-0.9-0.9S3.6,4.2,3.6,4.7v7.2c0,2.3,1.8,4.2,4.1,4.5v10.8c0,1.5,1.2,2.7,2.7,2.7h15.3
	c1.5,0,2.7-1.2,2.7-2.7V5.6C28.4,4.1,27.2,2.9,25.7,2.9z M26.6,27.3c0,0.5-0.4,0.9-0.9,0.9h0H10.4c-0.5,0-0.9-0.4-0.9-0.9l0,0v-11
	c1.5-0.5,2.7-1.8,3.1-3.4h11.1c0.5-0.1,0.9-0.5,0.8-1c0-0.4-0.4-0.8-0.8-0.8h-11V4.8h13c0.5,0,0.9,0.4,0.9,0.9v0L26.6,27.3z"/>
<path class="st0" d="M23.7,15.5H12.4c-0.5,0-0.9,0.4-0.9,0.9c0,0.5,0.4,0.9,0.9,0.9h11.3c0.5,0,0.9-0.4,0.9-0.9
	C24.6,15.9,24.2,15.5,23.7,15.5z"/>
<path class="st0" d="M23.7,20H12.4c-0.5-0.1-1,0.3-1,0.8c-0.1,0.5,0.3,1,0.8,1c0.1,0,0.1,0,0.2,0h11.3c0.5-0.1,0.9-0.5,0.8-1
	C24.5,20.4,24.1,20,23.7,20z"/>
</svg>
