<svg
  xmlns="http://www.w3.org/2000/svg"
  width="40.495"
  height="53.163"
  viewBox="0 0 40.495 53.163"
>
  <g id="dsm" transform="translate(-61)">
    <path
      id="Path_987"
      data-name="Path 987"
      d="M96.823,3.26H89.035v-1.7A1.555,1.555,0,0,0,87.478,0H75.007A1.555,1.555,0,0,0,73.45,1.558v1.7H65.673A4.68,4.68,0,0,0,61,7.933V48.49a4.68,4.68,0,0,0,4.673,4.673h31.15A4.68,4.68,0,0,0,101.5,48.49V7.933A4.68,4.68,0,0,0,96.823,3.26Zm-10.9-.145V6.292H76.565V3.115H85.92ZM65.673,6.375H73.45V7.85a1.555,1.555,0,0,0,1.558,1.558h12.47A1.555,1.555,0,0,0,89.035,7.85V6.375h7.788A1.555,1.555,0,0,1,98.38,7.933v4.631H64.115V7.933a1.555,1.555,0,0,1,1.558-1.558Zm31.15,43.673H65.673a1.555,1.555,0,0,1-1.558-1.558V15.679H98.38V48.49A1.555,1.555,0,0,1,96.823,50.048Z"
      transform="translate(0)"
      fill="#fff"
    />
    <path
      id="Path_988"
      data-name="Path 988"
      d="M122.458,184.115h12.46a1.558,1.558,0,1,0,0-3.115h-12.46a1.558,1.558,0,1,0,0,3.115Z"
      transform="translate(-53.68 -162.206)"
      fill="#fff"
    />
    <path
      id="Path_989"
      data-name="Path 989"
      d="M135.018,241h-12.46a1.558,1.558,0,0,0,0,3.115h12.46a1.558,1.558,0,0,0,0-3.115Z"
      transform="translate(-53.77 -215.976)"
      fill="#fff"
    />
    <path
      id="Path_990"
      data-name="Path 990"
      d="M122.458,304.115h24.92a1.557,1.557,0,1,0,0-3.115h-24.92a1.557,1.557,0,1,0,0,3.115Z"
      transform="translate(-53.68 -269.746)"
      fill="#fff"
    />
    <path
      id="Path_991"
      data-name="Path 991"
      d="M147.378,361h-24.92a1.558,1.558,0,1,0,0,3.115h24.92a1.558,1.558,0,1,0,0-3.115Z"
      transform="translate(-53.68 -323.516)"
      fill="#fff"
    />
    <path
      id="Path_992"
      data-name="Path 992"
      d="M147.378,421h-24.92a1.557,1.557,0,1,0,0,3.115h24.92a1.557,1.557,0,1,0,0-3.115Z"
      transform="translate(-53.68 -377.286)"
      fill="#fff"
    />
    <path
      id="Path_993"
      data-name="Path 993"
      d="M308.788,184.115H307.23v-1.558a1.558,1.558,0,0,0-3.115,0v1.558h-1.557a1.558,1.558,0,1,0,0,3.115h1.557v1.578a1.558,1.558,0,0,0,3.115,0V187.23h1.557a1.558,1.558,0,1,0,0-3.115Z"
      transform="translate(-215.08 -162.206)"
      fill="#fff"
    />
  </g>
</svg>
