<?xml version="1.0" encoding="utf-8"?>
<!-- Generator: Adobe Illustrator 24.1.1, SVG Export Plug-In . SVG Version: 6.00 Build 0)  -->
<svg version="1.1" id="Layer_1" xmlns="http://www.w3.org/2000/svg" xmlns:xlink="http://www.w3.org/1999/xlink" x="0px" y="0px"
	 viewBox="0 0 512 512" style="enable-background:new 0 0 512 512;" xml:space="preserve">
<style type="text/css">
	.st0{fill:#FFFFFF;}
</style>
<g id="Order_history">
	<path class="st0" d="M251.2,448H70.8c21-26.6,32.4-59.6,32.3-93.5V64h278.4v153.2c0,4.4,3.6,8,8,8s8-3.6,8-8V56c0-4.4-3.6-8-8-8
		c0,0,0,0,0,0H95c-4.4,0-8,3.6-8,8c0,0,0,0,0,0v298.5c0.1,36-14.2,70.5-39.7,95.9c-3.1,3.1-3.1,8.2,0,11.3c1.5,1.5,3.5,2.3,5.7,2.3
		h198.2c4.4,0,8-3.6,8-8S255.6,448,251.2,448z"/>
	<path class="st0" d="M334,148.8H150.5c-4.4,0-8,3.6-8,8s3.6,8,8,8H334c4.4,0,8-3.6,8-8S338.4,148.8,334,148.8z"/>
	<path class="st0" d="M342,211c0-4.4-3.6-8-8-8c0,0,0,0,0,0H150.5c-4.4,0-8,3.6-8,8s3.6,8,8,8H334C338.4,219,342,215.4,342,211
		C342,211,342,211,342,211z"/>
	<path class="st0" d="M262.2,265.2c0-4.4-3.6-8-8-8c0,0,0,0,0,0H150.5c-4.4,0-8,3.6-8,8s3.6,8,8,8h103.8
		C258.6,273.2,262.2,269.6,262.2,265.2C262.2,265.2,262.2,265.2,262.2,265.2z"/>
	<path class="st0" d="M150.5,311.4c-4.4,0-8,3.6-8,8s3.6,8,8,8h65.3c4.4,0,8-3.6,8-8s-3.6-8-8-8H150.5z"/>
	<path class="st0" d="M436.7,287.5c-40.3-40.4-105.7-40.4-146.1-0.1c-15.1,15.1-25.2,34.5-28.8,55.5l-6.4-6.4
		c-3.1-3.1-8.2-3.1-11.3,0s-3.1,8.2,0,11.3l18.4,18.4c3.1,3.1,8.2,3.1,11.3,0l18.4-18.4c3.1-3.1,3.1-8.2,0-11.3s-8.2-3.1-11.3,0
		l-1.8,1.8c12.3-46.6,60.1-74.4,106.8-62.1S460.3,336.4,448,383s-60.1,74.4-106.8,62.1c-14.9-3.9-28.5-11.8-39.4-22.7
		c-3.1-3.1-8.2-3.1-11.3,0s-3.1,8.2,0,11.3c40.4,40.4,105.9,40.3,146.2-0.1C477.1,393.2,477.1,327.8,436.7,287.5L436.7,287.5z"/>
	<path class="st0" d="M363.6,291.3c-4.4,0-8,3.6-8,8c0,0,0,0,0,0v61.3c0,2.1,0.9,4.2,2.4,5.7l29,29c3.1,3.1,8.2,3.1,11.3-0.1
		c3.1-3.1,3.1-8.1,0-11.2l-26.7-26.7v-58C371.6,294.9,368,291.3,363.6,291.3C363.6,291.3,363.6,291.3,363.6,291.3z"/>
</g>
</svg>
