<?xml version="1.0" encoding="utf-8"?>
<!-- Generator: Adobe Illustrator 24.1.1, SVG Export Plug-In . SVG Version: 6.00 Build 0)  -->
<svg version="1.1" id="Capa_1" xmlns="http://www.w3.org/2000/svg" xmlns:xlink="http://www.w3.org/1999/xlink" x="0px" y="0px"
	 viewBox="0 0 496 496" style="enable-background:new 0 0 496 496;" xml:space="preserve">
<style type="text/css">
	.st0{fill:#FFFFFF;}
</style>
<g>
	<g>
		<path class="st0" d="M464,304c0-17.6-14.4-32-32-32h-56c-8.8,0-16-7.2-16-16h-16c0,17.6,14.4,32,32,32h56c8.8,0,16,7.2,16,16H320
			V64h-80h-8h-16v-8c0-30.9-25.1-56-56-56s-56,25.1-56,56v8H88h-8H0v432h320V368h144c17.6,0,32-14.4,32-32S481.6,304,464,304z
			 M240,80h64v224h-16V96h-48V80z M120,56c0-22.1,17.9-40,40-40s40,17.9,40,40v8h-80V56z M192,144v-16H96V80h128v48h-16v16h32v-32
			h32v192h-34.2l-53.3,32l53.3,32H272v80H48V112h32v32H192z M304,480H16V80h64v16H32v368h256v-96h16V480z M392,352H242.2l-26.7-16
			l26.7-16H392V352z M424,352h-16v-32h16V352z M464,352h-24v-32h24c8.8,0,16,7.2,16,16S472.8,352,464,352z"/>
	</g>
</g>
<g>
	<g>
		<path class="st0" d="M64,176v112h192V176H64z M240,272H80v-48h11.7l20.3,30.4l16.4-24.6l24,32l19.9-29.8H240V272z M240,216h-76.3
			l-12.1,18.2l-24-32L112,225.6L100.3,208H80v-16h160V216z"/>
	</g>
</g>
<g>
	<g>
		<rect x="80" y="304" class="st0" width="96" height="16"/>
	</g>
</g>
<g>
	<g>
		<rect x="80" y="368" class="st0" width="96" height="16"/>
	</g>
</g>
<g>
	<g>
		<rect x="80" y="336" class="st0" width="40" height="16"/>
	</g>
</g>
<g>
	<g>
		<rect x="136" y="336" class="st0" width="40" height="16"/>
	</g>
</g>
<g>
	<g>
		<rect x="80" y="400" class="st0" width="16" height="16"/>
	</g>
</g>
<g>
	<g>
		<rect x="120" y="400" class="st0" width="16" height="16"/>
	</g>
</g>
<g>
	<g>
		<rect x="160" y="400" class="st0" width="16" height="16"/>
	</g>
</g>
</svg>
