<?xml version="1.0" encoding="utf-8"?>
<!-- Generator: Adobe Illustrator 24.1.1, SVG Export Plug-In . SVG Version: 6.00 Build 0)  -->
<svg version="1.1" id="Layer_1" xmlns="http://www.w3.org/2000/svg" xmlns:xlink="http://www.w3.org/1999/xlink" x="0px" y="0px"
	 viewBox="0 0 480 480" style="enable-background:new 0 0 480 480;" xml:space="preserve">
<style type="text/css">
	.st0{fill:#FFFFFF;}
</style>
<path class="st0" d="M216,352h-8v-8c0-4.4-3.6-8-8-8s-8,3.6-8,8v8h-8c-4.4,0-8,3.6-8,8s3.6,8,8,8h8v8c0,4.4,3.6,8,8,8s8-3.6,8-8v-8
	h8c4.4,0,8-3.6,8-8S220.4,352,216,352z"/>
<path class="st0" d="M144,416h112V304H144V416z M160,320h80v80h-80V320z"/>
<path class="st0" d="M40,24v432c0,13.3,10.7,24,24,24h272c13.3,0,24-10.7,24-24V24c0-13.3-10.7-24-24-24H64C50.7,0,40,10.7,40,24z
	 M344,24v432c0,4.4-3.6,8-8,8H64c-4.4,0-8-3.6-8-8V24c0-4.4,3.6-8,8-8h56v16H80c-4.4,0-8,3.6-8,8v400c0,4.4,3.6,8,8,8h240
	c4.4,0,8-3.6,8-8V40c0-4.4-3.6-8-8-8h-40V16h56C340.4,16,344,19.6,344,24z M168,80h64c20.3,0,38.4-12.8,45.2-32H312v384H88V48h34.8
	C129.6,67.2,147.7,80,168,80z M140.4,48h119.1c-5.7,9.9-16.2,16-27.6,16h-64C156.6,64,146.1,57.9,140.4,48z M264,16v16H136V16H264z"
	/>
<path class="st0" d="M160,240h80v16h-80V240z"/>
<path class="st0" d="M176,272h48v16h-48V272z"/>
<path class="st0" d="M144,224h112c4.4,0,8-3.6,8-8V104c0-4.4-3.6-8-8-8H144c-4.4,0-8,3.6-8,8v112C136,220.4,139.6,224,144,224z
	 M192,152c0-4.4,3.6-8,8-8s8,3.6,8,8s-3.6,8-8,8S192,156.4,192,152z M184,208v-16c0-8.8,7.2-16,16-16s16,7.2,16,16v16H184z M152,112
	h96v96h-16v-16c0-10.1-4.8-19.6-13-25.6c3.2-4.1,4.9-9.2,5-14.4c0-13.3-10.7-24-24-24s-24,10.7-24,24c0,5.2,1.8,10.3,5,14.4
	c-8.1,6-12.9,15.5-13,25.6v16h-16V112z"/>
<path class="st0" d="M376.7,244.7c-0.1,0.2-0.1,0.4-0.2,0.5c-0.3,0.9-0.4,1.8-0.6,2.8v208c0,13.3,10.7,24,24,24h16
	c13.3,0,24-10.7,24-24V248c-0.1-0.9-0.3-1.9-0.6-2.8c-0.1-0.2-0.1-0.4-0.2-0.5c-0.1-0.2-0.1-0.2-0.1-0.3l-24-48
	c-1.5-2.5-4.2-4.1-7.2-4.1s-5.7,1.5-7.2,4.1l-24,48C376.8,244.5,376.8,244.6,376.7,244.7z M424,432h-32V256h32V432z M424,456
	c0,4.4-3.6,8-8,8h-16c-4.4,0-8-3.6-8-8v-8h32V456z M408,217.9l11.1,22.1h-22.1L408,217.9z"/>
</svg>
