<?xml version="1.0" encoding="utf-8"?>
<!-- Generator: Adobe Illustrator 24.1.1, SVG Export Plug-In . SVG Version: 6.00 Build 0)  -->
<svg version="1.1" id="Capa_1" xmlns="http://www.w3.org/2000/svg" xmlns:xlink="http://www.w3.org/1999/xlink" x="0px" y="0px"
	 viewBox="0 0 644 768" style="enable-background:new 0 0 644 768;" xml:space="preserve">
<style type="text/css">
	.st0{fill:#FFFFFF;}
</style>
<g>
	<path class="st0" d="M380.9,629.9c-4.4-6-8-12.8-10.6-19.9H172c-8.3,0-15-6.7-15-15V279h330v156.6c6-0.2,12-0.1,18-0.1
		c4.1,0,8.1,0.5,12,1.3V204.4c0-24.8-20.2-45-45-45h-75V143c0-8.3-6.7-15-15-15H261.9c-8.3,0-15,6.7-15,15v16.4H172
		c-24.8,0-45,20.2-45,45V595c0,24.8,20.2,45,45,45h216.8C386,636.8,383.4,633.4,380.9,629.9z M276.9,158H367v30.6h-90.1V158z
		 M157,204.4c0-8.3,6.7-15,15-15h74.9v14.2c0,8.3,6.7,15,15,15H382c8.3,0,15-6.7,15-15v-14.2h75c8.3,0,15,6.7,15,15V249H157V204.4z"
		/>
	<path class="st0" d="M201.9,339h120c8.3,0,15-6.7,15-15s-6.7-15-15-15h-120c-8.3,0-15,6.7-15,15S193.7,339,201.9,339z"/>
	<path class="st0" d="M322,369H202c-8.3,0-15,6.7-15,15s6.7,15,15,15h120c8.3,0,15-6.7,15-15S330.3,369,322,369z"/>
	<path class="st0" d="M425.5,449.9c8.1-3.8,16.9-7.8,25.8-9.9c1.6-0.4,3.2-0.7,4.8-1c-2-5.9-7.6-10.1-14.2-10.1h-240
		c-8.3,0-15,6.7-15,15s6.8,15,15,15h208.9C415.3,455.5,420.2,452.5,425.5,449.9z"/>
	<path class="st0" d="M385.4,489H201.9c-8.3,0-15,6.7-15,15s6.7,15,15,15H373C376,508.6,380.1,498.4,385.4,489z"/>
	<path class="st0" d="M365.7,549H201.9c-8.3,0-15,6.7-15,15s6.7,15,15,15h162.2C363.4,569.2,363.9,559.9,365.7,549z"/>
	<path class="st0" d="M442,339h-15v-15c0-8.3-6.7-15-15-15s-15,6.7-15,15v15h-15c-8.3,0-15,6.7-15,15s6.7,15,15,15h15v15.2
		c0,8.3,6.7,15,15,15s15-6.7,15-15V369h15c8.3,0,15-6.7,15-15S450.3,339,442,339L442,339z"/>
</g>
<g>
	<path class="st0" d="M491,692.8c72.8,0,131.9-59.1,131.9-131.9S563.8,429,491,429s-131.9,59.1-131.9,131.9
		C359.2,633.7,418.2,692.7,491,692.8z M491,454c59.1,0,106.9,47.9,106.9,106.9c0,59.1-47.9,106.9-106.9,106.9
		c-59.1,0-106.9-47.9-106.9-106.9C384.1,501.9,432,454,491,454z"/>
</g>
<path class="st0" d="M533,525.9l-60.3,49l-22.1-25.8c-4.5-5.2-12.4-5.9-17.6-1.4s-5.9,12.4-1.4,17.6l29.9,35.1
	c2.4,2.8,5.8,4.4,9.5,4.4c2.9,0,5.6-0.9,7.9-2.7l69.8-56.8c5.3-4.4,6-12.2,1.7-17.5C546.2,522.5,538.4,521.7,533,525.9z"/>
</svg>
