<?xml version="1.0" encoding="utf-8"?>
<!-- Generator: Adobe Illustrator 24.1.1, SVG Export Plug-In . SVG Version: 6.00 Build 0)  -->
<svg version="1.1" id="Capa_1" xmlns="http://www.w3.org/2000/svg" xmlns:xlink="http://www.w3.org/1999/xlink" x="0px" y="0px"
	 viewBox="0 0 512 512" style="enable-background:new 0 0 512 512;" xml:space="preserve">
<style type="text/css">
	.st0{fill:#FF5A3C;}
</style>
<path class="st0" d="M456.8,32.1h-25.2V15c0-8.3-6.7-15-15-15s-15,6.7-15,15v17.1h-34.3V15c0-8.3-6.7-15-15-15s-15,6.7-15,15v17.1
	h-34.3V15c0-8.3-6.7-15-15-15s-15,6.7-15,15v17.1h-34.3V15c0-8.3-6.7-15-15-15s-15,6.7-15,15v17.1h-34.3V15c0-8.3-6.7-15-15-15
	s-15,6.7-15,15v17.1h-34.3V15c0-8.3-6.7-15-15-15s-15,6.7-15,15v17.1H55.2C24.7,32.1,0,56.9,0,87.3v369.5C0,487.3,24.7,512,55.2,512
	h345.4C462,512,512,462,512,400.6V87.3C512,56.9,487.3,32.1,456.8,32.1L456.8,32.1z M55.2,62.1h25.2v17.1c0,8.3,6.7,15,15,15
	s15-6.7,15-15V62.1h34.3v17.1c0,8.3,6.7,15,15,15s15-6.7,15-15V62.1h34.3v17.1c0,8.3,6.7,15,15,15s15-6.7,15-15V62.1h34.3v17.1
	c0,8.3,6.7,15,15,15s15-6.7,15-15V62.1h34.3v17.1c0,8.3,6.7,15,15,15s15-6.7,15-15V62.1h34.3v17.1c0,8.3,6.7,15,15,15s15-6.7,15-15
	V62.1h25.2c13.9,0,25.2,11.3,25.2,25.2v41.2H30V87.3C30,73.4,41.3,62.1,55.2,62.1L55.2,62.1z M400.6,482
	c-44.9,0-81.4-36.5-81.4-81.4s36.5-81.4,81.4-81.4c44.9,0,81.4,36.5,81.4,81.4C482,445.5,445.5,482,400.6,482L400.6,482z
	 M400.6,289.2c-61.4,0-111.4,50-111.4,111.4c0,32.1,13.6,61.1,35.4,81.4H55.2C41.3,482,30,470.7,30,456.8V158.5h452v166.1
	C461.7,302.8,432.7,289.2,400.6,289.2z"/>
<path class="st0" d="M159.6,208.9c-3.9,0-7.8,1.6-10.6,4.4s-4.4,6.7-4.4,10.6c0,3.9,1.6,7.8,4.4,10.6c2.8,2.8,6.7,4.4,10.6,4.4
	s7.8-1.6,10.6-4.4c2.8-2.8,4.4-6.7,4.4-10.6c0-3.9-1.6-7.8-4.4-10.6S163.6,208.9,159.6,208.9z"/>
<path class="st0" d="M223.9,208.9c-3.9,0-7.8,1.6-10.6,4.4s-4.4,6.7-4.4,10.6c0,3.9,1.6,7.8,4.4,10.6s6.7,4.4,10.6,4.4
	c3.9,0,7.8-1.6,10.6-4.4s4.4-6.7,4.4-10.6c0-3.9-1.6-7.8-4.4-10.6S227.8,208.9,223.9,208.9z"/>
<path class="st0" d="M288.1,208.9c-4,0-7.8,1.6-10.6,4.4s-4.4,6.7-4.4,10.6c0,3.9,1.6,7.8,4.4,10.6s6.7,4.4,10.6,4.4
	c4,0,7.8-1.6,10.6-4.4s4.4-6.7,4.4-10.6c0-3.9-1.6-7.8-4.4-10.6S292.1,208.9,288.1,208.9z"/>
<path class="st0" d="M352.4,208.9c-4,0-7.8,1.6-10.6,4.4s-4.4,6.7-4.4,10.6c0,3.9,1.6,7.8,4.4,10.6c2.8,2.8,6.7,4.4,10.6,4.4
	s7.8-1.6,10.6-4.4s4.4-6.7,4.4-10.6c0-3.9-1.6-7.8-4.4-10.6S356.3,208.9,352.4,208.9z"/>
<path class="st0" d="M416.7,208.9c-4,0-7.8,1.6-10.6,4.4s-4.4,6.7-4.4,10.6c0,3.9,1.6,7.8,4.4,10.6c2.8,2.8,6.7,4.4,10.6,4.4
	s7.8-1.6,10.6-4.4s4.4-6.7,4.4-10.6c0-3.9-1.6-7.8-4.4-10.6S420.6,208.9,416.7,208.9z"/>
<path class="st0" d="M95.3,273.1c-3.9,0-7.8,1.6-10.6,4.4c-2.8,2.8-4.4,6.7-4.4,10.6c0,4,1.6,7.8,4.4,10.6c2.8,2.8,6.7,4.4,10.6,4.4
	s7.8-1.6,10.6-4.4s4.4-6.7,4.4-10.6c0-3.9-1.6-7.8-4.4-10.6C103.2,274.7,99.3,273.1,95.3,273.1z"/>
<path class="st0" d="M159.6,273.1c-3.9,0-7.8,1.6-10.6,4.4c-2.8,2.8-4.4,6.7-4.4,10.6c0,4,1.6,7.8,4.4,10.6
	c2.8,2.8,6.7,4.4,10.6,4.4s7.8-1.6,10.6-4.4c2.8-2.8,4.4-6.7,4.4-10.6s-1.6-7.8-4.4-10.6C167.4,274.7,163.6,273.1,159.6,273.1z"/>
<path class="st0" d="M223.9,273.1c-3.9,0-7.8,1.6-10.6,4.4c-2.8,2.8-4.4,6.7-4.4,10.6s1.6,7.8,4.4,10.6s6.7,4.4,10.6,4.4
	c3.9,0,7.8-1.6,10.6-4.4s4.4-6.7,4.4-10.6c0-3.9-1.6-7.8-4.4-10.6C231.7,274.7,227.8,273.1,223.9,273.1z"/>
<path class="st0" d="M288.1,273.1c-4,0-7.8,1.6-10.6,4.4c-2.8,2.8-4.4,6.7-4.4,10.6c0,4,1.6,7.8,4.4,10.6s6.6,4.4,10.6,4.4
	s7.8-1.6,10.6-4.4s4.4-6.7,4.4-10.6c0-3.9-1.6-7.8-4.4-10.6C295.9,274.7,292.1,273.1,288.1,273.1z"/>
<path class="st0" d="M95.3,337.4c-3.9,0-7.8,1.6-10.6,4.4s-4.4,6.7-4.4,10.6c0,4,1.6,7.8,4.4,10.6c2.8,2.8,6.7,4.4,10.6,4.4
	c3.9,0,7.8-1.6,10.6-4.4c2.8-2.8,4.4-6.7,4.4-10.6c0-3.9-1.6-7.8-4.4-10.6C103.2,339,99.3,337.4,95.3,337.4z"/>
<path class="st0" d="M159.6,337.4c-3.9,0-7.8,1.6-10.6,4.4s-4.4,6.7-4.4,10.6c0,4,1.6,7.8,4.4,10.6c2.8,2.8,6.7,4.4,10.6,4.4
	s7.8-1.6,10.6-4.4c2.8-2.8,4.4-6.7,4.4-10.6c0-3.9-1.6-7.8-4.4-10.6C167.4,339,163.6,337.4,159.6,337.4z"/>
<path class="st0" d="M223.9,337.4c-3.9,0-7.8,1.6-10.6,4.4s-4.4,6.7-4.4,10.6c0,4,1.6,7.8,4.4,10.6c2.8,2.8,6.7,4.4,10.6,4.4
	c3.9,0,7.8-1.6,10.6-4.4c2.8-2.8,4.4-6.7,4.4-10.6c0-3.9-1.6-7.8-4.4-10.6C231.7,339,227.8,337.4,223.9,337.4z"/>
<path class="st0" d="M95.3,401.7c-3.9,0-7.8,1.6-10.6,4.4c-2.8,2.8-4.4,6.7-4.4,10.6c0,3.9,1.6,7.8,4.4,10.6
	c2.8,2.8,6.7,4.4,10.6,4.4c3.9,0,7.8-1.6,10.6-4.4c2.8-2.8,4.4-6.7,4.4-10.6c0-3.9-1.6-7.8-4.4-10.6S99.3,401.7,95.3,401.7z"/>
<path class="st0" d="M159.6,401.7c-3.9,0-7.8,1.6-10.6,4.4c-2.8,2.8-4.4,6.7-4.4,10.6c0,3.9,1.6,7.8,4.4,10.6
	c2.8,2.8,6.7,4.4,10.6,4.4s7.8-1.6,10.6-4.4c2.8-2.8,4.4-6.7,4.4-10.6c0-3.9-1.6-7.8-4.4-10.6C167.4,403.3,163.6,401.7,159.6,401.7z
	"/>
<path class="st0" d="M223.9,401.7c-3.9,0-7.8,1.6-10.6,4.4s-4.4,6.7-4.4,10.6c0,3.9,1.6,7.8,4.4,10.6s6.7,4.4,10.6,4.4
	c3.9,0,7.8-1.6,10.6-4.4s4.4-6.7,4.4-10.6c0-3.9-1.6-7.8-4.4-10.6S227.8,401.7,223.9,401.7z"/>
<path class="st0" d="M432.7,385.6h-17.1v-17.1c0-8.3-6.7-15-15-15s-15,6.7-15,15v32.1c0,8.3,6.7,15,15,15h32.1c8.3,0,15-6.7,15-15
	C447.7,392.3,441,385.6,432.7,385.6z"/>
</svg>
