<?xml version="1.0" encoding="utf-8"?>
<!-- Generator: Adobe Illustrator 24.1.1, SVG Export Plug-In . SVG Version: 6.00 Build 0)  -->
<svg version="1.1" id="Layer_1" xmlns="http://www.w3.org/2000/svg" xmlns:xlink="http://www.w3.org/1999/xlink" x="0px" y="0px"
	 viewBox="0 0 500 500" style="enable-background:new 0 0 500 500;" xml:space="preserve">
<style type="text/css">
	.st0{fill:#EBEBEB;}
	.st1{fill:#F0F0F0;}
	.st2{fill:#FAFAFA;}
	.st3{fill:#F5F5F5;}
	.st4{fill:#263238;}
	.st5{fill:#407BFF;}
	.st6{fill:#2B6F87;}
	.st7{fill:#B55B52;}
	.st8{fill:#B65B52;}
	.st9{opacity:0.1;enable-background:new    ;}
	.st10{opacity:0.2;enable-background:new    ;}
	.st11{fill:#FFFFFF;}
	.st12{fill:#A02724;}
	.st13{opacity:0.3;enable-background:new    ;}
	.st14{fill:#307D98;}
	.st15{opacity:0.1;fill:#FFFFFF;enable-background:new    ;}
	.st16{fill:#FF8B7B;}
	.st17{opacity:0.8;fill:#FFFFFF;enable-background:new    ;}
	.st18{fill:#FF5652;}
	.st19{opacity:0.5;fill:#407BFF;enable-background:new    ;}
	.st20{fill:#7F3E3B;}
	.st21{opacity:0.4;}
	.st22{fill:none;}
	.st23{opacity:0.2;fill:#307D98;enable-background:new    ;}
	.st24{fill:#630F0F;}
</style>
<g id="freepik--background-complete--inject-178">
	<rect y="382.4" class="st0" width="500" height="0.3"/>
	<rect x="429.8" y="398.5" class="st0" width="20.1" height="0.3"/>
	<rect x="357.5" y="395" class="st0" width="32" height="0.3"/>
	<rect x="274.2" y="389.2" class="st0" width="37" height="0.3"/>
	<rect x="75.5" y="396.6" class="st0" width="43.2" height="0.3"/>
	<rect x="60.2" y="396.6" class="st0" width="6.3" height="0.3"/>
	<rect x="131.8" y="389.1" class="st0" width="37.5" height="0.3"/>
	<path class="st0" d="M430.2,330.7c-22.4,3-24.8,35.5-48.8,8.7c-16.6-18.5-29.9,0.1-36.4,43h119.1
		C464,362.1,451.2,327.9,430.2,330.7z"/>
	<path class="st0" d="M272.5,307.9c-66,4.3-73,51.2-143.8,12.5c-48.9-26.7-88,0.1-107.3,62h350.9C372,353.2,334.4,303.9,272.5,307.9
		z"/>
	<path class="st1" d="M182.4,348.4c51.4,6.2,103.2-1.9,142.7-11.5s67.7,17.3,83,45.5H50.4C62.2,368.3,104.4,339,182.4,348.4z"/>
	<path class="st2" d="M343.2,363.1c-59.4,2.5-72,3.4-117.6-2.1s-81.5,5.3-99.2,21.4h320.8C433.6,374.4,392.9,361,343.2,363.1z"/>
	<circle class="st1" cx="79.7" cy="210" r="20.3"/>
	<path class="st1" d="M445.8,130.5H342c0,0,1.5-8.2,20.7-7.8c-3.8-12,6.9-25.1,31.2-25.6s15.7,19,15.7,19s40.8-7,28.4,7.5
		C458.3,124.4,462.3,127,445.8,130.5z"/>
	<path class="st2" d="M92.4,225.6c-3.4-16.9,25.5-35.4,78.6-36.1s26.5,26.8,26.5,26.8s91.9-9.9,58.9,10.6c43.8,1,51.5,4.6,14.1,9.6
		H44C44,236.6,50.7,225,92.4,225.6z"/>
	<path class="st3" d="M181.3,130.2H73.8c0,0-24-13.8,4.4-15.6c-4.9-11.8,7.1-31.8,49.1-32.2s20.2,27.1,20.2,27.1s64-18.4,41.6,10.9
		C198.9,120.4,233.8,130.2,181.3,130.2z"/>
	<path class="st3" d="M396.3,261H348c0,0-10.8-6.2,2-7c-2.2-5.3,3.2-14.3,22.1-14.5s9.1,12.2,9.1,12.2s28.8-8.3,18.7,4.9
		C404.2,256.6,419.9,261,396.3,261z"/>
	<path class="st1" d="M291.2,88.3c0,0,13.6-8.7,23.1,3.7c-7.8-7.7-22.6,0.1-22.6,0.1s-17-7.7-22.6,0.1
		C275.2,79.6,291.2,88.3,291.2,88.3z"/>
	<path class="st1" d="M325.4,187.4c0,0,8.2-5.3,13.9,2.2c-4.7-4.6-13.6,0-13.6,0s-10.2-4.6-13.6,0
		C315.7,182.2,325.4,187.4,325.4,187.4z"/>
	<path class="st3" d="M175.9,65.5c0,0,4.1-2.6,7,1.1c-2.3-2.3-6.8,0-6.8,0s-5.1-2.3-6.8,0C171.1,62.9,175.9,65.5,175.9,65.5z"/>
	<path class="st3" d="M75.6,155.3c0,0,4.1-2.6,7,1.1c-2.3-2.3-6.8,0-6.8,0s-5.1-2.3-6.8,0C70.8,152.7,75.6,155.3,75.6,155.3z"/>
</g>
<g id="freepik--Shadow--inject-178">
	<ellipse id="freepik--path--inject-178" class="st3" cx="250" cy="416.2" rx="193.9" ry="11.3"/>
</g>
<g id="freepik--character-2--inject-178">
	<path class="st4" d="M288.8,213c-0.6-10.2-7.7-9.4-6.4-6.3c-1.3-1.2-4.4-2.6-7.7-3.3c-4.8-1.1-7.9,0.2-6.8,2
		c-7.4,0.4-8.9,7.1-6.5,8.5c-5.1,2.2-5.8,10.3,2,12.2c7.8,1.9,5.1,10.1,12.1,12.1s15.1-4.7,13.9-7.7c3-2,6.7-4.1,3.9-10.4
		C299.5,217.8,291.2,212.8,288.8,213z"/>
	<path class="st5" d="M271.3,408.7c-1,0.1-2,0-2.4-0.4c-0.2-0.2-0.2-0.6-0.1-0.8c0.1-0.2,0.3-0.4,0.6-0.5c1.3-0.5,4.3,0.9,4.4,0.9
		c0.1,0,0.2,0.1,0.1,0.2c0,0.1-0.1,0.1-0.1,0.1C272.9,408.5,272.1,408.6,271.3,408.7z M269.9,407.3c-0.1,0-0.3,0-0.4,0.1
		c-0.2,0-0.3,0.2-0.3,0.3c-0.1,0.3-0.1,0.4,0,0.4c0.4,0.5,2.5,0.3,3.9,0C272.1,407.6,271,407.3,269.9,407.3z"/>
	<path class="st6" d="M273.7,408.3C273.7,408.3,273.6,408.3,273.7,408.3c-1.1-0.3-3.2-1.9-3.1-2.8c0-0.2,0.1-0.5,0.7-0.6
		c0.4-0.1,0.8,0,1.1,0.2c1.1,0.8,1.5,2.9,1.5,3c0,0.1,0,0.1-0.1,0.2C273.8,408.3,273.7,408.3,273.7,408.3z M271.4,405.2h-0.1
		c-0.3,0.1-0.4,0.2-0.4,0.2c0,0.6,1.4,1.8,2.4,2.3c-0.2-0.9-0.6-1.7-1.3-2.4C271.9,405.2,271.7,405.2,271.4,405.2L271.4,405.2z"/>
	<polygon class="st7" points="283.4,411.6 275.4,412.4 272.9,393.8 280.9,393.1 	"/>
	<path class="st4" d="M274.4,407.1l8.8-0.8c0.3,0,0.6,0.2,0.7,0.5l2.2,7c0.2,0.6-0.1,1.3-0.8,1.5c-0.1,0-0.2,0-0.2,0.1
		c-3.2,0.2-6,0.3-9.9,0.7c-4.7,0.4-3.4,0.9-8.9,1.4c-3.3,0.3-4.2-3.4-2.9-3.7c6.3-1.4,6.8-3.4,9.1-5.9
		C273.1,407.4,273.7,407.1,274.4,407.1z"/>
	<path class="st8" d="M256.7,261.3l-1-0.1l-0.9-0.1c-0.6-0.1-1.1-0.2-1.6-0.3c-1.1-0.2-2.1-0.4-3.1-0.7c-2-0.5-4-1.1-6-1.9
		c-3.9-1.4-7.7-3.2-11.3-5.4l-1.3-0.8l-0.7-0.4l-0.4-0.2c-0.2-0.2-0.4-0.3-0.6-0.5c-0.2-0.2-0.4-0.3-0.5-0.4l-0.4-0.4
		c-0.3-0.4-0.7-0.8-0.9-1.3c-0.2-0.4-0.4-0.7-0.6-1.1c-0.3-0.6-0.5-1.2-0.7-1.8c-0.7-2-1.2-4.1-1.5-6.3c-0.7-4-1.1-8-1.1-12l5.9-1.1
		c1.5,3.5,2.8,7.1,4.2,10.6c0.3,0.9,0.7,1.7,1.1,2.5s0.7,1.6,1.1,2.2c0.2,0.3,0.4,0.6,0.5,0.8c0.1,0.1,0.1,0.1,0.2,0.2
		c0,0,0.1,0-0.1-0.1l-0.1-0.1c-0.1-0.1-0.1-0.1-0.2-0.2c-0.1-0.1-0.2-0.2-0.4-0.3c-0.2-0.1-0.1-0.1-0.1,0l0.6,0.3l1.2,0.6
		c3.2,1.5,6.5,2.8,9.9,3.8c1.7,0.5,3.4,1,5.1,1.4c0.9,0.2,1.7,0.4,2.5,0.6l1.2,0.2l1,0.2L256.7,261.3z"/>
	<path class="st6" d="M266.2,263.3c-8.6,5.5-21.3-0.6-21.3-0.6c-1.5-5.5-2.3-15.1-2.3-18.9c0,0,14.6,1.8,24.6,0.9
		C276.9,243.7,273.3,258.8,266.2,263.3z"/>
	<path class="st7" d="M230.1,231.3l2.3-6.2l-8.8-1.9c0,0-1.6,4.9,1.7,8.6L230.1,231.3z"/>
	<path class="st7" d="M229.6,218.4l-4,0.4c-1,0.1-1.7,0.9-1.8,1.8l-0.3,2.6l8.8,1.9l-0.5-4.9C231.8,219.1,230.8,218.3,229.6,218.4
		C229.7,218.4,229.6,218.4,229.6,218.4z"/>
	<path class="st6" d="M251,255c-0.4,7.6,0,23.3,5.6,52.1l43-3.9c-0.3-6.1-5.4-24-3.5-51.4c0.3-4.1-2.7-7.7-6.8-8c-0.1,0-0.2,0-0.3,0
		c-2.1-0.1-4.5-0.1-6.8,0c-6.1,0.2-12.2,0.8-18.2,1.7c-2.3,0.4-4.6,1-6.5,1.5C253.8,248,251.2,251.2,251,255z"/>
	<path class="st9" d="M275.8,272.3c0.2,7.1-3.8,12.8-9,12.7s-9.5-5.8-9.6-12.9s3.8-12.8,9-12.7S275.6,265.2,275.8,272.3z"/>
	<path class="st7" d="M277.3,230.1c0,5.7,0.9,12.2,4.4,14.7c-4.8,4.1-10.2,7.5-16,10.1c-6.2-4.4-3.3-8-3.3-8c5.4-3,5-7.1,3.4-11.5
		l8.1-7.1C275.2,226.9,277.3,228,277.3,230.1z"/>
	<path class="st10" d="M277.4,230.1c0-2.1-2.2-3.2-3.5-1.9l-8.1,7.1c0.9,1.9,1.2,4.1,1,6.2c1.9,0.1,3.8-0.3,5.5-1.1
		c2.2-1,4.1-2.7,5.4-4.8C277.4,233.8,277.3,231.9,277.4,230.1z"/>
	<path class="st7" d="M285.6,222.8c-2.8,7.6-4.1,12.1-9.2,14.9c-7.8,4.1-16.4-2.4-16-10.6c0.4-7.4,4.9-18.5,13.6-19.2
		c6.1-0.6,11.6,3.8,12.3,10C286.4,219.5,286.2,221.2,285.6,222.8z"/>
	<path class="st4" d="M283.4,213.1c-4,3.2-3,8.2-0.7,8.3c-3.6,2.9-2.6,6.6,0.4,6.3C288,227.1,291.4,212.2,283.4,213.1z"/>
	<path class="st4" d="M285.6,213.6c-3.9,1.5-6.9-0.1-7.1-2.3c-2.9,1.4-14.8-0.2-12.1-1.9C268.5,205.8,278.7,203.8,285.6,213.6z"/>
	<path class="st11" d="M262.7,225.8l9.6,1c0,0-1.2,3-5.6,2.5C263,228.8,262.7,225.8,262.7,225.8z"/>
	<path class="st4" d="M273.4,219.5c-0.3,0.6-1,0.9-1.4,0.7s-0.5-0.9-0.1-1.5s0.9-0.9,1.4-0.7S273.7,218.9,273.4,219.5z"/>
	<path class="st4" d="M266,217.1c-0.3,0.6-0.9,1-1.4,0.7s-0.5-0.9-0.1-1.5s1-1,1.4-0.7S266.3,216.5,266,217.1z"/>
	<path class="st4" d="M276.9,218.2c-0.2-0.1-0.3-0.2-0.3-0.3c-0.1-1-0.7-2-1.6-2.5c-0.2-0.1-0.3-0.3-0.2-0.6
		c0.1-0.2,0.3-0.3,0.5-0.2c0,0,0,0,0,0c1.2,0.6,2,1.8,2.2,3.1c0,0.2-0.1,0.4-0.3,0.5c0,0,0,0,0,0C277.1,218.3,277,218.3,276.9,218.2
		z"/>
	<path class="st4" d="M263.9,213.9c-0.1,0-0.2-0.1-0.2-0.2c-0.1-0.2-0.1-0.4,0.1-0.6c1.1-0.8,2.5-1,3.8-0.6c0.2,0.1,0.3,0.3,0.2,0.5
		c0,0,0,0,0,0c-0.1,0.2-0.3,0.3-0.5,0.2l0,0c-1-0.3-2.1-0.1-3,0.5C264.1,213.9,264,213.9,263.9,213.9z"/>
	<path class="st12" d="M267.5,218.1c-1.4,1.4-3.1,2.6-4.8,3.5c0.5,0.9,1.4,1.5,2.4,1.7L267.5,218.1z"/>
	<path class="st7" d="M286,230.2c-1,1.3-2.5,2.2-4.2,2.3c-2,0.2-2.6-2.5-1.5-4.4c1-1.7,3.1-3.4,5-3.1S287.7,228,286,230.2z"/>
	<polygon class="st10" points="272.9,393.8 274.3,404.2 282.3,403.5 280.9,393.1 	"/>
	<path class="st4" d="M256.6,307.1c-1.2,14.8-0.8,29.7,1.1,44.5c3.2,25.4,12.6,48.1,12.6,48.1l13.4-3.5c0,0-3.1-19.1-4.8-44.2
		c-1.8-27.4,6-47.5,6-47.5L256.6,307.1z"/>
	<path class="st13" d="M280.2,318c-7,2.2-4.3,14.1-1.5,22c0.2-7.4,1.1-14.8,2.5-22H280.2z"/>
	<path class="st6" d="M327.7,391.8c-0.7,0.8-1.5,1.4-2.1,1.3c-0.3-0.1-0.5-0.3-0.6-0.6c-0.1-0.3,0-0.5,0.1-0.8
		c0.7-1.2,3.8-2.1,3.9-2.2c0.1,0,0.2,0,0.2,0.1c0,0.1,0,0.2,0,0.2C328.8,390.6,328.3,391.2,327.7,391.8z M325.7,391.7
		c-0.1,0.1-0.2,0.2-0.2,0.3c-0.1,0.1-0.1,0.3-0.1,0.5c0.1,0.3,0.2,0.3,0.3,0.3c0.6,0.1,2.1-1.4,3-2.6
		C327.6,390.5,326.6,391,325.7,391.7L325.7,391.7z"/>
	<path class="st6" d="M329.3,389.9L329.3,389.9c-1.1,0.4-3.7,0.6-4.2-0.1c-0.1-0.2-0.2-0.5,0.1-0.9c0.2-0.3,0.6-0.5,1-0.5
		c1.3-0.2,3,1.2,3.1,1.2c0.1,0,0.1,0.1,0.1,0.2C329.3,389.8,329.3,389.9,329.3,389.9z M325.5,389.1L325.5,389.1
		c-0.3,0.4-0.2,0.5-0.2,0.5c0.3,0.4,2.2,0.5,3.4,0.1c-0.7-0.6-1.6-0.9-2.5-1C325.9,388.8,325.7,388.9,325.5,389.1L325.5,389.1z"/>
	<polygon class="st7" points="338.8,385.8 333.4,391.9 318.9,380 324.3,374 	"/>
	<path class="st4" d="M329,388.5l6.1-6.4c0.2-0.3,0.6-0.3,0.9-0.1l6.3,3.8c0.6,0.3,0.7,1.1,0.4,1.6c0,0.1-0.1,0.2-0.2,0.2
		c-2.2,2.3-5.5,5.5-8.3,8.3c-3.2,3.4-0.9,1.3-4.7,5.3c-2.3,2.4-5.4,0.7-4.6-0.5c3.4-5.5,3.2-7.1,3.3-10.5
		C328.2,389.6,328.5,389,329,388.5z"/>
	<polygon class="st10" points="318.9,380 327,386.7 332.4,380.6 324.3,374 	"/>
	<path class="st4" d="M271.9,305.7c0,0,5.9,23.7,17.2,44.5c12.3,22.8,32.2,35.8,32.2,35.8l9.5-10.3c0,0-16.3-16.1-21.2-33.4
		c-7.4-26.3-9.9-39.2-9.9-39.2L271.9,305.7z"/>
	<path class="st14" d="M316.2,383.7c0,0,6.4,4.7,6.4,4.7l10.1-11.8l-3.6-3.6L316.2,383.7z"/>
	<path class="st14" d="M267.8,395.7c-0.1,0,2,5.2,2,5.2l16-1.8l-0.9-4.1L267.8,395.7z"/>
	<path class="st8" d="M299.9,253l0.8,2.8l0.9,2.9c0.6,1.9,1.3,3.8,2,5.7s1.5,3.6,2.3,5.3c0.7,1.4,1.6,2.8,2.6,4.1l0.1,0.2l0.1,0.1
		l-0.1-0.1c-0.1-0.1-0.2-0.1-0.3-0.2c-0.2-0.1-0.4-0.2-0.6-0.2c-0.6-0.2-1.2-0.2-1.8-0.1c-0.5,0.1-0.9,0.3-1.4,0.6
		c-0.5,0.4-0.4,0.5-0.3,0.4c0.2-0.2,0.4-0.4,0.5-0.6c0.9-1.6,1.6-3.3,2.2-5c1.4-3.8,2.5-7.9,3.7-11.9l6,0.7c0.2,4.5-0.1,9-0.8,13.5
		c-0.4,2.4-1,4.8-1.9,7.1c-0.3,0.7-0.7,1.5-1.1,2.1c-0.6,1.1-1.5,2-2.5,2.7c-1.8,1.3-4.1,1.6-6.3,0.9c-0.5-0.1-0.9-0.3-1.3-0.6
		c-0.3-0.2-0.7-0.4-1-0.6l-0.4-0.3l-0.2-0.2l-0.4-0.4c-2-1.8-3.7-4-5.1-6.3c-1.2-2-2.3-4.2-3.3-6.3c-1-2.1-1.8-4.3-2.5-6.4
		c-0.4-1.1-0.7-2.2-1-3.3s-0.6-2.1-0.9-3.4L299.9,253z"/>
	<path class="st7" d="M311,258.3l-1.5-6.5l8.9,0.6c0,0,1.1,3.7-2.7,7L311,258.3z"/>
	<path class="st7" d="M313.6,246l3.3,1.2c1,0.4,1.6,1.3,1.6,2.4l-0.2,2.9l-8.9-0.6l0.9-4.1c0.3-1.3,1.6-2.1,2.9-1.8
		C313.4,245.9,313.5,246,313.6,246z"/>
	<path class="st6" d="M292.5,244.5c9.7,3.4,12,17.8,12,17.8c-2,3.5-8.5,7.3-13.9,10.1c0,0-3.3-2.8-6.7-12.2
		C280.5,251,284.5,241.7,292.5,244.5z"/>
</g>
<g id="freepik--character-1--inject-178">
	<path class="st4" d="M149.5,292.6c-7.2-42.6-10-96.1-10-96.1l38.3,10.8c0,0-3.4,59.9-5,88.9c-1.6,30.2-3.4,98.9-3.4,98.9h-18.2
		C151.2,395.2,145.5,329.9,149.5,292.6z"/>
	<path class="st13" d="M143.9,250.5c1,9.2,2.1,18.8,3.5,28.3c3.5-14.4,5.5-41.8,5.5-41.8L143.9,250.5z"/>
	<path class="st6" d="M152.8,407.2l-1.6,8.5c-0.1,0.8,0.4,1.5,1.2,1.6c0.1,0,0.2,0,0.3,0c2.7,0,4-0.4,8.7-0.5
		c5.5-0.1,10.1,0.6,16.6,0.5c1.6,0.1,3-1,3.1-2.6c0.1-1.4-0.8-2.7-2.1-3c-6.3-1.7-9.1-4.9-12-6.8c-0.6-3.1,0.9-11.5,0.9-11.5
		l-15.1,1C153,398.7,153,403,152.8,407.2z"/>
	<path class="st6" d="M82.9,407.7l3.7-6.6c1.8-4.2,4.4-12.1,4.4-12.1l13.6,3.5c0,0-3.7,6.8-4.6,10c2.1,2.4,4.9,7.9,10.7,9.2
		c2.7,0.6,2.5,5.4-1.1,5.7c-6,0.5-13.1-4.1-18.1-5.2c-4.3-0.9-4.9-0.6-7.3-1.2c-1.1-0.2-1.8-1.3-1.6-2.5
		C82.5,408.2,82.7,407.9,82.9,407.7z"/>
	<path class="st4" d="M168.7,397.6l-16.8,0.3c-0.7,0-1.3-0.5-1.4-1.2l-0.7-5.5c-0.1-0.7,0.4-1.4,1.2-1.5c0,0,0.1,0,0.1,0l18.3-0.6
		c0.8,0,1.4,0.6,1.4,1.3c0,0.1,0,0.1,0,0.2l-0.8,5.9C170,397.1,169.4,397.6,168.7,397.6z"/>
	<path class="st15" d="M168.7,397.6l-16.8,0.3c-0.7,0-1.3-0.5-1.4-1.2l-0.7-5.5c-0.1-0.7,0.4-1.4,1.2-1.5c0,0,0.1,0,0.1,0l18.3-0.6
		c0.8,0,1.4,0.6,1.4,1.3c0,0.1,0,0.1,0,0.2l-0.8,5.9C170,397.1,169.4,397.6,168.7,397.6z"/>
	<path class="st4" d="M114.3,291.4c6.3-42.9,4.8-76.2,14-96.3l35.9,4.4c0,0-17.8,66.7-25.9,95s-32.2,97.9-32.2,97.9l-17.3-3.8
		C88.7,388.7,103.5,324.6,114.3,291.4z"/>
	<path class="st4" d="M105.3,395.6L88.8,392c-0.7-0.2-1.1-0.8-1-1.5l1-5.5c0.1-0.8,0.9-1.3,1.6-1.1c0,0,0,0,0,0l18,3.6
		c0.7,0.1,1.2,0.8,1,1.6c0,0.1-0.1,0.2-0.1,0.3l-2.6,5.4C106.6,395.4,105.9,395.7,105.3,395.6z"/>
	<path class="st15" d="M105.3,395.6L88.8,392c-0.7-0.2-1.1-0.8-1-1.5l1-5.5c0.1-0.8,0.9-1.3,1.6-1.1c0,0,0,0,0,0l18,3.6
		c0.7,0.1,1.2,0.8,1,1.6c0,0.1-0.1,0.2-0.1,0.3l-2.6,5.4C106.6,395.4,105.9,395.7,105.3,395.6z"/>
	<path class="st16" d="M193.6,148.1c0.8,6,1.6,12.1,2.5,18.2c0.4,3,0.9,6,1.4,9s1.1,5.9,1.8,8.6c0.2,0.7,0.4,1.3,0.5,1.9l0.3,0.8
		l0.3,0.9c0.5,1.2,1.1,2.4,1.7,3.6s1.4,2.4,2.1,3.6s1.6,2.4,2.4,3.6c3.5,4.9,7.3,9.5,11.3,14l0.1,0.1c1.3,1.4,1.1,3.6-0.3,4.9
		c-1.1,1-2.8,1.1-4.1,0.3c-2.7-1.8-5.4-3.7-7.9-5.8c-2.5-2.1-4.9-4.3-7.2-6.7c-2.4-2.4-4.5-5.1-6.5-7.8c-1-1.5-2-3-2.8-4.6l-0.6-1.3
		L188,190c-0.4-0.9-0.7-1.7-1-2.5c-1.1-3.3-1.9-6.5-2.7-9.6s-1.3-6.3-1.9-9.4c-1.1-6.3-2-12.5-2.6-18.9c-0.4-3.8,2.3-7.2,6.1-7.7
		C189.7,141.5,193.2,144.2,193.6,148.1L193.6,148.1z"/>
	<path class="st6" d="M185.7,131.9c9,7.9,11.3,26.7,11.3,26.7c-3.8,5.3-14.8,8-22.3,8.7c0,0-2-4.1-4.2-15.8
		C168.3,138.8,177.3,124.6,185.7,131.9z"/>
	<path class="st6" d="M149,122.8c10.1,0.7,20,2.4,29.7,5.2c10.4,3,11.2,13.1,10.6,24c-0.9,16.3-7.3,25.4-9.7,64.4
		c-6.6,3.4-36.9,2.4-56.1-9.5c2.6-15.2,11.4-40.9,12.9-72.9c0.3-6.5,5.8-11.5,12.3-11.2C148.8,122.8,148.9,122.8,149,122.8z"/>
	<path class="st5" d="M171.9,138.5c-1.7,0.5-5.3-0.5-5.8-2.5c-5,0.1-9,1.4-10.2,2.4c-2.7-4.5-1.9-13.7-1.1-15.2s18.1,1.7,21.9,3.4
		c1.4,0.5,2.6,1.5,3.4,2.8c0.6,0.8,3.2,6.4,0.5,10.6c-1.3-1.1-2.6-2-3.9-2.9C176.7,136.9,176.4,139.4,171.9,138.5z"/>
	<path class="st17" d="M171.9,138.5c-1.7,0.5-5.3-0.5-5.8-2.5c-5,0.1-9,1.4-10.2,2.4c-2.7-4.5-1.9-13.7-1.1-15.2s18.1,1.7,21.9,3.4
		c1.4,0.5,2.6,1.5,3.4,2.8c0.6,0.8,3.2,6.4,0.5,10.6c-1.3-1.1-2.6-2-3.9-2.9C176.7,136.9,176.4,139.4,171.9,138.5z"/>
	<path class="st16" d="M165.1,103.9c-1.4,7.3-5,16.9-8,20.6c2.6,3.9,6.1,8.5,12.6,10.7c0.7,0.3,1.9,5.4,2.4,6.1
		c1.1-1.5,1.8-3.3,2-5.1c5.9,0.4,5.6-4.6,4.3-7.7c-7.3-3.2-6.1-6.3-3.2-11.2L165.1,103.9z"/>
	<path class="st10" d="M168.4,112.2c0.3-0.9,0.6-1.7,1-2.6l5.9,7.7c-1,1.5-1.7,3.1-2.2,4.8C170.2,120.3,167.4,115.5,168.4,112.2z"/>
	<path class="st16" d="M170.6,90.1c-4.4,8.4-7.7,14.5-4.5,20.4c7,13.1,13.4,11.4,20.2,4.4c6.1-6.2,12.3-18.9,6.3-26.8
		c-4.3-5.7-12.5-6.9-18.2-2.6C172.8,86.7,171.5,88.3,170.6,90.1z"/>
	<path class="st4" d="M167.2,95.4c5.9,2.3,9.9-4.3,9.2-6.7c2.9,3.6,12.1,5.6,15,4.7c0.8,6.5,7.1,9.7,10.6,10
		c-1.1-0.6-3.1-2.4-2.9-3.7c6.2-0.9,8.7-9.1,1.9-11.3s-7.2-6.4-11.1-10.8c-4.6-5.2-15.7-4.8-14.7,0.3c-4.1-3.3-11.7,0.4-9.5,5
		c-8.7,2.5-3.1,14.9-1.3,16.1S167.2,95.4,167.2,95.4z"/>
	<path class="st4" d="M198.3,100c1.2,0.9,2.8,1.2,4.3,0.7c-1-0.3-1.9-0.8-2.6-1.5C200,99.2,198.3,99.3,198.3,100z"/>
	<path class="st4" d="M176,80.4c-1.4-2.1-0.6-8,1.1-9.3C172.4,71.4,171.7,77.1,176,80.4z"/>
	<path class="st10" d="M180.3,101c-0.8-1.3-2-2.1-3.5-2.5C177.8,99.6,179,100.4,180.3,101z"/>
	<path class="st10" d="M179.6,101.7c-0.9-1-2.3-1.5-3.6-1.4C177.1,101.1,178.4,101.5,179.6,101.7z"/>
	<path class="st10" d="M175,106.2c-1-0.5-2.1-0.6-2.6,1.4C173,106.7,174,106.3,175,106.2z"/>
	<path class="st4" d="M184.3,110.1c1.3,0.8,3.6,3.9,2.6,6.6c-2.7,0-10.9-4.4-12.8-7.8C174.6,106.4,180.9,107.8,184.3,110.1z"/>
	<path class="st18" d="M187.1,103.4c0,0-1.2,4.6-0.9,7.4c-1.9,0.2-3.4-1.6-3.4-1.6L187.1,103.4z"/>
	<path class="st4" d="M181.2,101.8c-0.3,0.7-0.2,1.4,0.3,1.6s1.1-0.2,1.4-0.9s0.2-1.4-0.3-1.6S181.6,101.1,181.2,101.8z"/>
	<path class="st4" d="M189.6,105.6c-0.3,0.7-0.2,1.4,0.3,1.6s1.1-0.2,1.4-0.9s0.2-1.4-0.3-1.6S189.9,104.9,189.6,105.6z"/>
	<path class="st19" d="M185.4,103c-1.1,2.5-3.4,4-5.2,3.2s-2.4-3.4-1.3-5.9"/>
	<path class="st19" d="M194.4,107c-1.1,2.5-3.4,4-5.2,3.2s-2.4-3.4-1.3-5.9"/>
	<path class="st11" d="M190.1,110.7c-0.4,0-0.7-0.1-1.1-0.2c-0.8-0.3-1.4-1-1.7-1.8c-0.5-1.5-0.5-3.1,0.2-4.5
		c0.2-0.4,0.3-0.7,0.1-0.8c-0.6-0.4-1.3-0.5-2-0.2c-1.1,2.6-3.6,4.1-5.5,3.3c-0.8-0.3-1.4-1-1.7-1.8c-0.5-1.4-0.5-2.9,0.1-4.3
		L168.1,94c-0.1-0.1-0.2-0.2-0.1-0.3c0.1-0.1,0.2-0.1,0.3-0.1l10.6,6.4c0.1,0.1,0.2,0.2,0.1,0.3c-0.6,1.3-0.7,2.8-0.2,4.1
		c0.3,0.7,0.8,1.2,1.4,1.5c1.7,0.7,3.9-0.7,4.9-3.1c0-0.1,0.1-0.1,0.1-0.1c0.9-0.4,1.9-0.3,2.7,0.3c0.3,0.4,0.3,1,0,1.4
		c-0.6,1.3-0.6,2.8-0.2,4.1c0.2,0.7,0.8,1.2,1.4,1.5c1.7,0.7,3.9-0.7,4.9-3.1c0.1-0.1,0.2-0.2,0.3-0.1s0.2,0.2,0.1,0.3
		C193.7,109.3,191.8,110.7,190.1,110.7z"/>
	<path class="st4" d="M180.6,96.2c-0.1,0-0.1-0.1-0.1-0.2c-0.1-0.2,0-0.5,0.2-0.6c1.3-0.6,2.9-0.5,4.1,0.2c0.2,0.1,0.3,0.4,0.1,0.6
		c-0.1,0.2-0.4,0.3-0.6,0.1l0,0c-1-0.5-2.2-0.6-3.3-0.1C180.9,96.3,180.7,96.3,180.6,96.2z"/>
	<path class="st4" d="M194.5,102.8c-0.1,0-0.2-0.2-0.3-0.3c-0.2-1.1-1-2.1-2-2.6c-0.2-0.1-0.3-0.4-0.2-0.6c0.1-0.2,0.3-0.3,0.6-0.2
		c1.3,0.6,2.3,1.8,2.6,3.2c0.1,0.2-0.1,0.5-0.3,0.5c0,0,0,0,0,0C194.7,102.8,194.6,102.8,194.5,102.8z"/>
	<path class="st16" d="M216.6,211.3l6,2.9c2.2,1,4.1,2.5,5.8,4.2l1.4,1.5c0.7,0.8,0.4,2.3-0.6,3.1l-3.9,3.1c-0.5,0.5-1.3,0.6-2,0.4
		l-3.7-1.9c0,0-8-2.7-6.8-9.2L216.6,211.3z"/>
	<path class="st16" d="M145,138.8l-9.5,13.6c-1.6,2.3-3.1,4.5-4.7,6.8s-3,4.5-4.2,6.6c-0.3,0.5-0.5,1-0.8,1.5
		c-0.2,0.3-0.3,0.6-0.4,0.9c-0.2,0.7-0.4,1.5-0.3,2.3c0.1,2.2,0.5,4.3,1.3,6.4c1.9,4.8,4.3,9.4,7.2,13.7l0.1,0.2
		c1,1.6,0.6,3.7-1,4.8c-1.3,0.8-2.9,0.7-4.1-0.2c-2.3-1.9-4.5-4.1-6.5-6.4c-2-2.3-3.8-4.9-5.4-7.6c-1.7-3-2.9-6.3-3.4-9.8
		c-0.3-2-0.3-4.1,0.1-6.1c0.2-1.1,0.5-2.1,0.9-3.1c0.3-0.8,0.7-1.6,1-2.3c1.3-2.9,2.8-5.4,4.2-7.9s3-5,4.5-7.4
		c3.1-4.8,6.3-9.5,9.7-14.1c2.3-3.1,6.6-3.7,9.7-1.4C146.5,131.5,147.1,135.8,145,138.8z"/>
	<path class="st6" d="M147.7,122.8c-16.1-0.6-25,19.3-25,19.3c3.6,7.7,8.5,14.5,14.2,15.9c0,0,6.4-5.6,11.6-16.3
		C153,132.5,150.8,123.6,147.7,122.8z"/>
	<path class="st16" d="M127.5,190.9l5.8-0.5l2.3,3.5c1.9,2.8,3.1,6.1,3.7,9.4l0.1,0.6c0.2,1.7-0.9,3.2-2.6,3.4c-0.1,0-0.2,0-0.3,0
		l-4.1,0.3c-1.6,0.1-3.1-0.8-3.6-2.4l-1.3-4.4C127.5,200.9,123.7,193.3,127.5,190.9z"/>
	<path class="st16" d="M163.2,95.8c-0.5,2.2-0.1,4.5,1,6.4c1.5,2.4,4.1,1.1,5.3-1.6c1.1-2.5,1.5-6.7-0.7-8.1S163.8,92.9,163.2,95.8z
		"/>
</g>
<g id="freepik--character-3--inject-178">
	<path class="st4" d="M334.8,104.2c-10.7,14.7,0.1,31.6-9.9,29.3c2.5,10.5,16,10.9,18.8,8.3c-1,2-2.4,3.7-4.2,4.9
		c0,0,22.3,2.7,27-9.8c2,2.6,9.5,3.1,12.1,0.7c-2.1-0.8-7.9-7.9-7-19.5c0.5-7.8,0.5-20.7-8.2-18.1
		C359.1,89.8,341.8,94.6,334.8,104.2z"/>
	<path class="st20" d="M351.9,164.1c-0.5,3.7-1.2,7.3-1.8,11s-1.4,7.3-2.1,10.9s-1.5,7.3-2.3,10.9s-1.6,7.2-2.7,11.1l0.2-1
		c-0.3,2-0.7,3.9-1.4,5.7c-0.6,1.7-1.3,3.3-2,4.8c-1.4,3-2.9,5.8-4.5,8.6c-1.6,2.8-3.3,5.4-5.1,8s-3.6,5.1-5.6,7.6
		c-1.3,1.6-3.6,1.8-5.2,0.6c-1.3-1-1.7-2.8-1.1-4.3l0,0l3.6-8.4c1.2-2.8,2.4-5.6,3.4-8.4s2.1-5.6,3-8.3c0.4-1.3,0.8-2.7,1.1-3.9
		c0.3-1.1,0.4-2.2,0.5-3.3c0-0.1,0-0.2,0-0.3l0.1-0.7c0.6-3.3,1.2-7,1.8-10.6l1.8-10.9c0.6-3.6,1.2-7.3,1.8-10.9s1.3-7.3,2-10.9l0,0
		c0.7-4,4.5-6.7,8.5-6C349.8,156.2,352.5,160,351.9,164.1L351.9,164.1L351.9,164.1z"/>
	<path class="st20" d="M318.1,238.4l-2.9,3.5c-1,1.1-1.6,2.5-1.9,4l-0.3,1.6c-0.3,1.5,0.6,3,2,3.6l3.6,1.4c1.7,0.6,3.5-0.2,4.2-1.8
		l0.6-1.6c0,0,3.2-5.9,2.5-11l-1.4-0.4C322.4,236.8,320,237.2,318.1,238.4z"/>
	<path class="st4" d="M339.2,155.4c-4.5,4-8.4,15.4-8.4,15.4s11.9,12.5,21.4,15.4c5.2-2.4,2.7-18.3,2.7-18.3L339.2,155.4z"/>
	<g class="st21">
		<path class="st22" d="M337.1,171.1c0.7-0.1,1.3-0.6,1.6-1.2c0.4-0.7,0.4-1.5,0.1-2.2c-0.5-1.4-1.8-2.3-3.2-2.3
			c-0.2,0-0.4,0-0.6,0.1c-0.7,0.1-1.3,0.6-1.6,1.2c-0.4,0.7-0.4,1.5-0.1,2.2C333.8,170.4,335.4,171.3,337.1,171.1z"/>
		<path class="st11" d="M336.4,171.7c0.2,0,0.5,0,0.7-0.1c0.8-0.2,1.6-0.7,2-1.4c0.4-0.8,0.5-1.8,0.1-2.7c-0.7-1.8-2.6-2.9-4.5-2.6
			c-0.8,0.2-1.6,0.7-2,1.4c-0.4,0.8-0.5,1.8-0.1,2.7C333.3,170.6,334.8,171.6,336.4,171.7z M333.3,166.6c0.3-0.6,0.9-1,1.6-1.2
			c0.2,0,0.4-0.1,0.6-0.1c1.4,0,2.7,1,3.2,2.3c0.3,0.7,0.3,1.5-0.1,2.2c-0.3,0.6-0.9,1-1.6,1.2c-1.7,0.3-3.3-0.7-3.9-2.2
			C332.9,168.1,333,167.3,333.3,166.6z"/>
		<path class="st11" d="M347.2,162.6c0.2,0,0.4-0.1,0.6-0.1c0.2,0,0.3,0,0.5,0l-0.7-0.6c-0.2,0-0.3,0-0.5,0.1
			c-0.8,0.2-1.6,0.7-2,1.4c-0.4,0.8-0.5,1.8-0.1,2.7c0.6,1.6,2.1,2.6,3.8,2.7c0.2,0,0.5,0,0.7-0.1c0.8-0.2,1.6-0.7,2-1.4
			c0.3-0.6,0.4-1.3,0.3-2l-0.7-0.6l0.1,0.1c0.3,0.7,0.3,1.5-0.1,2.2c-0.3,0.6-0.9,1-1.6,1.2c-1.7,0.3-3.3-0.7-3.9-2.2
			c-0.3-0.7-0.2-1.5,0.1-2.2C345.9,163.2,346.5,162.8,347.2,162.6z"/>
		<path class="st11" d="M339.8,178.6c0.2,0,0.4-0.1,0.6-0.1c1.4,0,2.7,1,3.2,2.3c0.1,0.3,0.2,0.7,0.2,1l0.5,0.4c0-0.5,0-1-0.2-1.5
			c-0.7-1.8-2.6-2.9-4.5-2.6c-0.2,0.1-0.4,0.1-0.6,0.2l0.5,0.4L339.8,178.6z"/>
		<path class="st11" d="M351.9,175.4c-0.8,0.2-1.6,0.7-2,1.4c-0.4,0.8-0.5,1.8-0.1,2.7c0.6,1.6,2.1,2.6,3.8,2.7c0.2,0,0.5,0,0.7-0.1
			c0.2,0,0.4-0.1,0.5-0.2c0.1-0.2,0.1-0.5,0.1-0.7c-0.2,0.2-0.5,0.3-0.8,0.4c-1.7,0.3-3.3-0.7-3.9-2.2c-0.3-0.7-0.3-1.5,0.1-2.2
			c0.3-0.6,0.9-1,1.6-1.2c0.2,0,0.4-0.1,0.6-0.1c1.1,0,2.1,0.6,2.8,1.4c0-0.3,0-0.5,0-0.8C354.5,175.6,353.2,175.1,351.9,175.4z"/>
	</g>
	<path class="st6" d="M369.7,297.8c16.6-53.7,20.3-83.5,20.3-83.5l-39.6-2.1c0,0-6.4,54-9.1,87.1c-3,19.7-6.5,53.3-8.7,75.8
		c6.6,0.1,13.2-0.4,19.7-1.6C359.6,354.2,368.1,326.1,369.7,297.8z"/>
	<path class="st20" d="M343.2,399.1c0,0,3.8-10.4,7.8-25.8c-4.9,1.7-10.7-2.4-16.8-1.7c-0.4,9.7-1.3,19.4-2.9,29
		C333.2,401.5,340,400.4,343.2,399.1z"/>
	<path class="st4" d="M315.9,413.4c11.3-4.1,14.6-4,14.3-14.7c2.5-1.2,15.1-1.7,15.1-1.7c-2.5,10.8-1.9,9.7-1.2,12.3
		c0.8,3.3,2.7,8-1.8,8c-2.7,0-3.7-0.5-7.1-0.5c-4,0-10.1,0.5-18,0.5C312.9,417.5,313.7,414.2,315.9,413.4z"/>
	<path class="st14" d="M332.3,370c-0.2,1.9-0.5,6.6,0,8.3c0.1,0.2,0.2,0.4,0.4,0.4c6,1.3,12.2,1.1,18.1-0.4c0.2-0.1,0.4-0.2,0.5-0.4
		c1.4-2.1,3-6.8,3.7-8.8c0.1-0.3,0-0.6-0.3-0.8c-0.1,0-0.2-0.1-0.3,0c-7.1,0.7-14.1,1-21.2,0.8C332.7,369.2,332.3,369.6,332.3,370z"
		/>
	<path class="st23" d="M332.3,370c-0.2,1.9-0.5,6.6,0,8.3c0.1,0.2,0.2,0.4,0.4,0.4c6,1.3,12.2,1.1,18.1-0.4c0.2-0.1,0.4-0.2,0.5-0.4
		c1.4-2.1,3-6.8,3.7-8.8c0.1-0.3,0-0.6-0.3-0.8c-0.1,0-0.2-0.1-0.3,0c-7.1,0.7-14.1,1-21.2,0.8C332.7,369.2,332.3,369.6,332.3,370z"
		/>
	<path class="st10" d="M369.3,240.8c-4.3,17.2-1.7,40.7,1.9,52.5c2.3-7.6,4.4-14.7,6.1-21.3c0.1-0.7,0.1-1.3,0.2-2
		C374.1,258.6,370.2,249.2,369.3,240.8z"/>
	<path class="st6" d="M402.8,297.8c1.3-68-8.7-86.6-8.7-86.6l-35.3,1c0,0,10.6,53.6,17.8,87.5c4.4,19.5,7.2,52.9,11.5,75.4
		c6.5,0.1,12.9-0.4,19.3-1.6C408.9,354.2,409.4,326.1,402.8,297.8z"/>
	<path class="st20" d="M405.5,399.1c0.6-8.6,0.7-17.2,0.4-25.8c-4.4,1.7-11.4-2.4-17.2-1.7c2.4,9.5,4.3,19.2,5.5,29
		C396.3,401.5,402.8,400.4,405.5,399.1z"/>
	<path class="st4" d="M382,413c10.4-4.1,13-3.6,10.4-14.3c2.3-1.2,14.8-1.7,14.8-1.7c-0.1,4.4,0.6,8.8,2,13c1,3.5,2.4,7.4-1.8,7.4
		c-2.7,0-3.8-0.5-7.2-0.5c-4,0-8.9,0.5-16.7,0.5C379.1,417.5,379.9,413.8,382,413z"/>
	<path class="st14" d="M386.2,370c0.4,1.9,1.4,6.6,2.4,8.3c0.1,0.2,0.3,0.3,0.5,0.4c7.5,1.6,15,0.7,18-0.4c0.2-0.1,0.3-0.2,0.4-0.4
		c0.8-2.1,1.1-6.8,1.1-8.8c0-0.4-0.3-0.8-0.8-0.8c0,0-0.1,0-0.1,0c-7,0.7-14,1-21,0.8C386.4,369.2,386.2,369.5,386.2,370
		C386.2,369.9,386.2,370,386.2,370z"/>
	<path class="st23" d="M386.2,370c0.3,1.9,1.2,6.6,2.1,8.3c0.1,0.2,0.3,0.3,0.5,0.4c6.6,1.6,13.3,0.7,15.9-0.4
		c0.2-0.1,0.3-0.2,0.3-0.4c0.7-2.1,0.9-6.8,1-8.8c0-0.4-0.3-0.8-0.7-0.8c0,0,0,0-0.1,0c-6.2,0.7-12.4,1-18.6,0.8
		C386.4,369.2,386.2,369.5,386.2,370C386.2,369.9,386.2,370,386.2,370z"/>
	<path class="st4" d="M335.3,169.6c2.4,9.1-2.4,16.9,6.5,20.3c-0.7,7.2,5.6,28.6,7,32.8c5,2.1,27-1.5,46.1-11.3
		c-1.1-8.1-9.5-29.7-10.4-56.4c-0.2-5.7-5-10.3-10.7-10.1c-0.4,0-0.8,0-1.1,0.1c-1.6,0.2-3.4,0.5-5.1,0.9c-6.2,1-12.2,2.5-18.2,4.4
		c-1.9,0.7-3.9,1.4-5.8,2.1C336.9,155.3,333.3,162.6,335.3,169.6z"/>
	<g class="st21">
		<path class="st22" d="M369.7,158.9c-0.2,0-0.3,0-0.5,0c-0.7,0.1-1.3,0.5-1.7,1.1c-0.4,0.7-0.5,1.5-0.2,2.2
			c0.5,1.6,2.1,2.6,3.7,2.4c0.7-0.1,1.3-0.5,1.6-1.1c0.4-0.7,0.5-1.5,0.2-2.2C372.5,159.9,371.2,158.9,369.7,158.9z"/>
		<path class="st22" d="M355.4,204.7c-0.4,0.7-0.5,1.5-0.2,2.2c0.5,1.6,2.1,2.6,3.8,2.4c0.7-0.1,1.3-0.5,1.6-1.1
			c0.4-0.7,0.5-1.5,0.2-2.2c-0.5-1.4-1.8-2.4-3.3-2.5c-0.2,0-0.3,0-0.5,0C356.3,203.7,355.7,204.1,355.4,204.7z"/>
		<path class="st22" d="M371.8,173.5c-0.4,0.7-0.5,1.5-0.2,2.2c0.5,1.6,2.1,2.6,3.7,2.4c0.7-0.1,1.3-0.5,1.7-1.1
			c0.4-0.7,0.5-1.5,0.2-2.2c-0.4-1.4-1.8-2.4-3.3-2.5c-0.2,0-0.3,0-0.5,0C372.8,172.4,372.1,172.9,371.8,173.5z"/>
		<path class="st22" d="M364.6,179.2c0.4-0.7,0.5-1.5,0.2-2.2c-0.5-1.4-1.8-2.4-3.3-2.5c-0.2,0-0.3,0-0.5,0.1
			c-0.7,0.1-1.3,0.5-1.7,1.1c-0.4,0.7-0.5,1.5-0.2,2.2c0.5,1.6,2.1,2.6,3.8,2.4C363.6,180.2,364.2,179.8,364.6,179.2z"/>
		<path class="st22" d="M360.4,165.7c0.4-0.7,0.5-1.5,0.2-2.2c-0.5-1.4-1.8-2.4-3.3-2.5c-0.2,0-0.3,0-0.5,0
			c-0.7,0.1-1.3,0.5-1.6,1.1c-0.4,0.7-0.5,1.5-0.2,2.2c0.5,1.6,2.1,2.6,3.7,2.4C359.4,166.7,360,166.3,360.4,165.7z"/>
		<path class="st22" d="M381.4,188.3c-0.5-1.4-1.8-2.4-3.3-2.5c-0.2,0-0.3,0-0.5,0.1c-0.7,0.1-1.3,0.5-1.6,1.1
			c-0.4,0.7-0.5,1.5-0.2,2.2c0.5,1.6,2.1,2.6,3.8,2.4c0.7-0.1,1.3-0.5,1.6-1.1C381.6,189.9,381.7,189,381.4,188.3z"/>
		<path class="st22" d="M348.6,176.7c-0.7,0.1-1.3,0.5-1.7,1.1c-0.4,0.7-0.5,1.5-0.2,2.2c0.5,1.6,2.1,2.6,3.7,2.4
			c0.7-0.1,1.3-0.5,1.6-1.1c0.4-0.7,0.5-1.5,0.2-2.2c-0.5-1.4-1.8-2.4-3.3-2.5C348.9,176.7,348.8,176.7,348.6,176.7z"/>
		<path class="st22" d="M367.1,193.8c0.7-0.1,1.3-0.5,1.6-1.1c0.4-0.7,0.5-1.5,0.2-2.2c-0.5-1.4-1.8-2.4-3.3-2.5c-0.2,0-0.3,0-0.5,0
			c-0.7,0.1-1.3,0.5-1.6,1.1c-0.4,0.7-0.5,1.5-0.2,2.2C363.8,192.9,365.4,194,367.1,193.8z"/>
		<path class="st22" d="M356.4,194.8c0.4-0.7,0.5-1.5,0.2-2.2c-0.5-1.4-1.8-2.4-3.3-2.5c-0.2,0-0.3,0-0.5,0
			c-0.7,0.1-1.3,0.5-1.6,1.1c-0.4,0.7-0.5,1.5-0.2,2.2c0.5,1.6,2.1,2.6,3.7,2.4C355.4,195.8,356,195.4,356.4,194.8z"/>
		<path class="st22" d="M371.3,207.2c0.7-0.1,1.3-0.5,1.6-1.1c0.4-0.7,0.5-1.5,0.2-2.2c-0.5-1.4-1.8-2.4-3.3-2.5c-0.2,0-0.3,0-0.5,0
			c-0.7,0.1-1.3,0.5-1.6,1.1c-0.4,0.7-0.5,1.5-0.2,2.2C368.1,206.4,369.6,207.4,371.3,207.2z"/>
		<path class="st22" d="M383.7,205.1c0.7-0.1,1.3-0.5,1.7-1.1c0.4-0.7,0.5-1.5,0.2-2.2c-0.5-1.4-1.8-2.4-3.3-2.5c-0.2,0-0.3,0-0.5,0
			c-0.7,0.1-1.3,0.5-1.6,1.1c-0.4,0.7-0.5,1.5-0.2,2.2C380.5,204.2,382,205.3,383.7,205.1z"/>
		<path class="st22" d="M348,167.9c0.4-0.7,0.5-1.5,0.2-2.2c-0.5-1.4-1.8-2.4-3.3-2.5c-0.2,0-0.3,0-0.5,0c-0.7,0.1-1.3,0.5-1.6,1.1
			c-0.4,0.7-0.5,1.5-0.2,2.2c0.5,1.6,2.1,2.6,3.7,2.4C347,168.8,347.6,168.5,348,167.9z"/>
		<path class="st11" d="M343.7,154.4c-0.4,0.6-1,1-1.6,1.1c-0.8,0.1-1.7-0.1-2.4-0.6c-0.1,0.1-0.3,0.2-0.4,0.4
			c0.7,0.5,1.5,0.8,2.3,0.8c0.2,0,0.4,0,0.6-0.1c0.8-0.1,1.6-0.6,2-1.4c0.4-0.7,0.6-1.6,0.3-2.5l-0.5,0.2
			C344.2,153.1,344.1,153.8,343.7,154.4z"/>
		<path class="st11" d="M350.2,151.1c0.5,1.7,2,2.8,3.8,2.9c0.2,0,0.4,0,0.6,0c0.8-0.1,1.6-0.6,2-1.4c0.5-0.8,0.6-1.8,0.3-2.7
			c-0.2-0.5-0.5-1-0.8-1.4l-0.6,0.1c0.4,0.4,0.7,0.9,0.9,1.4c0.3,0.7,0.2,1.6-0.2,2.2c-0.4,0.6-1,1-1.6,1.1
			c-1.7,0.2-3.2-0.8-3.8-2.4c-0.1-0.3-0.1-0.6-0.1-0.9l-0.5,0.2C350.1,150.6,350.1,150.9,350.2,151.1z"/>
		<path class="st11" d="M362.6,147c-0.2,0.7-0.2,1.3,0,2c0.5,1.7,2.1,2.8,3.8,2.8c0.2,0,0.4,0,0.6-0.1c0.8-0.1,1.6-0.6,2-1.4
			c0.5-0.8,0.6-1.8,0.3-2.7c-0.2-0.7-0.6-1.3-1.2-1.8l-0.5,0.1h-0.2c0.7,0.4,1.1,1.1,1.4,1.9c0.3,0.7,0.2,1.6-0.2,2.2
			c-0.4,0.6-1,1-1.7,1.1c-1.7,0.2-3.2-0.8-3.7-2.4c-0.2-0.6-0.2-1.3,0.1-1.9L362.6,147z"/>
		<path class="st11" d="M375,145.1c-0.1,0.6-0.1,1.2,0.1,1.7c0.5,1.7,2,2.8,3.8,2.9c0.2,0,0.4,0,0.6-0.1c0.8-0.1,1.6-0.6,2-1.4
			c0,0,0-0.1,0-0.1c-0.1-0.1-0.3-0.3-0.4-0.4c0,0.1-0.1,0.1-0.1,0.2c-0.4,0.6-1,1-1.6,1.1c-1.7,0.2-3.2-0.8-3.7-2.4
			c-0.2-0.5-0.2-1-0.1-1.5C375.3,145.1,375.2,145.1,375,145.1z"/>
		<path class="st11" d="M335.8,167.8c0.3,0.7,0.2,1.6-0.2,2.2c0,0-0.1,0.1-0.1,0.1c0,0.2,0.1,0.4,0.1,0.7c0.2-0.2,0.3-0.3,0.4-0.5
			c0.5-0.8,0.6-1.8,0.3-2.7c-0.3-0.8-0.8-1.5-1.5-2c0,0.2,0,0.5,0,0.7C335.2,166.8,335.6,167.3,335.8,167.8z"/>
		<path class="st11" d="M346.4,169.5c0.8-0.1,1.6-0.6,2-1.4c0.5-0.8,0.6-1.8,0.3-2.7c-0.6-1.9-2.4-3.1-4.4-2.8
			c-0.8,0.1-1.6,0.6-2,1.4c-0.5,0.8-0.6,1.8-0.3,2.7c0.5,1.7,2,2.8,3.8,2.9C346,169.6,346.2,169.6,346.4,169.5z M342.6,166.5
			c-0.3-0.7-0.2-1.5,0.2-2.2c0.4-0.6,1-1,1.6-1.1c0.2,0,0.3,0,0.5,0c1.5,0,2.8,1,3.3,2.5c0.3,0.7,0.2,1.6-0.2,2.2
			c-0.4,0.6-1,1-1.7,1.1C344.6,169.2,343,168.2,342.6,166.5L342.6,166.5z"/>
		<path class="st11" d="M360.8,166c0.5-0.8,0.6-1.8,0.3-2.7c-0.6-1.9-2.4-3.1-4.4-2.8c-0.8,0.1-1.6,0.6-2,1.4
			c-0.5,0.8-0.6,1.8-0.3,2.7c0.5,1.7,2,2.8,3.8,2.8c0.2,0,0.4,0,0.6,0C359.7,167.2,360.4,166.7,360.8,166z M355,164.4
			c-0.3-0.7-0.2-1.6,0.2-2.2c0.4-0.6,1-1,1.6-1.1c0.2,0,0.3,0,0.5,0c1.5,0.1,2.8,1,3.3,2.5c0.3,0.7,0.2,1.5-0.2,2.2
			c-0.4,0.6-1,1-1.6,1.1C357.1,167.1,355.5,166,355,164.4z"/>
		<path class="st11" d="M369.1,158.4c-0.8,0.1-1.6,0.6-2,1.4c-0.5,0.8-0.6,1.8-0.3,2.7c0.5,1.7,2,2.8,3.8,2.8c0.2,0,0.4,0,0.6,0
			c0.8-0.1,1.6-0.6,2-1.4c0.5-0.8,0.6-1.8,0.3-2.7C373,159.3,371.1,158.1,369.1,158.4z M372.8,163.6c-0.4,0.6-1,1-1.6,1.1
			c-1.7,0.2-3.2-0.8-3.7-2.4c-0.3-0.7-0.2-1.6,0.2-2.2c0.4-0.6,1-1,1.7-1.1c0.2,0,0.3,0,0.5,0c1.5,0,2.8,1,3.3,2.5
			C373.2,162.1,373.1,162.9,372.8,163.6L372.8,163.6z"/>
		<path class="st11" d="M381.6,156.8c0.2,0,0.3,0,0.5,0c1,0,1.9,0.4,2.5,1.2v-0.8c-0.8-0.7-2-1-3-0.9c-0.8,0.1-1.6,0.6-2,1.4
			c-0.5,0.8-0.6,1.8-0.3,2.7c0.5,1.7,2.1,2.8,3.8,2.9c0.2,0,0.4,0,0.6-0.1c0.5-0.1,0.9-0.3,1.3-0.6c0-0.2,0-0.4,0-0.7
			c-0.4,0.4-0.9,0.7-1.4,0.8c-1.7,0.2-3.2-0.8-3.7-2.4c-0.3-0.7-0.2-1.5,0.2-2.2C380.4,157.3,381,156.9,381.6,156.8z"/>
		<path class="st11" d="M338.2,185.1c0.8-0.1,1.6-0.6,2-1.4c0.5-0.8,0.6-1.8,0.3-2.7c-0.6-1.9-2.4-3-4.4-2.8h0v0.6h0.1
			c0.2,0,0.3,0,0.5,0c1.5,0,2.8,1,3.3,2.5c0.3,0.7,0.2,1.5-0.2,2.2c-0.4,0.6-1,1-1.7,1.1c-0.5,0.1-1.1,0-1.6-0.2l0.2,0.6
			c0.3,0.1,0.6,0.1,1,0.1C337.8,185.2,338,185.2,338.2,185.1z"/>
		<path class="st11" d="M348.5,176.2c-0.8,0.1-1.6,0.6-2,1.4c-0.5,0.8-0.6,1.8-0.3,2.7c0.5,1.6,2,2.7,3.7,2.8c0.2,0,0.4,0,0.6-0.1
			c0.8-0.1,1.6-0.6,2-1.4c0.5-0.8,0.6-1.8,0.3-2.7C352.3,177.1,350.5,175.9,348.5,176.2z M352.4,179.2c0.3,0.7,0.2,1.6-0.2,2.2
			c-0.4,0.6-1,1-1.6,1.1c-1.7,0.2-3.2-0.8-3.7-2.4c-0.3-0.7-0.2-1.6,0.2-2.2c0.4-0.6,1-1,1.7-1.1c0.2,0,0.3,0,0.5,0
			C350.6,176.8,351.9,177.7,352.4,179.2L352.4,179.2z"/>
		<path class="st11" d="M363,180.8c0.8-0.1,1.6-0.6,2-1.4c0.5-0.8,0.6-1.8,0.3-2.7c-0.6-1.9-2.4-3-4.4-2.8c-0.8,0.1-1.6,0.6-2,1.4
			c-0.5,0.8-0.6,1.8-0.3,2.7c0.5,1.7,2,2.8,3.8,2.9C362.6,180.9,362.8,180.9,363,180.8z M359.2,177.8c-0.3-0.7-0.2-1.6,0.2-2.2
			c0.4-0.6,1-1,1.7-1.1c0.2,0,0.3,0,0.5-0.1c1.5,0.1,2.8,1,3.3,2.5c0.3,0.7,0.2,1.6-0.2,2.2c-0.4,0.6-1,1-1.6,1.1
			C361.2,180.5,359.7,179.5,359.2,177.8L359.2,177.8z"/>
		<path class="st11" d="M371.3,173.2c-0.5,0.8-0.6,1.8-0.3,2.7c0.5,1.7,2.1,2.8,3.8,2.8c0.2,0,0.4,0,0.6,0c0.8-0.1,1.6-0.6,2-1.4
			c0.5-0.8,0.6-1.8,0.3-2.7c-0.6-1.9-2.4-3-4.4-2.8C372.5,172,371.8,172.5,371.3,173.2z M373.9,172.4c1.5,0,2.8,1,3.3,2.5
			c0.3,0.7,0.2,1.5-0.2,2.2c-0.4,0.6-1,1-1.7,1.1c-1.7,0.2-3.2-0.8-3.7-2.4c-0.3-0.7-0.2-1.6,0.2-2.2c0.4-0.6,1-1,1.6-1.1
			C373.6,172.3,373.8,172.3,373.9,172.4z"/>
		<path class="st11" d="M386.7,176c-1.3-0.2-2.3-1.2-2.7-2.4c-0.3-0.7-0.2-1.6,0.2-2.2c0.4-0.6,0.9-1,1.6-1.1c0-0.2,0-0.4-0.1-0.5
			c-0.8,0.1-1.6,0.6-2,1.4c-0.5,0.8-0.6,1.8-0.3,2.7c0.5,1.5,1.8,2.6,3.3,2.8C386.8,176.3,386.7,176.2,386.7,176z"/>
		<path class="st11" d="M344.7,194.6c-0.4-1.3-1.5-2.3-2.9-2.7c0,0.2,0,0.4,0,0.6c1.1,0.4,2,1.2,2.3,2.3c0.3,0.7,0.2,1.6-0.2,2.3
			c-0.3,0.5-0.8,0.9-1.4,1l0.1,0.5c0.7-0.2,1.4-0.6,1.8-1.3C344.9,196.4,345,195.5,344.7,194.6z"/>
		<path class="st11" d="M354.8,196.4c0.8-0.1,1.6-0.6,2-1.4c0.5-0.8,0.6-1.8,0.3-2.7c-0.6-1.9-2.4-3-4.4-2.8c-0.8,0.1-1.6,0.6-2,1.4
			c-0.5,0.8-0.6,1.8-0.3,2.7c0.5,1.7,2.1,2.8,3.8,2.8C354.4,196.5,354.6,196.5,354.8,196.4z M351,193.5c-0.3-0.7-0.2-1.6,0.2-2.2
			c0.4-0.6,1-1,1.6-1.1c0.2,0,0.3,0,0.5,0c1.5,0,2.8,1,3.3,2.5c0.3,0.7,0.2,1.6-0.2,2.2c-0.4,0.6-1,1-1.7,1.1
			C353.1,196.2,351.5,195.1,351,193.5z"/>
		<path class="st11" d="M366.6,194.3c0.2,0,0.4,0,0.6-0.1c0.8-0.1,1.6-0.6,2-1.4c0.5-0.8,0.6-1.8,0.3-2.7c-0.6-1.9-2.4-3.1-4.4-2.8
			c-0.8,0.1-1.6,0.6-2,1.4c-0.5,0.8-0.6,1.8-0.3,2.7C363.4,193.2,364.9,194.3,366.6,194.3z M363.6,189.1c0.4-0.6,1-1,1.6-1.1
			c0.2,0,0.3,0,0.5,0c1.5,0,2.8,1,3.3,2.5c0.3,0.7,0.2,1.6-0.2,2.2c-0.4,0.6-1,1-1.6,1.1c-1.7,0.2-3.2-0.8-3.7-2.4
			C363.1,190.6,363.2,189.8,363.6,189.1L363.6,189.1z"/>
		<path class="st11" d="M381.6,190.8c0.5-0.8,0.6-1.8,0.3-2.7c-0.6-1.9-2.4-3.1-4.4-2.8c-0.8,0.1-1.6,0.6-2,1.4
			c-0.5,0.8-0.6,1.8-0.3,2.7c0.5,1.7,2,2.8,3.8,2.9c0.2,0,0.4,0,0.6-0.1C380.5,192,381.2,191.5,381.6,190.8z M379.5,191.6
			c-1.7,0.2-3.2-0.8-3.8-2.4c-0.2-0.7-0.1-1.5,0.2-2.2c0.4-0.6,1-1,1.7-1.1c0.2,0,0.3,0,0.5-0.1c1.5,0.1,2.8,1,3.3,2.5
			c0.3,0.7,0.2,1.6-0.2,2.2C380.8,191.1,380.2,191.5,379.5,191.6L379.5,191.6z"/>
		<path class="st11" d="M389.5,189.4c-0.1-0.3-0.1-0.5-0.2-0.8c-0.5-0.4-0.9-1-1.1-1.6c-0.3-0.7-0.2-1.5,0.2-2.2l-0.1-0.7
			c-0.1,0.1-0.2,0.3-0.3,0.4c-0.5,0.8-0.6,1.8-0.3,2.7C388,188.1,388.6,188.9,389.5,189.4z"/>
		<path class="st11" d="M346.6,212.1c0.8-0.1,1.6-0.6,2-1.4c0.5-0.8,0.6-1.8,0.3-2.7c-0.6-1.9-2.4-3.1-4.4-2.8
			c-0.2,0-0.3,0.1-0.5,0.1l0.1,0.5c0.1-0.1,0.3-0.1,0.4-0.1c0.2,0,0.3,0,0.5,0c1.5,0,2.8,1,3.3,2.5c0.3,0.7,0.2,1.6-0.2,2.2
			c-0.4,0.6-1,1-1.6,1.1c-0.3,0-0.6,0-0.9,0l0.1,0.6h0.3C346.2,212.1,346.4,212.1,346.6,212.1z"/>
		<path class="st11" d="M354.9,204.4c-0.5,0.8-0.6,1.8-0.3,2.7c0.5,1.7,2,2.8,3.8,2.9c0.2,0,0.4,0,0.6-0.1c0.8-0.1,1.6-0.6,2-1.4
			c0.5-0.8,0.6-1.8,0.3-2.7c-0.6-1.9-2.4-3-4.4-2.8C356.1,203.2,355.4,203.7,354.9,204.4z M357.5,203.6c1.5,0.1,2.8,1,3.3,2.5
			c0.3,0.7,0.2,1.5-0.2,2.2c-0.4,0.6-1,1-1.6,1.1c-1.7,0.2-3.2-0.8-3.8-2.4c-0.3-0.7-0.2-1.6,0.2-2.2c0.4-0.6,1-1,1.7-1.1
			C357.2,203.6,357.4,203.6,357.5,203.6L357.5,203.6z"/>
		<path class="st11" d="M370.8,207.8c0.2,0,0.4,0,0.6-0.1c0.8-0.1,1.6-0.6,2-1.4c0.5-0.8,0.6-1.8,0.3-2.7c-0.6-1.9-2.4-3-4.4-2.8
			c-0.8,0.1-1.6,0.6-2,1.4c-0.5,0.8-0.6,1.8-0.3,2.7C367.6,206.6,369.1,207.7,370.8,207.8z M367.8,202.6c0.4-0.6,1-1,1.6-1.1
			c0.2,0,0.3,0,0.5,0c1.5,0,2.8,1,3.3,2.5c0.3,0.7,0.2,1.6-0.2,2.2c-0.4,0.6-1,1-1.6,1.1c-1.7,0.2-3.2-0.8-3.8-2.4
			C367.3,204.1,367.4,203.3,367.8,202.6L367.8,202.6z"/>
		<path class="st11" d="M383.2,205.6c0.2,0,0.4,0,0.6-0.1c0.8-0.1,1.6-0.6,2-1.4c0.5-0.8,0.6-1.8,0.3-2.7c-0.6-1.9-2.4-3.1-4.4-2.8
			c-0.8,0.1-1.6,0.6-2,1.4c-0.5,0.8-0.6,1.8-0.3,2.7C380,204.5,381.5,205.6,383.2,205.6z M380.2,200.4c0.4-0.6,1-1,1.6-1.1
			c0.2,0,0.3,0,0.5,0c1.5,0,2.8,1,3.3,2.5c0.3,0.7,0.2,1.6-0.2,2.2c-0.4,0.6-1,1-1.7,1.1c-1.7,0.2-3.2-0.8-3.7-2.4
			C379.7,201.9,379.8,201.1,380.2,200.4L380.2,200.4z"/>
		<path class="st11" d="M391.8,198.8c-0.2,0.6-0.2,1.3,0,1.9c0.2,0.6,0.5,1.1,0.9,1.5C392.5,201.1,392.1,199.9,391.8,198.8z"/>
		<path class="st11" d="M348.7,218.7c-0.4,0.1-0.7,0.2-1,0.4c0,0.2,0.1,0.4,0.2,0.5c0.3-0.2,0.6-0.3,1-0.4c0.2,0,0.3,0,0.5,0
			c1.5,0,2.8,1,3.3,2.5c0.2,0.5,0.2,1.1,0,1.6h0.5c0.2-0.6,0.2-1.2,0-1.8C352.6,219.6,350.7,218.4,348.7,218.7z"/>
		<path class="st11" d="M364.6,222l0.7-0.1c0.4-0.8,0.5-1.6,0.2-2.5c-0.6-1.9-2.4-3.1-4.4-2.8c-0.8,0.1-1.6,0.6-2,1.4
			c-0.5,0.8-0.6,1.8-0.3,2.7c0.3,0.9,0.8,1.6,1.6,2.1l0.8-0.1c-0.9-0.4-1.6-1.2-1.9-2.1c-0.3-0.7-0.2-1.6,0.2-2.2
			c0.4-0.6,1-1,1.6-1.1c0.2,0,0.3,0,0.5,0c1.5,0,2.8,1,3.3,2.5c0.3,0.7,0.2,1.6-0.2,2.2C364.7,221.9,364.7,221.9,364.6,222z"/>
		<path class="st11" d="M378.1,218.4c0-0.4,0-0.8-0.1-1.2c-0.6-1.9-2.4-3-4.4-2.8c-0.8,0.1-1.6,0.6-2,1.4c-0.5,0.8-0.6,1.8-0.3,2.7
			c0.2,0.7,0.6,1.2,1.1,1.7l0.6-0.1c-0.6-0.4-1-1-1.2-1.7c-0.3-0.8-0.2-1.6,0.2-2.3c0.4-0.6,1-1,1.6-1.1c0.2,0,0.3,0,0.5,0
			c1.5,0,2.8,1,3.3,2.5c0.1,0.4,0.2,0.8,0.1,1.2L378.1,218.4z"/>
		<path class="st11" d="M386,212.3c-0.8,0.1-1.6,0.6-2,1.4c-0.5,0.8-0.6,1.8-0.3,2.7c0,0.1,0,0.1,0.1,0.1l0.5-0.2l-0.1-0.1
			c-0.3-0.7-0.2-1.6,0.2-2.2c0.4-0.6,1-1,1.7-1.1c0.2,0,0.3,0,0.5,0c1.1,0,2.1,0.6,2.7,1.4l0.5-0.2C389,212.7,387.5,212.1,386,212.3
			z"/>
	</g>
	<path class="st20" d="M387.7,153.8c0.8,0.6,1.4,1,2.1,1.5s1.3,1,2,1.5c1.3,1,2.6,2.1,3.8,3.2c2.5,2.2,4.9,4.6,7.1,7.1
		c1.1,1.3,2.2,2.6,3.3,4.1c1.1,1.5,2.1,3,3,4.6c2.1,3.5,3.4,7.5,3.8,11.6v0.4c0,0.5,0,1.1-0.1,1.6c-0.7,2.5-1.7,4.9-3,7.1
		c-1.1,2-2.4,3.9-3.9,5.8c-1.4,1.8-2.8,3.4-4.4,5.1c-1.5,1.6-3.1,3.1-4.9,4.5c-1.6,1.3-3.9,1.1-5.2-0.5c-0.9-1.1-1.1-2.7-0.4-4
		l0.1-0.1l2.8-5.4c0.9-1.8,1.8-3.6,2.6-5.3s1.5-3.5,2.1-5.2c0.6-1.5,0.9-3,1.2-4.6l-0.1,2c-0.5-2-1.4-3.9-2.5-5.6
		c-1.5-2.2-3.2-4.2-5-6.1c-1.9-2-4-3.9-6.1-5.8c-1.1-0.9-2.2-1.8-3.3-2.8l-1.7-1.3c-0.5-0.4-1.2-0.9-1.6-1.2l-0.2-0.1
		c-3.2-2.5-3.8-7.1-1.3-10.4C380.3,152.4,384.5,151.7,387.7,153.8L387.7,153.8z"/>
	<path class="st4" d="M360.4,150.7c2,7.5,19.4,18.4,19.4,18.4s14.3-5,15.3-11.9c-1.6-2.4-6.6-9.1-13.5-11.3
		C375.4,143.9,366,144.1,360.4,150.7z"/>
	<g class="st21">
		<path class="st22" d="M372.1,148.5c-0.4,0.7-0.4,1.5-0.1,2.2c0.6,1.6,2.2,2.5,3.9,2.2c0.7-0.1,1.3-0.6,1.6-1.2
			c0.4-0.7,0.4-1.5,0.1-2.2c-0.5-1.4-1.8-2.3-3.2-2.3c-0.2,0-0.4,0-0.6,0.1C373.1,147.5,372.5,147.9,372.1,148.5z"/>
		<path class="st22" d="M377,161.8c-0.4,0.7-0.4,1.5-0.1,2.2c0.6,1.6,2.2,2.5,3.9,2.2c0.7-0.1,1.3-0.6,1.6-1.2
			c0.4-0.7,0.4-1.5,0.1-2.2c-0.5-1.4-1.8-2.3-3.2-2.3c-0.2,0-0.4,0-0.6,0.1C377.9,160.8,377.3,161.2,377,161.8z"/>
		<path class="st11" d="M360.5,150.5c0.3-0.2,0.6-0.3,0.9-0.4c0.2,0,0.4-0.1,0.6-0.1c1.4,0,2.7,1,3.2,2.3c0.3,0.7,0.3,1.5-0.1,2.2
			c-0.3,0.6-0.9,1-1.6,1.2h-0.2l0.4,0.5c0.8-0.2,1.4-0.7,1.8-1.4c0.4-0.8,0.5-1.8,0.1-2.7c-0.7-1.8-2.5-2.9-4.4-2.6
			C361.1,149.9,360.8,150.2,360.5,150.5z"/>
		<path class="st11" d="M373.6,146.8c-0.8,0.2-1.5,0.7-2,1.4c-0.4,0.8-0.5,1.8-0.1,2.7c0.6,1.6,2.1,2.6,3.8,2.7c0.2,0,0.5,0,0.7-0.1
			c0.8-0.2,1.6-0.7,2-1.4c0.4-0.8,0.5-1.8,0.1-2.7C377.5,147.6,375.5,146.5,373.6,146.8z M377.6,149.6c0.3,0.7,0.3,1.5-0.1,2.2
			c-0.3,0.6-0.9,1-1.6,1.2c-1.7,0.3-3.3-0.7-3.9-2.2c-0.3-0.7-0.3-1.5,0.1-2.2c0.3-0.6,0.9-1,1.6-1.2c0.2,0,0.4-0.1,0.6-0.1
			C375.8,147.3,377.1,148.3,377.6,149.6L377.6,149.6z"/>
		<path class="st11" d="M383.8,148.2c0.6,1.6,2.1,2.6,3.8,2.7c0.2,0,0.5,0,0.7-0.1c0.4-0.1,0.7-0.2,1-0.4l-0.4-0.4
			c-0.2,0.1-0.4,0.2-0.6,0.2c-1.7,0.3-3.3-0.7-3.9-2.2c-0.1-0.4-0.2-0.8-0.2-1.1l-0.5-0.2C383.6,147.2,383.6,147.7,383.8,148.2z"/>
		<path class="st11" d="M378.5,160.1c-0.8,0.2-1.6,0.7-2,1.4c-0.4,0.8-0.5,1.8-0.1,2.7c0.6,1.6,2.1,2.6,3.8,2.7c0.2,0,0.5,0,0.7-0.1
			c0.8-0.2,1.6-0.7,2-1.4c0.4-0.8,0.5-1.8,0.1-2.7C382.3,160.8,380.4,159.7,378.5,160.1z M382.5,162.9c0.3,0.7,0.2,1.5-0.1,2.2
			c-0.3,0.6-0.9,1-1.6,1.2c-1.7,0.3-3.3-0.7-3.9-2.2c-0.3-0.7-0.3-1.5,0.1-2.2c0.3-0.6,0.9-1,1.6-1.2c0.2,0,0.4-0.1,0.6-0.1
			C380.7,160.6,381.9,161.5,382.5,162.9L382.5,162.9z"/>
		<path class="st11" d="M390.8,157.3c-0.8,0.2-1.6,0.7-2,1.4c-0.4,0.8-0.5,1.8-0.1,2.7c0.3,0.9,0.9,1.6,1.7,2.1l0.5-0.4
			c-0.8-0.4-1.4-1.1-1.7-1.9c-0.3-0.7-0.3-1.5,0.1-2.2c0.3-0.6,0.9-1,1.6-1.2c0.2,0,0.4-0.1,0.6-0.1c1.1,0,2.2,0.6,2.8,1.5
			c0.1-0.2,0.2-0.4,0.3-0.5C393.6,157.7,392.2,157.1,390.8,157.3z"/>
	</g>
	<path class="st11" d="M351.3,161c0,0,8.8-5.8,14.1-1.7c9.4-12.9,4.4-16.4,2.1-13.3C359.1,149.3,351.3,161,351.3,161z"/>
	<path class="st11" d="M351.3,161c0,0-5.1-2.6-6.8-0.3c-0.8-7.9,2.6-11.1,4.2-10.1C348.2,152.8,351.3,161,351.3,161z"/>
	<path class="st20" d="M363.1,125.4c0,6.2,0.9,16.1,4.4,20.6c-4.7,5.7-10.2,10.7-16.2,15c-3.7-6.6-2.6-10.4-2.6-10.4
		c4.3-2.2,3.7-7.9,2.6-12.3L363.1,125.4z"/>
	<path class="st10" d="M351.4,138.4l6.6-7.4c0.4,1.2,0.4,2.5,0.1,3.7c-0.9,3.6-3.1,6.7-6,8.9C352,141.8,351.8,140.1,351.4,138.4z"/>
	<path class="st20" d="M364.3,113.8c0,10.1,0.3,14.3-4.4,19.8c-7,8.2-19.1,6-22.1-3.8c-2.7-8.9-2.3-23.8,7-28.4
		S364.3,103.7,364.3,113.8z"/>
	<path class="st4" d="M357.7,102.7c-6.2,5.7,0.4,14.3,5.5,15.8S369.6,97.7,357.7,102.7z"/>
	<path class="st4" d="M362,102.6c-2.7,6.3-26.5,2.9-27.3,11.6C333.3,101.3,351.8,93.2,362,102.6z"/>
	<path class="st4" d="M350.3,118c0,0.8-0.3,1.5-0.9,1.5s-1-0.6-1.1-1.4s0.3-1.5,0.9-1.5S350.2,117.2,350.3,118z"/>
	<path class="st4" d="M340.2,118.8c0.1,0.8-0.3,1.5-0.9,1.5s-1-0.6-1.1-1.4s0.3-1.5,0.9-1.5S340.2,118,340.2,118.8z"/>
	<path class="st4" d="M339.4,117.4l-2-0.4C337.4,117,338.5,118.4,339.4,117.4z"/>
	<path class="st24" d="M342.7,118.9c-0.6,1.9-1.5,3.7-2.6,5.4c0.9,0.5,2,0.7,3,0.4L342.7,118.9z"/>
	<path class="st4" d="M348,127.3c-0.4,0.1-0.9,0.2-1.4,0.2c-0.1,0-0.2-0.1-0.3-0.2c0-0.1,0.1-0.2,0.2-0.3c0,0,0,0,0,0
		c2.1-0.1,4-1.2,5.1-2.9c0.1-0.1,0.2-0.2,0.3-0.1c0.1,0.1,0.2,0.2,0.1,0.3C351.2,125.9,349.7,126.9,348,127.3z"/>
	<path class="st20" d="M367.3,122.3c-0.9,2-2.5,3.5-4.6,4.2c-2.6,0.8-3.9-2.1-3.2-5c0.6-2.6,2.8-6.2,5.4-5.6
		S368.5,119.8,367.3,122.3z"/>
	<path class="st4" d="M351.8,112.4c-0.1,0-0.3-0.1-0.3-0.2c-0.8-1-1.9-1.5-3.2-1.4c-0.3,0-0.5-0.2-0.6-0.4s0.2-0.5,0.4-0.6
		c1.5-0.1,3,0.6,4,1.8c0.2,0.2,0.1,0.5-0.1,0.7C352,112.4,351.9,112.4,351.8,112.4z"/>
	<path class="st4" d="M335.2,113.8c-0.1,0-0.2,0-0.3-0.1c-0.2-0.2-0.2-0.5-0.1-0.7c0,0,0,0,0,0c1-1.2,2.4-1.9,4-1.8
		c0.3,0,0.5,0.3,0.5,0.6c0,0.3-0.3,0.5-0.6,0.4c-1.2,0-2.4,0.5-3.1,1.5C335.5,113.8,335.4,113.8,335.2,113.8z"/>
	<path class="st4" d="M349.4,116.6l-2-0.4C347.4,116.2,348.5,117.7,349.4,116.6z"/>
	<path class="st20" d="M392.3,205.7l-2.9,3.5c-1,1.1-1.6,2.5-1.9,4l-0.3,1.6c-0.3,1.5,0.6,3,2,3.6l3.6,1.4c1.7,0.6,3.5-0.2,4.2-1.8
		l0.6-1.6c0,0,3.2-5.9,2.5-11l-1.4-0.4C396.6,204.1,394.2,204.4,392.3,205.7z"/>
</g>
</svg>
