<?xml version="1.0" encoding="utf-8"?>
<!-- Generator: Adobe Illustrator 24.1.1, SVG Export Plug-In . SVG Version: 6.00 Build 0)  -->
<svg version="1.1" id="Layer_1" xmlns="http://www.w3.org/2000/svg" xmlns:xlink="http://www.w3.org/1999/xlink" x="0px" y="0px"
	 viewBox="0 0 500 500" style="enable-background:new 0 0 500 500;" xml:space="preserve">
<style type="text/css">
	.st0{fill:#E6E6E6;}
	.st1{fill:#E0E0E0;}
	.st2{fill:#FAFAFA;}
	.st3{fill:#F5F5F5;}
	.st4{fill:#F0F0F0;}
	.st5{fill:#FFFFFF;}
	.st6{fill:#E58A7B;}
	.st7{fill:#2B6F87;}
	.st8{opacity:0.2;enable-background:new    ;}
	.st9{fill:#E8ECF1;}
	.st10{fill:#263238;}
	.st11{fill:#CF6F64;}
	.st12{fill:#DF5753;}
	.st13{opacity:0.56;fill:#FAFAFA;enable-background:new    ;}
	.st14{opacity:7.000000e-02;fill:#407BFF;enable-background:new    ;}
	.st15{opacity:0.47;fill:#2B6F87;enable-background:new    ;}
	.st16{opacity:0.1;fill:#FFFFFF;enable-background:new    ;}
	.st17{fill:#407BFF;}
	.st18{opacity:0.6;enable-background:new    ;}
	.st19{opacity:0.4;enable-background:new    ;}
	.st20{opacity:0.4;fill:#EAF3F6;enable-background:new    ;}
	.st21{opacity:0.3;fill:#FFFFFF;enable-background:new    ;}
</style>
<g id="freepik--background-complete--inject-250">
	<rect y="382.4" class="st0" width="500" height="0.3"/>
	<rect x="91.7" y="397.5" class="st0" width="33.1" height="0.3"/>
	<rect x="62" y="397.5" class="st0" width="19.2" height="0.3"/>
	<rect x="191.4" y="401.2" class="st0" width="19.2" height="0.3"/>
	<rect x="267.4" y="406.8" class="st0" width="43.2" height="0.3"/>
	<rect x="252.2" y="406.8" class="st0" width="6.3" height="0.3"/>
	<rect x="359.7" y="401.2" class="st0" width="93.7" height="0.3"/>
	<path class="st0" d="M237,337.8H43.9c-3.1,0-5.7-2.6-5.7-5.7V60.7c0-3.1,2.6-5.7,5.7-5.7H237c3.2,0,5.7,2.6,5.7,5.7c0,0,0,0,0,0
		v271.4C242.7,335.2,240.2,337.8,237,337.8z M43.9,55.2c-3,0-5.5,2.4-5.5,5.5v271.4c0,3,2.4,5.5,5.5,5.5H237c3,0,5.5-2.4,5.5-5.5
		V60.7c0-3-2.4-5.5-5.5-5.5H43.9z"/>
	<path class="st0" d="M453.3,337.8H260.2c-3.2,0-5.7-2.6-5.7-5.7V60.7c0-3.1,2.6-5.7,5.7-5.7h193.1c3.1,0,5.7,2.5,5.7,5.7v271.4
		C459,335.2,456.5,337.8,453.3,337.8z M260.2,55.2c-3,0-5.5,2.4-5.5,5.5v271.4c0,3,2.4,5.5,5.5,5.5h193.1c3,0,5.5-2.4,5.5-5.5V60.7
		c0-3-2.4-5.5-5.5-5.5H260.2z"/>
	<rect x="245.4" y="297" class="st1" width="22" height="87.2"/>
	<polygon class="st2" points="263.2,384.2 267.4,384.2 267.4,372.3 258.8,372.3 	"/>
	<rect x="149.1" y="297" class="st1" width="22" height="87.2"/>
	<rect x="167.4" y="297" class="st2" width="100" height="79.9"/>
	<path class="st1" d="M263.8,300.9v21.1H171v-21.1H263.8 M264.1,300.5h-93.5v21.9h93.5L264.1,300.5L264.1,300.5z"/>
	<polygon class="st2" points="171.6,384.2 167.4,384.2 167.4,372.3 175.9,372.3 	"/>
	<path class="st0" d="M215.2,311.5c0,1.2,1,2.2,2.2,2.2c1.2,0,2.2-1,2.2-2.2s-1-2.2-2.2-2.2l0,0
		C216.2,309.3,215.2,310.3,215.2,311.5z"/>
	<path class="st1" d="M263.8,326.4v21.1H171v-21.1H263.8 M264.1,326h-93.5v21.9h93.5L264.1,326L264.1,326z"/>
	<path class="st0" d="M215.2,337c0,1.2,1,2.2,2.2,2.2c1.2,0,2.2-1,2.2-2.2s-1-2.2-2.2-2.2l0,0C216.2,334.8,215.2,335.8,215.2,337z"
		/>
	<path class="st1" d="M263.8,351.8V373H171v-21.2H263.8 M264.1,351.4h-93.5v21.9h93.5L264.1,351.4L264.1,351.4z"/>
	<path class="st0" d="M215.2,362.4c0,1.2,1,2.2,2.2,2.2c1.2,0,2.2-1,2.2-2.2c0-1.2-1-2.2-2.2-2.2
		C216.2,360.2,215.2,361.2,215.2,362.4C215.2,362.4,215.2,362.4,215.2,362.4z"/>
	<rect x="135.6" y="246.3" class="st1" width="22" height="137.9"/>
	<polygon class="st2" points="153.4,384.2 157.6,384.2 157.6,372.3 149.1,372.3 	"/>
	<rect x="53.4" y="246.3" class="st1" width="22" height="137.9"/>
	<rect x="71.8" y="246.3" class="st2" width="85.8" height="130.6"/>
	<path class="st1" d="M153.9,250v29.6H75.5V250H153.9 M154.4,249.6H75V280h79.4L154.4,249.6L154.4,249.6z"/>
	<path class="st1" d="M153.9,283.2v78.4h-37.4v-78.4H153.9 M154.4,282.7h-38.3v79.4h38.3L154.4,282.7L154.4,282.7z"/>
	<path class="st1" d="M112.8,283.2v78.4H75.5v-78.4H112.8 M113.3,282.7H75v79.4h38.3L113.3,282.7L113.3,282.7z"/>
	<polygon class="st2" points="76,384.2 71.8,384.2 71.8,372.3 80.3,372.3 	"/>
	<path class="st0" d="M112.5,264.8c0,1.2,1,2.2,2.2,2.2s2.2-1,2.2-2.2c0-1.2-1-2.2-2.2-2.2c0,0,0,0,0,0
		C113.5,262.6,112.5,263.6,112.5,264.8z"/>
	<path class="st0" d="M120.4,320.5c0,1.2,1,2.2,2.2,2.2c1.2,0,2.2-1,2.2-2.2c0-1.2-1-2.2-2.2-2.2c0,0,0,0,0,0
		C121.4,318.3,120.4,319.3,120.4,320.5C120.4,320.5,120.4,320.5,120.4,320.5z"/>
	<path class="st0" d="M104.6,320.5c0,1.2,1,2.2,2.2,2.2s2.2-1,2.2-2.2c0-1.2-1-2.2-2.2-2.2C105.6,318.3,104.6,319.3,104.6,320.5
		C104.6,320.5,104.6,320.5,104.6,320.5z"/>
	<path class="st1" d="M102.1,207.9h-9.3c0.9,4.5,1.4,9,1.6,13.6c0,5-7.1,24.8,3,24.8s3-19.8,3-24.8
		C100.6,216.9,101.2,212.4,102.1,207.9z"/>
	<path class="st3" d="M66.8,228.1v6c0,6.7,5.4,12.1,12.1,12.1h6c6.7,0,12.1-5.4,12.1-12.1v-6H66.8z"/>
	<path class="st1" d="M195.7,284.3c0,7,7.8,12.7,17.4,12.7h8.6c9.6,0,17.4-5.7,17.4-12.7H195.7z"/>
	<path class="st1" d="M424.6,274c-5.2,4.3-12.5,12.1-19.1,23.1c-4.4,7.3-7.1,15-8.3,25.2c0-11.5,0.1-23.9,0.1-35.5
		c1.3-3,4.4-9.9,6.5-15.4c7.3-18.2,10-22.7,16.5-38.4c8.7-21,17.7-45.9,15.1-43.9c-5.2,4.1-25.2,41.5-27.4,46.9
		c-5.9,14.3-9.5,29.4-10.8,44.8c0-11,0.1-21,0.1-28.8c0.1-25.3,0.6-33.5,0.8-36c0.8-1.3,1.8-2.8,2.3-3.6c4.7-6.8,6.5-12.6,10.9-22.7
		c6.3-14.4,11.7-39.8,10.1-38.6c-6.6,5.4-11.8,16.9-18.6,31.5s-4.9,23.1-6.2,35.6c-0.3,2.5-0.5,11.7-0.7,24.6
		c-1.8-13.7-5.1-22.7-11.1-30.9c-7.4-10.1-14.6-16.9-19.9-20.5s9.1,21.2,16,32c6.1,9.6,11.8,18.1,15,26.5c-0.2,17.4-0.3,39.5-0.3,60
		c-1.6-9.3-4.2-19.4-7.6-27.2c-4.1-9.4-10.5-23.7-15.6-28.6c-1.2-1.2,5.3,26.8,9.5,34.2s7.3,14.4,9.9,18.6c0.6,1,2.6,4.8,3.8,7
		c0,25.1,0.1,47.2,0.4,54.7h1.1c-0.1-1.9-0.1-14.7-0.1-31.6c2.6-9.2,8.6-19.6,13.5-29.2C416.1,297.7,429.9,269.8,424.6,274z"/>
	<polygon class="st4" points="412.4,384.2 381.1,384.2 378.7,353.5 414.8,353.5 	"/>
	<polygon class="st3" points="417.1,357.1 376.4,357.1 375.2,346.7 418.3,346.7 	"/>
	<rect x="68.2" y="75.5" class="st1" width="56" height="61.6"/>
	<rect x="72.4" y="75.5" class="st3" width="57.9" height="61.6"/>
	<rect x="77.3" y="80.3" class="st5" width="48.2" height="51.8"/>
	<rect x="89" y="92.9" class="st3" width="24.8" height="26.7"/>
	<rect x="358" y="82.7" class="st1" width="52.1" height="57.2"/>
	<rect x="361.9" y="82.7" class="st3" width="53.8" height="57.2"/>
	<rect x="366.4" y="87.2" class="st5" width="44.8" height="48.2"/>
	<circle class="st3" cx="388.8" cy="111.3" r="14"/>
	<rect x="140.9" y="112.2" class="st1" width="41.6" height="45.7"/>
	<rect x="144" y="112.2" class="st3" width="42.9" height="45.7"/>
	<rect x="147.6" y="115.8" class="st5" width="35.7" height="38.5"/>
	<polygon class="st3" points="165.5,125.3 155.7,142.2 175.3,142.2 	"/>
</g>
<g id="freepik--Shadow--inject-250">
	<ellipse class="st3" cx="250" cy="416.2" rx="193.9" ry="11.3"/>
</g>
<g id="freepik--character-2--inject-250">
	<path class="st6" d="M349.3,163.4l-9.9-4c0,0-13.1,23.9-16.8,25.1c-5.1,1.6-15.7,6.2-21.9,7c-0.9,1-2.2,4.1-2.1,5.2
		c8.4,2.8,26.9-0.9,30.9-3.9C338.3,186.2,349.3,163.4,349.3,163.4z"/>
	<path class="st7" d="M352.3,158c1.9,6.8-8.2,20.6-8.2,20.6l-13.1-7.4c0,0,2.5-5.6,5.5-11.4C341.3,150.5,350.2,150.2,352.3,158z"/>
	<path class="st8" d="M352.3,158c1.9,6.8-8.2,20.6-8.2,20.6l-13.1-7.4c0,0,2.5-5.6,5.5-11.4C341.3,150.5,350.2,150.2,352.3,158z"/>
	<path class="st8" d="M336.2,174.1l5.2,2.9l0.9-15.9C339.3,163.5,337.2,170.4,336.2,174.1z"/>
	<path class="st7" d="M343.7,152.9c0,0-10.2,22.7-4.3,65.1h40.3c0.6-6.2-1.5-36.3,6.2-65.5c-4.4-0.9-8.9-1.4-13.4-1.7
		c-5.7-0.3-11.4-0.3-17.1,0C351.4,151.2,347.5,151.9,343.7,152.9z"/>
	<path class="st8" d="M343.7,152.9c0,0-10.2,22.7-4.3,65.1h40.3c0.6-6.2-1.5-36.3,6.2-65.5c-4.4-0.9-8.9-1.4-13.4-1.7
		c-5.7-0.3-11.4-0.3-17.1,0C351.4,151.2,347.5,151.9,343.7,152.9z"/>
	<path class="st9" d="M334.3,417.1c-0.1,1.1,15.2,2,34.1,2s34.3-0.9,34.3-2s-15.2-1.9-34.1-1.9S334.4,416.1,334.3,417.1z"/>
	
		<rect x="356.9" y="389.6" transform="matrix(0.9326 -0.361 0.361 0.9326 -119.3858 157.0567)" class="st6" width="7.7" height="17"/>
	<polygon class="st6" points="393,409.5 385.5,409.5 382.8,392 390.3,392 	"/>
	<path class="st10" d="M385,408.6h8.5c0.3,0,0.6,0.2,0.6,0.5l1.1,6.7c0.1,0.6-0.4,1.2-1,1.3c-0.1,0-0.1,0-0.2,0
		c-3,0-4.4-0.2-8.1-0.2c-2.3,0-7,0.2-10.2,0.2s-3.4-3.1-2.1-3.4c5.9-1.3,8.2-3,10.1-4.7C384.1,408.7,384.5,408.6,385,408.6z"/>
	<path class="st10" d="M360,406l8-2.3c0.3-0.1,0.6,0.1,0.8,0.3l3,6c0.3,0.6,0,1.3-0.6,1.5c-0.1,0-0.1,0-0.2,0.1
		c-2.9,0.8-4.9,1.3-8.5,2.4c-2.5,0.7-5.1,1.9-7.5,2.7c-1.7,0.5-5.8,0.6-7.9,0.6c-3.1,0-3.8-3.3-2.5-3.4c3.4-0.4,3.8-0.2,5.6-1.1
		c3-1.3,5.8-3.2,8.1-5.6C358.8,406.6,359.4,406.2,360,406z"/>
	<path class="st6" d="M301.8,191.5l-8.3-3.5l-3.4,9.2c3.4,0.5,6.8,0.5,10.2,0L301.8,191.5z"/>
	<polygon class="st6" points="287.4,187.8 287.2,193.9 290.1,197.2 293.5,188 	"/>
	
		<rect x="356.3" y="391.2" transform="matrix(0.9329 -0.3602 0.3602 0.9329 -118.3092 156.2727)" class="st11" width="7.7" height="8.8"/>
	<polygon class="st11" points="390.3,392 382.8,392 384.2,401 391.7,401 	"/>
	<path class="st8" d="M338.1,206.5c0.1,1.8,0.3,3.7,0.5,5.6l29.9-9.7c4.7-1.4,8.7-4.3,11.5-8.3c0.1-2.7,0.3-5.5,0.5-8.4
		c0.1-1.4,0.2-2.9,0.4-4.4s0.3-3.1,0.5-4.7L338.1,206.5z"/>
	<path class="st5" d="M347.9,173.7l-1-0.1c0.6-5,4.3-8.9,8.3-8.8v1C351.7,165.7,348.4,169.2,347.9,173.7z"/>
	<path class="st5" d="M353.2,182.9h-0.2v-1c3.4,0.1,6.7-3.5,7.2-7.9l1,0.1C360.7,179,357.1,182.9,353.2,182.9z"/>
	<path class="st6" d="M371.9,131.5c-1.4,5.5-3.1,15.6,0.6,19.3c0,0-2.5,5.6-12.8,5.6c-9.4,0-4.3-5.6-4.3-5.6c6.2-1.5,6.3-6,5.5-10.3
		L371.9,131.5z"/>
	<path class="st11" d="M367.4,135.2l-6.5,5.3c0.2,1,0.3,2,0.4,3c1.9,1.9,5.7-2.9,6.1-5.4C367.6,137.1,367.6,136.1,367.4,135.2z"/>
	<path class="st11" d="M349.7,131.4c0.9,1.6,2.5,2.7,4.3,3.1c2.4,0.5,3.6-1.7,2.9-3.9c-0.6-2-2.6-4.7-5-4.2c-1.8,0.4-3,2.1-2.6,3.9
		C349.3,130.8,349.5,131.1,349.7,131.4z"/>
	<path class="st10" d="M353.6,113.8c-3.7,1.7-5.1,16.6-0.4,18.8S360.7,110.6,353.6,113.8z"/>
	<path class="st6" d="M373.1,123.2c-0.9,7.5-1,11.8-5,15.7c-3.7,3.8-9.8,3.9-13.6,0.2c-1.4-1.4-2.4-3.3-2.8-5.3
		c-1.2-6.7,0.5-17.8,7.9-20.7c4.9-2.1,10.6,0.1,12.7,4.9C373.1,119.6,373.3,121.4,373.1,123.2z"/>
	<path class="st10" d="M360.8,117.7c5.5-1.4,9.6-2.4,8.1,2.2c-1.9,6.2-4.3,12.1-1.1,12.4c1.9,0.2,10.3-3.4,9.2-7
		c-0.9-3.1,3-4,3.7-5.6c2.6-5.8-4.8-5-3.5-8.5s-6-9.1-10-6.3c-6.5,4.5-17.7,4.5-11.8-3c4.2-5.3-3.3-4.2-3.3-4.2s4.5,2.7-3.1,6.8
		C340.9,108.9,348.3,120.8,360.8,117.7z"/>
	<path class="st6" d="M376,131.4c-1.1,1.6-2.7,2.7-4.6,3.1c-2.5,0.5-3.4-1.7-2.5-3.9c0.8-2,3.1-4.7,5.5-4.2S377.3,129.5,376,131.4z"
		/>
	<path class="st7" d="M339.4,217.9c0,0-6.8,60.5-7.3,83.5c-0.5,23.9,22.9,98.4,22.9,98.4l12-5c0,0-14-68.1-12-91.5
		c2.1-25.6,10.9-85.3,10.9-85.3L339.4,217.9z"/>
	<path class="st8" d="M356.2,234.6c-5.4,11.2-1.8,33.3,1.2,46.4c1.1-9.3,2.4-19.3,3.7-28.6C360.9,238.1,359.8,227.1,356.2,234.6z"/>
	<path class="st7" d="M366.5,390.8c0.1,0,1.4,3.8,1.4,3.8l-13.8,5.8l-2.2-4.1L366.5,390.8z"/>
	<path class="st7" d="M353.7,217.9c0,0,5.2,57.5,8.6,79.1c3.8,23.6,18.5,102.2,18.5,102.2h13.8c0,0-8.3-76.7-9.8-100.1
		c-1.7-25.4-5.1-81.2-5.1-81.2L353.7,217.9z"/>
	<path class="st7" d="M394.8,395.7c0.1,0,0.5,3.9,0.5,3.9h-15.2l-1.1-4.4L394.8,395.7z"/>
	<path class="st8" d="M389.5,391.1c-0.1,0-0.1,0-0.1-0.1c-0.1-0.7-7.5-70-8.9-91c-1.5-22.8-4.6-73.3-4.6-73.8c0-0.1,0-0.1,0.1-0.1
		c0,0,0,0,0,0l0,0c0.1,0,0.1,0.1,0.1,0.1c0,0.5,3.1,51,4.6,73.8c1.4,21,8.9,90.3,8.9,91C389.6,391.1,389.6,391.1,389.5,391.1
		C389.5,391.1,389.5,391.1,389.5,391.1L389.5,391.1z"/>
	<path class="st10" d="M361.6,125.3c0,0.6-0.4,1.1-0.8,1.1s-0.7-0.5-0.6-1.1s0.4-1.1,0.8-1.1S361.7,124.7,361.6,125.3z"/>
	<path class="st10" d="M354.8,125.3c0,0.6-0.4,1.1-0.8,1.1s-0.7-0.5-0.7-1.1s0.4-1.1,0.8-1.1S354.8,124.7,354.8,125.3z"/>
	<path class="st12" d="M356.9,125.6c-0.8,1.9-1.9,3.6-3.2,5.2c1,1,2.9,0.5,2.9,0.5L356.9,125.6z"/>
	<path class="st10" d="M357.1,133.9c-0.1,0-0.2-0.1-0.2-0.2c0,0,0,0,0,0c0-0.1,0.1-0.2,0.2-0.2c1.5,0,3-0.7,4-1.9
		c0.1-0.1,0.2-0.1,0.3,0c0.1,0.1,0.1,0.2,0,0.3C360.3,133.2,358.8,133.9,357.1,133.9z"/>
	<path class="st10" d="M362.8,123.4c-0.1,0-0.2,0-0.3,0c-0.8-0.5-1.7-0.6-2.5-0.3c-0.2,0.1-0.4,0-0.5-0.2c0,0,0,0,0,0
		c-0.1-0.2,0-0.4,0.2-0.5c1.1-0.4,2.3-0.3,3.2,0.3c0.2,0.1,0.2,0.3,0.1,0.5c0,0,0,0,0,0C363,123.4,362.9,123.4,362.8,123.4z"/>
	<path class="st10" d="M352.1,121.4c-0.1,0-0.1,0-0.1-0.1c-0.1-0.1-0.1-0.4,0-0.5c0,0,0,0,0,0c0.8-0.9,1.9-1.3,3.1-1.2
		c0.2,0,0.3,0.2,0.3,0.4c0,0,0,0,0,0c0,0.2-0.2,0.3-0.4,0.3l0,0c-0.9-0.1-1.8,0.3-2.4,1C352.4,121.4,352.2,121.5,352.1,121.4z"/>
	<path class="st6" d="M389.7,162.3l-10.4-2.8c0,0-10.2,25.1-13.8,26.7c-4.9,2.2-17.3,10-22.6,13.7c-0.3,1.3-0.1,4.6,0.6,5.5
		c9-1.6,26.2-8.3,29.8-11.6C381.6,186.1,389.7,162.3,389.7,162.3z"/>
	<path class="st7" d="M382.5,409.9c-0.5,0-1-0.1-1.4-0.4c-0.3-0.2-0.4-0.6-0.3-0.9c0-0.2,0.1-0.4,0.3-0.5c0.8-0.4,3.2,1.1,3.5,1.2
		c0.1,0,0.1,0.1,0.1,0.2c0,0.1-0.1,0.1-0.1,0.1C383.8,409.8,383.1,409.9,382.5,409.9z M381.5,408.3c-0.1,0-0.2,0-0.2,0
		c-0.1,0-0.1,0.1-0.1,0.2c-0.1,0.2,0,0.5,0.2,0.6c0.4,0.4,1.4,0.4,2.7,0.1C383.2,408.8,382.3,408.5,381.5,408.3L381.5,408.3z"/>
	<path class="st7" d="M384.4,409.6C384.4,409.6,384.4,409.6,384.4,409.6c-0.8-0.4-2.2-2.1-2-2.9c0.1-0.3,0.3-0.5,0.6-0.5
		c0.3,0,0.5,0,0.8,0.2c0.8,0.7,0.9,2.9,0.9,3c0,0.1,0,0.1-0.1,0.2C384.5,409.6,384.4,409.6,384.4,409.6z M383.1,406.6L383.1,406.6
		c-0.3,0-0.3,0.1-0.3,0.2c-0.1,0.5,0.8,1.7,1.5,2.3c0-0.8-0.3-1.7-0.8-2.4C383.4,406.6,383.2,406.6,383.1,406.6L383.1,406.6z"/>
	<path class="st7" d="M355.9,408.6c-0.6,0.2-1.3,0.2-1.9,0c-0.3-0.2-0.5-0.4-0.5-0.8c0-0.2,0.1-0.4,0.2-0.5c0.8-0.7,4.1,0,4.4,0.1
		c0.1,0,0.1,0.1,0.1,0.2c0,0.1,0,0.1-0.1,0.2C357.5,408.2,356.7,408.4,355.9,408.6z M354.3,407.5c-0.1,0-0.2,0.1-0.3,0.1
		c-0.1,0-0.1,0.1-0.1,0.2c0,0.2,0.1,0.4,0.3,0.5c0.5,0.3,1.8,0.1,3.4-0.6C356.5,407.4,355.4,407.4,354.3,407.5z"/>
	<path class="st7" d="M358.2,407.8L358.2,407.8c-1.1-0.2-3.1-1.3-3.1-2.2c0-0.2,0.1-0.5,0.6-0.6c0.3-0.1,0.7-0.1,1,0.1
		c1.1,0.5,1.6,2.5,1.7,2.5C358.3,407.7,358.3,407.7,358.2,407.8C358.2,407.8,358.2,407.8,358.2,407.8z M355.8,405.3h-0.1
		c-0.3,0.1-0.3,0.2-0.3,0.3c0,0.5,1.5,1.5,2.5,1.8c-0.2-0.8-0.7-1.5-1.4-2C356.2,405.3,356,405.3,355.8,405.3L355.8,405.3z"/>
	<path class="st6" d="M343.8,199.4l-10.4,4.8l-1.2,3l3.9,2.6c0,0,7.2-0.8,9.3-5.4L343.8,199.4z"/>
	<path class="st10" d="M344.2,205.6c-0.2-2-0.9-3.9-1.9-5.7l1.6-1.2c1.2,2,2,4.2,2.3,6.6L344.2,205.6z"/>
	<path class="st10" d="M346,200.8c0.6,0.9,0.3,2.2-0.6,2.8s-2.2,0.3-2.8-0.6c-0.6-0.9-0.3-2.2,0.6-2.8c0.1-0.1,0.2-0.1,0.3-0.2
		C344.4,199.6,345.5,199.9,346,200.8z"/>
	<polygon class="st6" points="326.3,208.1 327.7,209.4 337,205.4 333.4,204.2 	"/>
	<path class="st8" d="M366.5,390.8c0.1,0,1.4,3.8,1.4,3.8l-13.8,5.8l-2.2-4.1L366.5,390.8z"/>
	<path class="st8" d="M394.8,395.7c0.1,0,0.5,3.9,0.5,3.9h-15.2l-1.1-4.4L394.8,395.7z"/>
	<path class="st7" d="M392.4,159.4c2.8,8.9-8,21-8,21l-14.9-6.1c1.8-5.1,3.8-10.2,6.1-15.1C380.2,149.5,389.7,150.5,392.4,159.4z"/>
	<path class="st8" d="M392.4,159.4c2.8,8.9-8,21-8,21l-14.9-6.1c1.8-5.1,3.8-10.2,6.1-15.1C380.2,149.5,389.7,150.5,392.4,159.4z"/>
</g>
<g id="freepik--Screen--inject-250">
	<rect x="238.5" y="70.6" class="st7" width="6.4" height="1"/>
	
		<rect x="319.1" y="119.4" transform="matrix(4.501431e-02 -0.999 0.999 4.501431e-02 193.1542 441.9357)" class="st7" width="17.2" height="1"/>
	<polygon class="st7" points="325.6,75.2 207.6,75.2 196.6,320.9 314.6,320.9 	"/>
	<polygon class="st13" points="322.1,78.6 204.1,78.6 193.1,324.3 311.1,324.3 	"/>
	<polygon class="st14" points="318.6,81.9 200.6,81.9 189.6,327.7 307.6,327.7 	"/>
	<polygon class="st5" points="305.1,189.1 204.4,189.1 203.6,207.9 304.3,207.9 	"/>
	<polygon class="st7" points="259.8,175.4 205,175.4 204.7,183.8 259.4,183.8 	"/>
	<polygon class="st5" points="302.9,239.9 202.1,239.9 201.3,258.6 302,258.6 	"/>
	<polygon class="st15" points="284.4,284 216.7,284 215.7,306.6 283.4,306.6 	"/>
	<path class="st5" d="M279.9,310.1h-67.7c0,0-0.1,0-0.1,0c0,0,0-0.1,0-0.1l1-22.5c0-0.1,0-0.1,0.1-0.1c0,0,0,0,0,0h67.7
		c0,0,0.1,0,0.1,0c0,0,0,0.1,0,0.1l-1,22.6C280,310,279.9,310.1,279.9,310.1z M212.3,309.8h67.5l1-22.3h-67.5L212.3,309.8z"/>
	<polygon class="st7" points="248,226.1 202.8,226.1 202.4,234.6 247.6,234.6 	"/>
	<path class="st5" d="M283.1,128.4c-0.3,5.5-2.2,10.7-5.6,15.1c-5,6.6-12.9,10.5-21.2,10.6c-13.4,0.1-24.4-10.7-24.5-24.1
		c0-0.5,0-1,0-1.5c0.7-14.3,12.5-25.5,26.8-25.6c13.4-0.1,24.4,10.6,24.5,24.1C283.2,127.3,283.1,127.9,283.1,128.4z"/>
	<path class="st7" d="M285.5,108.1c-0.1,1.5-0.6,2.9-1.5,4c-1.3,1.8-3.4,2.8-5.6,2.8c-2.1,0-4.2-1-5.4-2.8c-0.8-1.2-1.2-2.6-1.1-4
		c0.2-3.8,3.3-6.8,7.1-6.8c3.6,0,6.5,2.8,6.5,6.4C285.5,107.9,285.5,108,285.5,108.1z"/>
	<path class="st10" d="M215.3,198.5c-0.1,1.7-1.5,3-3.1,3c-1.6,0-2.9-1.2-2.9-2.8c0-0.1,0-0.1,0-0.2c0.1-1.7,1.5-3,3.1-3
		c1.6,0,2.9,1.3,2.9,2.8C215.3,198.4,215.3,198.5,215.3,198.5z"/>
	<path class="st10" d="M228.8,198.5c-0.1,1.7-1.5,3-3.1,3c-1.6,0-2.9-1.3-2.9-2.8c0-0.1,0-0.1,0-0.2c0.1-1.7,1.5-3,3.1-3
		c1.6,0,2.9,1.2,2.9,2.8C228.8,198.4,228.8,198.4,228.8,198.5z"/>
	<path class="st10" d="M242.2,198.5c-0.1,1.7-1.5,3-3.1,3c-1.6,0-2.9-1.3-2.9-2.8c0-0.1,0-0.1,0-0.2c0.1-1.7,1.5-3,3.1-3
		c1.6,0,2.9,1.2,2.9,2.8C242.2,198.4,242.2,198.4,242.2,198.5z"/>
	<path class="st10" d="M213,249.3c-0.1,1.7-1.5,3-3.1,3c-1.6,0-2.9-1.3-2.9-2.8c0-0.1,0-0.1,0-0.2c0.1-1.7,1.5-3,3.1-3
		c1.6,0,2.9,1.3,2.9,2.8C213,249.1,213,249.2,213,249.3z"/>
	<path class="st10" d="M226.5,249.3c-0.1,1.7-1.5,3-3.1,3c-1.6,0-2.9-1.2-2.9-2.8c0-0.1,0-0.1,0-0.2c0.1-1.7,1.5-3,3.1-3
		c1.6,0,2.9,1.3,2.9,2.8C226.5,249.1,226.5,249.2,226.5,249.3z"/>
	<path class="st10" d="M240,249.3c-0.1,1.7-1.5,3-3.1,3c-1.6,0-2.9-1.3-2.9-2.9c0,0,0-0.1,0-0.1c0.1-1.7,1.5-3,3.1-3
		c1.6,0,2.9,1.2,2.9,2.8C240,249.1,240,249.2,240,249.3z"/>
	<path class="st10" d="M253.5,249.3c-0.1,1.7-1.5,3-3.1,3c-1.6,0-2.9-1.3-2.9-2.9c0,0,0-0.1,0-0.1c0.1-1.7,1.5-3,3.1-3
		c1.6,0,2.9,1.3,2.9,2.8C253.5,249.1,253.5,249.2,253.5,249.3z"/>
	<path class="st10" d="M267,249.3c-0.1,1.7-1.5,3-3.1,3c-1.6,0-2.9-1.2-2.9-2.8c0-0.1,0-0.1,0-0.2c0.1-1.7,1.5-3,3.1-3
		c1.6,0,2.9,1.3,2.9,2.8C267,249.1,267,249.2,267,249.3z"/>
	
		<ellipse transform="matrix(0.715 -0.6992 0.6992 0.715 -10.2588 214.4427)" class="st7" cx="257.9" cy="119.8" rx="10.6" ry="10.1"/>
	<path class="st7" d="M277.5,143.4c-5,6.6-12.9,10.5-21.2,10.6c-8.1,0.1-15.7-3.9-20.2-10.6c4.9-4.8,12.6-8,21.1-8
		S273.1,138.6,277.5,143.4z"/>
	
		<ellipse transform="matrix(0.715 -0.6992 0.6992 0.715 -10.2588 214.4427)" class="st16" cx="257.9" cy="119.8" rx="10.6" ry="10.1"/>
	<path class="st16" d="M277.5,143.4c-5,6.6-12.9,10.5-21.2,10.6c-8.1,0.1-15.7-3.9-20.2-10.6c4.9-4.8,12.6-8,21.1-8
		S273.1,138.6,277.5,143.4z"/>
</g>
<g id="freepik--character-1--inject-250">
	<path class="st6" d="M130.4,212.4c-0.9,2.1-1.9,4.4-2.8,6.6s-1.8,4.5-2.5,6.8c-1.6,4.5-2.8,9.1-3.6,13.8l-0.2,1.5
		c0,0.3,0,0.5,0.1,0.8c0.2,0.8,0.6,1.6,1.1,2.3c1.3,1.8,2.8,3.5,4.4,5c1.8,1.6,3.6,3.2,5.5,4.6c1.9,1.5,3.9,2.9,5.9,4.3l-1.9,3.5
		c-4.8-2.1-9.3-4.7-13.4-7.7c-2.2-1.6-4.3-3.5-6-5.7c-1-1.3-1.8-2.7-2.4-4.3c-0.3-1-0.5-2-0.5-3c0-0.2,0-0.6,0-0.8v-0.5l0.1-1
		c0.6-5.2,1.7-10.3,3.3-15.3c0.8-2.5,1.6-4.9,2.6-7.3s1.9-4.7,3.1-7.2L130.4,212.4z"/>
	<path class="st6" d="M136.9,257.4l7.1-3.6l-1.8,7.8c0,0-4.9,1.4-7.1-1L136.9,257.4z"/>
	<polygon class="st6" points="150.4,255.1 148.6,261.5 142.1,261.6 144,253.9 	"/>
	<path class="st12" d="M160.4,175c0.4,1.4,0.9,2.7,1.6,4c-0.4,0.4-1,0.6-1.6,0.5L160.4,175z"/>
	<ellipse class="st10" cx="160.2" cy="173.9" rx="0.8" ry="1.1"/>
	<path class="st10" d="M160,172.8l1.5-0.4C161.5,172.4,160.8,173.6,160,172.8z"/>
	<path class="st6" d="M140.9,182.3c0.9,4.6,1.8,13.2-1.4,16.3c0,0,1.3,4.7,9.9,4.7c9.5,0,4.5-4.7,4.5-4.7c-5.2-1.2-5.1-5.1-4.1-8.7
		L140.9,182.3z"/>
	<path class="st6" d="M138.4,171.7c0.5,7.8,0.5,11.1,4.4,15.1c5.9,6,15.4,3.7,17.2-4c1.7-7,0.6-18.5-7-21.6
		c-5.4-2.2-11.6,0.4-13.9,5.8C138.5,168.5,138.3,170.1,138.4,171.7z"/>
	<path class="st10" d="M139.1,163c-3.9,1.4-9.1,0.4-7.1,12.4c2.2,12.7-1.2,16.9-1.2,16.9s14.8,3.1,29.9-0.2c0,0-4.6-8.1-3.3-14
		c1.6-7.5,0.4-10.3,0.4-10.3S144.6,161,139.1,163z"/>
	<path class="st6" d="M155.6,175.8c0,1.5,0.4,2.9,1.2,4.2c1.1,1.6,2.3,1,2.6-0.7c0.3-1.5,0.1-4.2-1.3-5.2S155.7,174,155.6,175.8z"/>
	<path class="st10" d="M135.8,164.3c-1.1-3.1,4.2-8,15.5-6s11.8,11.4,11.8,11.4l-2.3-2.7l0.1,2.9l-11.6,2.2L135.8,164.3z"/>
	<path class="st17" d="M136.7,199.2L136.7,199.2c-0.1-0.9,0.5-1.8,1.4-2c3.5-0.6,11.5-1.8,15.5-1.2c3,0.4,3.8,2.2,3.9,3.6
		c0.1,1-0.6,1.8-1.6,1.9c-0.1,0-0.2,0-0.2,0l-17.4-0.8C137.5,200.6,136.8,200,136.7,199.2z"/>
	<path class="st18" d="M136.7,199.2L136.7,199.2c-0.1-0.9,0.5-1.8,1.4-2c3.5-0.6,11.5-1.8,15.5-1.2c3,0.4,3.8,2.2,3.9,3.6
		c0.1,1-0.6,1.8-1.6,1.9c-0.1,0-0.2,0-0.2,0l-17.4-0.8C137.5,200.6,136.8,200,136.7,199.2z"/>
	<polygon class="st6" points="146.8,373.9 153.2,378.3 164,363.7 157.6,359.2 	"/>
	<polygon class="st6" points="131.7,373.6 138.5,377.5 148.1,362 141.3,358.1 	"/>
	<polygon class="st11" points="164,363.7 158.4,371.3 152,366.8 157.5,359.2 	"/>
	<polygon class="st11" points="141.3,358.1 148.1,362 143.2,370 136.3,366.1 	"/>
	<path class="st7" d="M152.2,248c0,0,25.2,31.7,20.4,62.1c-3.8,24.5-25.9,57.7-25.9,57.7l-10.4-5.2c7.3-14.7,13.6-29.9,18.7-45.4
		c3.2-9.8,1.7-20.5-4-29.1c-12.8-18.6-33.2-7.5-19.4-40.1L152.2,248z"/>
	<path class="st18" d="M152.2,248c0,0,25.2,31.7,20.4,62.1c-3.8,24.5-25.9,57.7-25.9,57.7l-10.4-5.2c7.3-14.7,13.6-29.9,18.7-45.4
		c3.2-9.8,1.7-20.5-4-29.1c-12.8-18.6-33.2-7.5-19.4-40.1L152.2,248z"/>
	<path class="st19" d="M164.6,268.4l-3.7-3.6c0,0.3,7.1,44.1,9.1,56.4c1.2-3.6,2.1-7.3,2.7-11C175,295.2,170.1,280,164.6,268.4z"/>
	<path class="st7" d="M163.4,248c0,0,30.3,39.9,31.2,63.8c0.7,20-33,58.8-33,58.8l-9.8-6.3c0,0,19.7-27.5,24.7-50
		C174.6,291.9,134,248,134,248H163.4z"/>
	<path class="st18" d="M163.4,248c0,0,30.3,39.9,31.2,63.8c0.7,20-33,58.8-33,58.8l-9.8-6.3c0,0,19.7-27.5,24.7-50
		C174.6,291.9,134,248,134,248H163.4z"/>
	<path class="st7" d="M125.9,200.4c-3.2,0.8-6.3,12.6-6.3,12.6l12.7,8.5c0,0,4.2-9.3,2.7-13.4C133.5,203.8,130,199.4,125.9,200.4z"
		/>
	<path class="st8" d="M128.4,208l-0.9,10.3l4.7,3.2c1.3-2.9,2.3-6,2.9-9.1L128.4,208z"/>
	<path class="st7" d="M167.2,200.6c0,0,3.7,1.3-3.8,47.3h-31.9c0.5-13,0.6-21-5.7-47.6c4.5-0.9,9-1.5,13.5-1.8
		c4.8-0.3,9.7-0.3,14.5,0C160.1,199.2,167.2,200.6,167.2,200.6z"/>
	<path class="st6" d="M170.4,208c0.7,2,1.5,4.1,2.3,6.2s1.6,4.2,2.4,6.3l2.4,6.3l0.6,1.6l0.3,0.8l0.1,0.4c0,0.1,0,0.1,0,0.1
		c-0.2-0.3-0.4-0.5-0.7-0.6c-0.4-0.2-0.8-0.4-1.3-0.4c-0.4,0-0.8,0.1-1.1,0.2c-0.5,0.2-0.5,0.3-0.4,0.3c0.1-0.1,0.2-0.1,0.2-0.2
		c0.6-0.7,1-1.5,1.4-2.3c0.5-0.9,0.9-1.9,1.4-2.9c0.9-2,1.7-4.1,2.5-6.2s1.6-4.2,2.3-6.3l2.3-6.4l3.9,1c-0.8,4.6-1.7,9-2.9,13.5
		c-0.6,2.3-1.2,4.5-2,6.7c-0.4,1.1-0.8,2.3-1.3,3.4c-0.5,1.2-1.1,2.4-1.8,3.6c-0.3,0.4-0.6,0.7-0.9,1.1c-0.5,0.6-1.1,1-1.8,1.3
		c-0.6,0.3-1.3,0.4-1.9,0.4c-0.7,0-1.5-0.2-2.1-0.6c-0.8-0.5-1.4-1.1-1.8-1.9c-0.1-0.3-0.3-0.5-0.4-0.7l-0.2-0.4l-0.4-0.8l-0.8-1.6
		c-1-2.1-2-4.2-2.9-6.3s-1.8-4.3-2.6-6.4s-1.6-4.3-2.4-6.6L170.4,208z"/>
	<path class="st7" d="M167.2,200.6c3.8,0.9,8.1,12.2,8.1,12.2l-11.4,9.7c0,0-7.4-12.3-5.9-16.4C159.6,201.9,162.2,199.4,167.2,200.6
		z"/>
	<path class="st6" d="M187,201.2l4-3.3l2.8,4.3l-2.1,3.6c0,0-3.3,3-6.1,1.5l0,0C184.7,205.1,185.2,202.7,187,201.2z"/>
	<polygon class="st6" points="198.2,197.9 197.9,198.9 191.6,200 191,197.9 	"/>
	<polygon class="st7" points="162.4,371 151,363.7 153,360.1 165.9,368 	"/>
	<path class="st10" d="M143,376.9c-1-0.1-2-0.5-2.8-1c-0.1,0-0.1-0.1-0.1-0.2c0-0.1,0.1-0.1,0.1-0.1c0.3-0.1,3-0.9,3.8-0.3
		c0.2,0.1,0.3,0.4,0.2,0.6c0,0.4-0.2,0.7-0.6,0.9C143.4,376.9,143.2,376.9,143,376.9z M140.8,375.8c1.3,0.6,2.3,0.9,2.7,0.6
		c0.2-0.1,0.3-0.3,0.4-0.6c0-0.2,0-0.2-0.1-0.3C143.3,375.3,141.8,375.5,140.8,375.8L140.8,375.8z"/>
	<path class="st10" d="M140.3,376c-0.1,0-0.1,0-0.1-0.1c0-0.1,0-0.1,0-0.2c0-0.1,0.6-2.3,1.7-2.8c0.3-0.1,0.6-0.1,0.8,0
		c0.3,0.1,0.5,0.4,0.5,0.7C143,374.6,141.2,375.8,140.3,376L140.3,376z M142.2,373.3c-0.1,0-0.2,0-0.3,0.1c-0.6,0.3-1.1,1.5-1.4,2.2
		c0.9-0.4,2.1-1.4,2.1-1.9c0-0.1,0-0.2-0.2-0.3C142.4,373.3,142.3,373.3,142.2,373.3L142.2,373.3z"/>
	<path class="st10" d="M157.3,381.3c-1.1,0-2.7-1.5-3.6-2.3c0-0.1,0-0.1,0-0.2c0-0.1,0.1-0.1,0.2-0.1c0.4,0,3.9,0.5,4.4,1.5
		c0.1,0.2,0.1,0.4,0,0.6c-0.1,0.3-0.4,0.5-0.8,0.6L157.3,381.3z M154.4,379c1.3,1.2,2.4,1.9,3,1.8c0.2,0,0.4-0.2,0.5-0.4
		c0-0.1,0-0.2,0-0.2C157.6,379.7,155.8,379.3,154.4,379L154.4,379z"/>
	<path class="st10" d="M154.5,379c-0.2,0-0.4,0-0.7,0c-0.1,0-0.1-0.1-0.1-0.1c0-0.1,0-0.1,0-0.2c0.1-0.1,1.4-1.7,2.7-1.8
		c0.4,0,0.7,0.1,1,0.3c0.4,0.3,0.4,0.6,0.3,0.8C157.4,378.7,155.6,379,154.5,379z M154.2,378.6c1.1,0.1,2.9-0.3,3.1-0.8
		c0,0,0.1-0.2-0.2-0.4c-0.2-0.2-0.5-0.3-0.8-0.2C155.6,377.5,154.8,377.9,154.2,378.6L154.2,378.6z"/>
	<path class="st7" d="M140.5,374.9l-8.5-2.4c-0.3-0.1-0.6,0.1-0.8,0.4l-2.9,6.4c-0.3,0.6,0,1.4,0.7,1.6c0,0,0.1,0,0.1,0
		c3,0.8,4.4,1,8.2,2.1c2.3,0.6,5.6,1.8,8.8,2.7s4.2-2.2,3-2.9c-5.6-2.9-6-5-7.5-7.2C141.4,375.3,141,375.1,140.5,374.9z"/>
	<path class="st7" d="M153.9,377.7l-7.2-5c-0.3-0.2-0.6-0.2-0.8,0.1l-4.8,5.2c-0.5,0.5-0.4,1.3,0.1,1.8c0,0,0.1,0.1,0.1,0.1
		c2.6,1.7,3.9,2.4,7.1,4.6c2,1.4,5.9,4.4,8.6,6.3s4.7-0.7,3.8-1.7c-4.3-4.6-5.2-7.5-5.9-10.1C154.6,378.4,154.3,378,153.9,377.7z"/>
	<polygon class="st7" points="148.1,368.4 135,362 136.4,358.4 150.3,365.3 	"/>
	<path class="st17" d="M131.1,246.1L130,249c-0.1,0.2,0.1,0.4,0.5,0.4h33.1c0.3,0,0.5-0.1,0.6-0.3l0.3-2.9c0-0.2-0.2-0.4-0.5-0.4
		h-32.3C131.4,245.9,131.2,246,131.1,246.1z"/>
	<path class="st20" d="M131.1,246.1L130,249c-0.1,0.2,0.1,0.4,0.5,0.4h33.1c0.3,0,0.5-0.1,0.6-0.3l0.3-2.9c0-0.2-0.2-0.4-0.5-0.4
		h-32.3C131.4,245.9,131.2,246,131.1,246.1z"/>
	<path class="st7" d="M136.3,249.7h-0.9c-0.2,0-0.3-0.1-0.3-0.2l0.4-3.7c0-0.1,0.2-0.2,0.3-0.2h0.9c0.2,0,0.3,0.1,0.3,0.2l-0.4,3.7
		C136.6,249.6,136.5,249.7,136.3,249.7z"/>
	<path class="st7" d="M156.7,249.7h-0.9c-0.2,0-0.3-0.1-0.3-0.2l0.4-3.7c0-0.1,0.2-0.2,0.3-0.2h0.9c0.2,0,0.3,0.1,0.3,0.2l-0.4,3.7
		C157,249.6,156.9,249.7,156.7,249.7z"/>
	<ellipse class="st3" cx="135.6" cy="417.1" rx="26.8" ry="1.9"/>
	<path class="st1" d="M151.9,414.4c-4.7-1.4-10-3.1-13.2-5c-0.1-0.1-0.2-0.1-0.3-0.1v-21.5h9.6c1.6-0.1,2.8-1.4,2.7-3
		c-0.1-1.4-1.2-2.6-2.7-2.7h-9.5v-97.8h-5.8v97.8h-9.5c-1.6-0.1-2.9,1.1-3,2.7s1.1,2.9,2.7,3c0.1,0,0.2,0,0.3,0h9.5v21.4
		c-0.1,0-0.2,0.1-0.3,0.1c-3.2,1.9-8.4,3.6-13.2,5c-0.7,0.2-1.2,1-0.9,1.7c0.2,0.6,0.7,1,1.3,1h31.9c0.8-0.1,1.4-0.7,1.3-1.5
		C152.7,415.1,152.4,414.6,151.9,414.4z"/>
	<path class="st7" d="M117.8,274.3h35.6c2.9,0,5.2,2.3,5.2,5.2v10.6c0,2.9-2.3,5.2-5.2,5.2h-35.6c-2.9,0-5.2-2.3-5.2-5.2v-10.6
		C112.6,276.6,114.9,274.3,117.8,274.3z"/>
	<path class="st17" d="M117.4,295.3v1.8c0,1.5,1.6,2.7,3.6,2.7h29c2,0,3.6-1.2,3.6-2.7v-1.8H117.4z"/>
	<path class="st21" d="M117.4,295.3v1.8c0,1.5,1.6,2.7,3.6,2.7h29c2,0,3.6-1.2,3.6-2.7v-1.8H117.4z"/>
</g>
</svg>
