<?xml version="1.0" encoding="utf-8"?>
<!-- Generator: Adobe Illustrator 24.1.1, SVG Export Plug-In . SVG Version: 6.00 Build 0)  -->
<svg version="1.1" id="Layer_1" xmlns="http://www.w3.org/2000/svg" xmlns:xlink="http://www.w3.org/1999/xlink" x="0px" y="0px"
	 viewBox="0 0 500 500" style="enable-background:new 0 0 500 500;" xml:space="preserve">
<style type="text/css">
	.st0{fill:#F5F5F5;}
	.st1{fill:#E0E0E0;}
	.st2{fill:#EBEBEB;}
	.st3{fill:#263238;}
	.st4{fill:#368BA9;}
	.st5{opacity:0.3;}
	.st6{fill:#E6EBEE;}
	.st7{opacity:0.1;enable-background:new    ;}
	.st8{opacity:0.3;enable-background:new    ;}
	.st9{opacity:0.4;}
	.st10{fill:#FFBE9D;}
	.st11{fill:#FFFFFF;}
	.st12{fill:#EB996E;}
	.st13{fill:#455A64;}
	.st14{fill:#FF725E;}
	.st15{fill:#FAFAFA;}
</style>
<g id="freepik--background-complete--inject-5">
	<path class="st0" d="M278.4,462.1c-17.2-8.2-24.1-27.6-26.5-45.6c-0.4-3-1.3-6.1-0.3-9s4-5.2,6.9-4.4c2.4,0.7,3.8,3.1,5.4,5
		c2.1,2.6,5,4.5,8.2,5.5c2.1,0.7,4.5,0.9,6.3-0.5c2.3-1.9,2-5.5,1.5-8.5c-1-5.5-1.9-11.1-2.9-16.6c-0.7-2.9-0.9-6-0.6-9
		c0.4-3,2-6,4.8-7.2s6.5-0.2,7.6,2.6c0.3,1.2,0.6,2.4,0.7,3.7c0.3,1.2,1.1,2.5,2.3,2.6s2.3-0.9,3-1.9c2.6-3.5,4-7.8,5.3-12
		s2.5-8.5,4.8-12.2s5.7-7,9.9-8s9.2,0.9,11,4.9s0.1,8.7-2,12.6c-3.1,5.7-7.1,10.9-11.7,15.5c-0.9,0.7-1.6,1.7-1.9,2.9
		c-0.3,2.1,1.9,3.8,4,4.1c2.3,0.4,4.7-0.3,7.1-0.4s5.1,0.5,6.3,2.5c1.7,2.8-0.3,6.5-2.4,9c-4.3,5-9.5,9.3-15.2,12.6
		c-2.1,1.2-4.3,2.3-5.8,4.1s-2.1,4.7-0.7,6.6s4.3,2.1,6.5,1.3s4.1-2.4,6.1-3.6c3.8-2.2,9.2-2.9,12.4,0.2c2,2.2,2.9,5.2,2.4,8.2
		c-0.5,2.9-1.6,5.7-3.3,8.1c-5.2,8.9-12.6,16.3-21.6,21.4C297.1,461.5,288.5,463.9,278.4,462.1"/>
	<path class="st1" d="M281.2,450c1.3-10.3,3.2-20.5,5.7-30.6l1.9-7.9c0.6-2.6,1.3-5.2,2-7.7c1.5-4.8,3.3-9.4,5.3-14
		c1.9-4.4,3.8-8.5,5.7-12.3s3.7-7.3,5.4-10.5c2.8-5,5.9-9.7,9.5-14.2c1.3-1.6,2.3-2.8,3-3.6c0.3-0.4,0.6-0.7,0.8-0.9
		s0.3-0.3,0.3-0.3c-0.1,0.1-0.2,0.2-0.2,0.3l-0.8,0.9c-0.7,0.8-1.6,2-2.9,3.6c-3.5,4.5-6.6,9.3-9.3,14.2c-1.8,3.1-3.5,6.7-5.4,10.5
		s-3.8,7.9-5.6,12.3c-2,4.6-3.7,9.2-5.2,14c-0.8,2.5-1.4,5-2,7.6l-1.9,7.9c-2.5,10.1-4.4,20.2-5.8,30.5"/>
	<path class="st1" d="M291,403.8c-0.2-0.4-0.4-0.8-0.5-1.2c-0.3-0.8-0.7-2-1.1-3.4c-0.9-2.9-2.1-7-3.3-11.4s-2.4-8.5-3.4-11.4
		c-0.5-1.4-0.9-2.6-1.2-3.4c-0.2-0.4-0.3-0.8-0.4-1.3c0.2,0.4,0.4,0.8,0.6,1.2c0.4,0.8,0.8,1.9,1.3,3.3c1.1,2.9,2.3,6.9,3.6,11.4
		s2.3,8.4,3.1,11.4c0.4,1.4,0.7,2.5,1,3.5C290.9,402.9,290.9,403.4,291,403.8z"/>
	<path class="st1" d="M328.1,390.1c-0.5,0.2-1,0.4-1.5,0.5c-1,0.3-2.4,0.6-4.1,1.1c-3.5,1-8.2,2.5-13.3,4.4s-9.7,3.8-13,5.3
		c-1.6,0.7-3,1.4-3.9,1.8c-0.5,0.2-0.9,0.5-1.4,0.6c0.4-0.3,0.9-0.6,1.3-0.8c0.9-0.5,2.2-1.2,3.8-2c3.2-1.6,7.8-3.6,12.9-5.5
		c4.4-1.6,8.9-3.1,13.4-4.2c1.7-0.5,3.2-0.8,4.1-1C327.1,390.2,327.6,390.1,328.1,390.1z"/>
	<path class="st1" d="M281.5,449.2c-0.1-0.1-0.2-0.3-0.3-0.4l-0.9-1.3c-0.8-1.1-1.8-2.8-3.1-4.8c-2.6-4.1-6-9.8-9.7-16.2
		s-7-12.2-9.5-16.3l-3-4.9l-0.8-1.3c-0.1-0.1-0.2-0.3-0.3-0.5c0,0,0.1,0.1,0.3,0.4s0.5,0.8,0.9,1.3c0.8,1.1,1.8,2.7,3.1,4.8
		c2.6,4.1,6,9.8,9.7,16.2s7,12.2,9.5,16.3l3,4.9c0.3,0.5,0.6,1,0.8,1.3C281.4,448.9,281.5,449.1,281.5,449.2z"/>
	<path class="st1" d="M329.7,424.2c-0.1,0.1-0.3,0.2-0.5,0.3l-1.4,0.7l-5.2,2.7c-4.4,2.3-10.3,5.5-16.9,9s-12.6,6.7-17,8.9
		c-2.2,1.1-4,2-5.2,2.5L282,449c-0.2,0.1-0.3,0.2-0.5,0.2c0.1-0.1,0.3-0.2,0.5-0.3l1.4-0.7l5.2-2.7c4.4-2.3,10.3-5.5,16.9-9
		s12.6-6.7,17-8.9c2.2-1.1,4-2,5.2-2.5l1.4-0.7C329.3,424.3,329.5,424.2,329.7,424.2z"/>
	<path class="st2" d="M153.4,247.4c0,0-11.9,1.6-5.2,27.7s12.3,39.4,12.3,39.4s0.9,5.9-3.9,5.7s-14.4-4-17.7,1.1
		c-3.4,5.3-0.4,11.7,7,18.4s23.2,22,24.7,23.4s2.5,4.3-0.8,4.6s-26.4-2.3-27,8.7s23.2,26.3,25.8,28s3,3.1,2.4,4.6s-8.3-0.1-14.9-0.7
		s-14.4,0.1-14.2,6.5s12.7,22.6,49.2,34.6l17.3,4.5l12.8-12.6c25.7-28.6,28.5-48.9,25.5-54.5s-10-2.3-15.5,1.4s-11.3,9-12.6,8
		s-1.6-2.4-0.2-5.1s14.5-27.9,8.4-37.1s-24.8,4.5-27.8,5.8s-3.5-1.8-3-3.6s6.6-23,9.8-32.5s2.5-16.6-3.1-19.5
		c-5.4-2.8-11.9,5.4-15.9,7.9s-6.2-3-6.2-3s-1.8-14.5-8.9-40.4s-18.5-21.3-18.5-21.3"/>
	<path class="st1" d="M208.4,458.4c-5.2-19-13.8-53-21.4-82.2s-14.4-55.5-19.5-74.6c-2.5-9.5-4.6-17.2-6-22.6
		c-0.7-2.6-1.3-4.7-1.6-6.1l-0.4-1.6c-0.1-0.4-0.1-0.5-0.1-0.5s0.1,0.2,0.2,0.5s0.3,0.9,0.5,1.6c0.4,1.4,1,3.5,1.7,6.1
		c1.5,5.3,3.6,13,6.2,22.5c5.2,19,12.1,45.4,19.6,74.5s16.1,63.2,21.2,82.2"/>
	<path class="st1" d="M152.3,327.3c0.4,0.2,0.8,0.4,1.1,0.6c0.7,0.4,1.7,1.1,3,1.9c2.5,1.6,5.9,3.9,9.6,6.5l9.4,6.7l2.9,2
		c0.4,0.2,0.7,0.5,1,0.8c-0.4-0.2-0.8-0.4-1.1-0.6c-0.7-0.4-1.7-1.1-3-1.9c-2.5-1.6-5.8-4-9.5-6.6l-9.5-6.6l-2.9-2
		C152.9,327.8,152.6,327.6,152.3,327.3z"/>
	<path class="st1" d="M180.7,344.9c-0.1-0.1,4.3-7.3,9.9-16.1s10.3-15.9,10.4-15.8s-4.3,7.3-9.9,16.1S180.9,345,180.7,344.9z"/>
	<path class="st1" d="M190.3,390.2c0.3-0.3,0.6-0.7,0.9-0.9l2.7-2.4c2.3-2,5.4-4.8,8.7-7.9s6.3-6.1,8.4-8.3c1-1,1.8-1.9,2.5-2.6
		c0.3-0.3,0.6-0.6,1-0.9c-0.2,0.4-0.5,0.7-0.8,1c-0.5,0.6-1.4,1.6-2.4,2.7c-2,2.3-4.9,5.3-8.3,8.5s-6.5,5.9-8.9,7.8
		c-1.2,1-2.1,1.7-2.8,2.2C191.1,389.8,190.7,390,190.3,390.2z"/>
	<path class="st1" d="M161.1,379.9c0.4,0,0.8,0.1,1.2,0.3l3.2,1c2.7,0.9,6.3,2.1,10.4,3.4s7.7,2.6,10.3,3.6l3.1,1.1
		c0.4,0.1,0.8,0.3,1.1,0.5c-0.4,0-0.8-0.1-1.2-0.3l-3.2-1c-2.7-0.9-6.3-2.1-10.4-3.4s-7.7-2.6-10.3-3.6l-3.1-1.1
		C161.8,380.3,161.4,380.1,161.1,379.9z"/>
	<path class="st1" d="M164.4,420.9c0.5,0.1,1,0.2,1.5,0.4l4.1,1.2c3.4,1.1,8.1,2.6,13.3,4.3s9.9,3.3,13.3,4.4l4,1.4
		c0.5,0.2,1,0.4,1.4,0.6c-0.5-0.1-1-0.2-1.5-0.4l-4.1-1.2c-3.4-1.1-8.1-2.6-13.3-4.3s-9.9-3.3-13.3-4.4l-4-1.4
		C165.4,421.4,164.9,421.2,164.4,420.9z"/>
	<path class="st1" d="M201.2,432.7c0.4-0.4,0.7-0.8,1.2-1.2l3.3-3.1c2.8-2.6,6.6-6.3,10.8-10.4s7.8-8,10.4-10.8l3.1-3.3
		c0.4-0.4,0.8-0.8,1.2-1.2c-0.3,0.5-0.6,0.9-1,1.3c-0.7,0.8-1.7,2-3,3.4c-2.6,2.9-6.1,6.8-10.3,10.9s-8,7.8-10.9,10.3
		c-1.4,1.3-2.6,2.3-3.4,3C202.1,432.1,201.7,432.4,201.2,432.7z"/>
	<path class="st0" d="M101.8,92.2l-9.8-3c0,0-2.6,8.2-11.1,5.7c-3.4-0.9-5.8-3.9-6.1-7.4c-0.3-2.9,0.9-5.8,3.2-7.7
		c2.5-2.2,6.9-3.6,13.1-0.4l6.9-22l-9.7-3l-4,12.9c0,0-14.6-0.7-19.3,14.2c-4.5,14.3,7.3,21.6,12.8,23.3
		C82,106.1,96.6,109.5,101.8,92.2z"/>
	
		<rect x="91.2" y="41.7" transform="matrix(0.2979 -0.9546 0.9546 0.2979 22.7211 124.4645)" class="st0" width="9.6" height="10.3"/>
	<path class="st2" d="M128.7,67.4l3.9-1c-0.5-1.8,0.6-3.7,2.4-4.2c0,0,0.1,0,0.1,0c1.3-0.4,2.8,0.1,3.6,1.2c0.7,0.9,0.9,2.1,0.6,3.2
		c-0.4,1.3-1.6,2.7-4.3,2.9l2.3,8.8l3.9-1l-1.4-5.2c3-1.8,4.4-5.4,3.5-8.8c-1.5-5.7-7-5.7-9.2-5.1C132.4,58.6,126.8,60.5,128.7,67.4
		z"/>
	<rect x="139" y="79" transform="matrix(0.9659 -0.2589 0.2589 0.9659 -16.1481 39.2849)" class="st2" width="4.1" height="3.8"/>
	<path class="st2" d="M451.5,168.6l3.8,1.4c0.7-1.8,2.6-2.7,4.4-2c0,0,0.1,0,0.1,0c1.3,0.4,2.2,1.6,2.3,3c0,1.2-0.5,2.3-1.4,3
		c-1,0.8-2.8,1.3-5.2-0.1l-3.1,8.6l3.8,1.4l1.8-5c3.5,0.2,6.7-1.9,7.9-5.3c2-5.6-2.5-8.6-4.6-9.4
		C459.6,163.5,453.9,161.9,451.5,168.6z"/>
	
		<rect x="451.2" y="184.6" transform="matrix(0.3405 -0.9402 0.9402 0.3405 123.2936 549.0629)" class="st2" width="3.8" height="4.1"/>
	<path class="st0" d="M48.3,212.1l8-3.1c0,0-2.6-6.8,4.4-9.6c2.7-1.2,5.9-0.5,7.9,1.7c1.7,1.8,2.4,4.3,1.9,6.7
		c-0.5,2.8-2.7,6-8.5,7.1l7,18.1l8-3.1l-4.1-10.6c0,0,10-7.2,5.3-19.5c-4.6-11.8-16.2-10.4-20.7-8.7C54.1,192.6,42.6,198,48.3,212.1
		z"/>
	
		<rect x="71.6" y="235.1" transform="matrix(0.9331 -0.3595 0.3595 0.9331 -80.8849 43.2772)" class="st0" width="8.7" height="8.1"/>
	<path class="st0" d="M454.7,242.6l-5.7,2.2c0,0,1.8,4.8-3.1,6.8c-1.9,0.8-4.2,0.3-5.6-1.2c-1.2-1.3-1.7-3.1-1.4-4.8
		c0.4-2,1.9-4.2,6-5l-4.9-12.9l-5.6,2.2l2.9,7.5c-4.2,3.2-5.8,8.9-3.8,13.8c3.2,8.3,11.4,7.4,14.6,6.2
		C450.5,256.5,458.6,252.6,454.7,242.6z"/>
	
		<rect x="432" y="220.7" transform="matrix(0.9331 -0.3595 0.3595 0.9331 -51.2716 171.3581)" class="st0" width="6.1" height="5.7"/>
</g>
<g id="freepik--Floor--inject-5">
	<path class="st3" d="M470.8,463.8c0,0.1-98.9,0.3-220.8,0.3s-220.8-0.1-220.8-0.3s98.8-0.3,220.8-0.3S470.8,463.6,470.8,463.8z"/>
</g>
<g id="freepik--Plant--inject-5">
	<path class="st4" d="M92.6,437.8c1-3.7-1.5-7.4-4.2-10s-5.9-5-7.3-8.6c-2.3-5.7,0.8-13.1-3.1-17.9c-2.3-2.8-6.4-3.7-8.4-6.7
		c-0.9-1.7-1.6-3.5-1.8-5.4c-2.2-9.5-6.8-18.2-13.5-25.3c-0.5,8.5,1.4,16.9,5.3,24.4c1.6,3,3.5,5.9,4,9.3c0.9,5.4-2.2,11-0.8,16.4
		c1.5,6.1,8.4,10.2,8.7,16.5c0.3,5.3-4.3,10-4,15.3c0.3,2.3,1.1,4.4,2.4,6.3c4.1,6.8,10.1,11.5,19.3,11.4l11.2,0.4L92.6,437.8z"/>
	<g class="st5">
		<path d="M92.6,437.8c1-3.7-1.5-7.4-4.2-10s-5.9-5-7.3-8.6c-2.3-5.7,0.8-13.1-3.1-17.9c-2.3-2.8-6.4-3.7-8.4-6.7
			c-0.9-1.7-1.6-3.5-1.8-5.4c-2.2-9.5-6.8-18.2-13.5-25.3c-0.5,8.5,1.4,16.9,5.3,24.4c1.6,3,3.5,5.9,4,9.3c0.9,5.4-2.2,11-0.8,16.4
			c1.5,6.1,8.4,10.2,8.7,16.5c0.3,5.3-4.3,10-4,15.3c0.3,2.3,1.1,4.4,2.4,6.3c4.1,6.8,10.1,11.5,19.3,11.4l11.2,0.4L92.6,437.8z"/>
	</g>
	<path class="st3" d="M102.5,464c1,0.2,2.1,0.1,3.1-0.1c1.2-0.2,2.5-0.5,3.6-0.9c1.6-0.6,3.1-1.4,4.5-2.5c0.8-0.7,1.5-1.5,1.8-2.5
		c0.3-1.1,0.5-2.2,0.5-3.3c0-1.2,0.1-2.4,0.3-3.6c0.2-1.3,0.7-2.5,1.4-3.6c1.3-2.3,3.5-4.5,4.2-7.7s0.2-6.5-0.3-9.8s-1-7,0.3-10.5
		s3.7-6.7,4.9-10.6s0.7-8.3,0.9-12.5c0.1-2.1,0.6-4.3,1.5-6.2c0.9-2,2.2-3.9,3.1-5.9c2-4.2,2.3-9,2.9-13.7c0.3-2.4,0.5-4.8,0.8-7.1
		c0.2-2.4,0.6-4.8,1.3-7.2c0.8-2.4,1.7-4.7,2.7-6.9c0.5-1.2,1-2.4,1.3-3.6c0.2-1.3,0.3-2.6,0.4-3.9c0.1-2.6,0-5.2-0.3-7.8
		c-0.3-2.6-0.8-5.1-1.1-7.7c0-0.2,0-0.3,0-0.5l-0.1-0.5l-0.4,0.2c-2.4,1.2-4.4,3-6,5.1c-1.6,2.1-2.8,4.4-3.7,6.8
		c-1.9,4.8-2.5,9.9-3.5,14.7s-2.1,9.5-4.6,13.5c-1.2,2-2.7,3.8-4,5.8c-1.4,1.9-2.3,4.1-2.8,6.4c-0.7,4.7,1.9,8.9,1.4,13.1
		c-0.2,2.1-0.9,4-2,5.8c-1,1.8-2.2,3.5-3.3,5.1c-1.2,1.6-2.2,3.4-3,5.2c-0.8,1.8-1.3,3.7-1.4,5.6c-0.3,3.8,0.3,7.4,0,10.7
		c-0.3,3.2-1.3,6.4-2.8,9.2c-1.3,2.8-2.9,5.2-4.1,7.7c-0.6,1.2-1.2,2.4-1.7,3.6c-0.5,1.1-0.8,2.3-1,3.5c-0.3,2.1-0.4,4.3-0.1,6.4
		c0.3,3,1.4,5.8,3.2,8.1c0.3,0.4,0.6,0.7,0.9,1c0.2,0.2,0.5,0.4,0.7,0.6c0.4,0.3,0.6,0.5,0.6,0.5c-0.8-0.6-1.5-1.3-2.2-2.1
		c-1.7-2.4-2.8-5.2-3-8.1c-0.3-2.1-0.2-4.2,0.1-6.3c0.2-1.2,0.5-2.3,1-3.5c0.5-1.2,1.1-2.4,1.7-3.5c1.3-2.4,2.8-4.9,4.2-7.6
		c1.6-2.9,2.5-6.1,2.9-9.4c0.3-3.5-0.2-7,0.1-10.7c0.1-1.9,0.6-3.7,1.3-5.4c0.8-1.8,1.8-3.5,3-5.1c1.1-1.7,2.3-3.3,3.4-5.1
		c1.1-1.8,1.9-3.9,2.1-6c0.5-4.5-2.1-8.6-1.4-13.1c0.4-2.2,1.4-4.3,2.7-6.1c1.3-1.9,2.8-3.7,4-5.8c2.6-4.1,3.8-8.9,4.7-13.8
		c0.9-4.8,1.6-9.8,3.5-14.5c0.9-2.4,2.1-4.6,3.6-6.6c1.5-2,3.5-3.7,5.8-4.9l-0.5-0.3c0,0.1,0,0.3,0.1,0.5c0.3,2.6,0.8,5.2,1,7.7
		c0.3,2.5,0.4,5.1,0.3,7.6c-0.1,1.3-0.2,2.5-0.3,3.7c-0.3,1.2-0.7,2.4-1.3,3.5c-1,2.3-1.9,4.6-2.7,7c-0.7,2.4-1.1,4.8-1.3,7.3
		c-0.3,2.4-0.5,4.8-0.8,7.2c-0.5,4.7-0.9,9.4-2.8,13.5c-1,2-2.2,3.9-3.1,6c-0.9,2-1.4,4.2-1.5,6.5c-0.3,4.3,0.3,8.5-0.9,12.4
		s-3.6,7-4.8,10.6s-0.8,7.4-0.2,10.8s1.1,6.6,0.4,9.6s-2.8,5.2-4.1,7.6c-0.7,1.1-1.2,2.4-1.4,3.8c-0.2,1.2-0.2,2.4-0.2,3.7
		c0,1.1-0.2,2.2-0.5,3.3c-0.4,0.9-1,1.7-1.7,2.4c-1.3,1.1-2.8,1.9-4.4,2.5c-1.2,0.4-2.4,0.8-3.6,1c-0.7,0.1-1.5,0.2-2.3,0.2
		C102.8,464,102.5,464,102.5,464z"/>
	<path class="st3" d="M137.9,332.1c-0.1,0.1-0.1,0.2-0.1,0.3l-0.2,1c-0.2,0.9-0.5,2.2-0.9,3.9s-1.4,3.5-2.3,5.9
		c-1,2.6-1.9,5.3-2.7,7.9c-0.9,3-1.6,6.3-2.4,9.9c-0.7,3.8-1.9,7.5-3.6,10.9c-0.9,1.8-2,3.7-2.8,5.7c-0.8,2.1-1.3,4.2-1.6,6.4
		c-0.6,4.6-1.4,9.1-2.4,13.5c-2.2,9.2-4.4,17.9-6.3,25.9s-3.8,15.1-5.3,21.1s-2.7,10.8-3.5,14.3c-0.4,1.6-0.7,2.9-0.9,3.9
		c-0.1,0.4-0.2,0.7-0.2,1c0,0.1,0,0.2,0,0.4c0.1-0.1,0.1-0.2,0.1-0.3c0.1-0.3,0.2-0.6,0.3-1c0.3-0.9,0.6-2.2,1.1-3.9
		c0.9-3.4,2.2-8.2,3.7-14.2s3.4-13.1,5.4-21.1s4.1-16.7,6.4-25.9c1-4.5,1.8-9,2.4-13.6c0.3-2.1,0.8-4.3,1.6-6.3
		c0.8-2,1.8-3.8,2.7-5.6c2-3.6,2.8-7.6,3.6-11.1s1.5-6.9,2.3-9.9s1.7-5.6,2.5-7.9s1.8-4.2,2.2-5.9s0.6-3,0.8-3.9
		c0.1-0.4,0.1-0.7,0.2-1C137.9,332.2,137.9,332.1,137.9,332.1z"/>
	<path class="st4" d="M104.5,464c7.3-4.4,9.4-17.5,6.4-25.5s-8.4-15.2-9.2-23.7c-0.6-6.5,1.5-13.2,0-19.5
		c-2.1-8.6-10.4-15.2-10.3-24.1c0.1-5,2.9-9.6,2.6-14.6c-0.3-6.1-4.9-10.9-7.8-16.2c-4.4-8.2-4.7-17.9-6.2-27s-5-19-13.1-23.5
		c-1.2,7.8-3.3,13.1-2.6,23.7c0.2,3.8,4.6,11,5.2,19.4c0.4,5,0.6,9.9,0.9,14.9s0.6,9.8,2.3,14.3c1.3,3.5,3.5,6.6,4.4,10.2
		c1.8,6.7-0.6,14,0.9,20.8c1.3,5.8,5.3,10.8,6.1,16.6c1.1,8.2-4.2,16.8-1.5,24.6c1.4,3.9,4.6,7,5.5,11c0.7,3.1-0.1,6.4,0.6,9.6
		c1,5.1,10.7,9,15.8,8.7"/>
	<path class="st6" d="M68.8,297.7c0,0.1,0,0.3,0,0.4c0,0.3,0.1,0.8,0.2,1.3c0.2,1.1,0.4,2.8,0.7,4.9s1.5,4.6,2.4,7.5s1.9,6.3,2.7,10
		s1.5,7.9,2.3,12.4s1.5,9.3,3.8,14c1,2.3,2.2,4.7,3,7.2c0.8,2.6,1.4,5.2,1.5,7.9c0.4,5.7,1.1,11.4,2.2,17
		c2.2,11.5,4.4,22.5,6.3,32.5s3.9,18.9,5.4,26.5s2.8,13.6,3.7,17.9l1,4.9c0.1,0.5,0.2,0.9,0.3,1.3c0,0.1,0.1,0.3,0.1,0.4
		c0-0.1,0-0.3,0-0.4c-0.1-0.3-0.1-0.7-0.2-1.3c-0.2-1.2-0.5-2.8-0.9-4.9c-0.8-4.3-2-10.4-3.5-17.9s-3.3-16.6-5.3-26.5
		s-4-21-6.3-32.5c-1-5.6-1.7-11.3-2.2-17c-0.2-2.7-0.7-5.5-1.6-8.1c-0.9-2.5-2.1-4.9-3.1-7.2c-2.2-4.6-3-9.4-3.8-13.8
		s-1.5-8.6-2.4-12.4s-1.8-7.1-2.8-10s-2.1-5.3-2.5-7.4s-0.7-3.8-0.9-4.9c-0.1-0.5-0.2-0.9-0.2-1.3C68.8,297.9,68.8,297.8,68.8,297.7
		z"/>
</g>
<g id="freepik--speech-bubble--inject-5">
	<path class="st4" d="M421.5,88.8h-4c0,1.9-1.5,3.4-3.4,3.4c0,0-0.1,0-0.1,0c-1.4,0-2.6-0.8-3.1-2.1c-0.4-1.1-0.3-2.3,0.3-3.2
		c0.7-1.1,2.2-2.1,4.8-1.7v-9h-3.9v5.3c-3.3,1-5.6,4-5.5,7.5c0,5.8,5.2,7.2,7.5,7.2C415.7,96.2,421.5,95.8,421.5,88.8z"/>
	<rect x="412" y="70.7" class="st4" width="4" height="3.7"/>
	<path class="st3" d="M443.3,83.4c0-0.2,0-0.3,0-0.5c0-0.4,0-0.8,0-1.5c0-0.3,0-0.7,0-1.1s-0.1-0.8-0.2-1.3s-0.1-1-0.2-1.5l-0.4-1.7
		c-0.7-2.9-2-5.7-3.6-8.3C434,60,425.9,55,416.9,54.2c-1.3-0.1-2.7-0.1-4-0.1c-0.7,0-1.4,0-2,0.1l-2.1,0.3c-2.8,0.5-5.6,1.5-8.1,2.8
		c-2.7,1.4-5.1,3.2-7.3,5.3c-2.2,2.2-4.1,4.8-5.5,7.6c-1.5,2.9-2.5,6.1-3,9.3c-0.1,0.8-0.2,1.7-0.2,2.5c-0.1,0.8-0.1,1.7,0,2.5
		c0.2,5.4,1.9,10.6,4.9,15.1v-0.3c-1.4,3.5-2.8,6.9-4.1,10.2l-0.2,0.6l0.6-0.2l10.9-3l-0.3-0.1c3.7,2.8,7.9,4.7,12.5,5.5
		c2.1,0.4,4.2,0.5,6.4,0.4c1,0,2.1-0.1,3.1-0.3l1.5-0.2c0.5-0.1,1-0.2,1.4-0.3c6.7-1.7,12.6-5.7,16.6-11.4c1.5-2.1,2.7-4.4,3.6-6.8
		c0.2-0.5,0.4-1,0.5-1.5s0.3-1,0.4-1.4s0.2-0.9,0.3-1.3s0.1-0.8,0.2-1.2c0.1-0.8,0.2-1.4,0.3-2s0-1.1,0-1.5s0-0.7,0-0.9
		S443.3,83.5,443.3,83.4c0,0.1,0,0.2,0,0.4c0,0.2,0,0.5-0.1,0.9s-0.1,0.9-0.1,1.5s-0.2,1.3-0.3,2c-1.9,11.3-10.4,20.4-21.5,23.2
		c-0.5,0.1-0.9,0.3-1.4,0.3l-1.5,0.2c-1,0.2-2,0.3-3,0.3c-2.1,0.1-4.2,0-6.3-0.4c-4.4-0.8-8.6-2.7-12.2-5.4l-0.1-0.1h-0.1l-10.9,3
		l0.4,0.4l4.1-10.2l0.1-0.2l-0.1-0.2c-2-3-3.4-6.3-4.1-9.8c-0.3-1.6-0.6-3.3-0.6-4.9c0-0.8,0-1.6,0-2.4c0-0.8,0.1-1.6,0.2-2.4
		c0.4-3.2,1.3-6.3,2.8-9.1c1.4-2.8,3.2-5.3,5.4-7.5c2.1-2.1,4.5-3.8,7.1-5.2c2.5-1.3,5.2-2.2,8-2.8l2-0.3c0.7-0.1,1.3-0.1,2-0.1
		c1.3-0.1,2.6,0,3.9,0.1c8.8,0.8,16.8,5.6,21.6,13c1.7,2.5,2.9,5.2,3.7,8.1l0.5,1.7c0.1,0.5,0.2,1,0.3,1.5s0.1,0.9,0.2,1.3
		s0,0.8,0.1,1.1c0,0.6,0.1,1.1,0.1,1.5C443.2,83.1,443.2,83.3,443.3,83.4z"/>
</g>
<g id="freepik--question-mark--inject-5">
	<path class="st4" d="M145.1,201.4h57.8c0,0,0-48.5,50.4-49.4c26.2-0.5,39.7,16.7,45.3,29.8c6.4,15.3,4.5,32.6-4.1,46.8
		c-9.8,16.1-30.9,32.4-69.8,25.5l-0.4,128.7h57.1v-76.3c0,0,80.1-20.7,80.1-109c0-84.4-68.3-102.7-105-103.9
		c-20.4-0.7-27.8-1.5-53.1,2.1C171.1,100.3,144.4,137.7,145.1,201.4z"/>
	<rect x="224" y="409.6" class="st4" width="58" height="54.1"/>
	<rect x="224" y="409.6" class="st7" width="58" height="54.1"/>
	<path class="st7" d="M145.1,201.4h57.8c0,0,0-48.5,50.4-49.4c26.2-0.5,39.7,16.7,45.3,29.8c6.4,15.3,4.5,32.6-4.1,46.8
		c-9.8,16.1-30.9,32.4-69.8,25.5l-0.4,128.7h57.1v-76.3c0,0,80.1-20.7,80.1-109c0-84.4-68.3-102.7-105-103.9
		c-20.4-0.7-27.8-1.5-53.1,2.1C171.1,100.3,144.4,137.7,145.1,201.4z"/>
	<path class="st4" d="M121.1,201.4h57.8c0,0,0-48.5,50.4-49.4c26.2-0.5,39.7,16.7,45.2,29.8c6.4,15.3,4.5,32.6-4.1,46.8
		c-9.8,16.1-31.3,30.8-70.2,24v130.2h57.1v-76.3c0,0,80.1-20.7,80.1-109c0-84.4-75.7-104.1-108.1-104.1
		C204.5,93.5,120.1,99.5,121.1,201.4z"/>
	<path class="st8" d="M121.1,201.4h57.8c0,0,0-48.5,50.4-49.4c26.2-0.5,39.7,16.7,45.2,29.8c6.4,15.3,4.5,32.6-4.1,46.8
		c-9.8,16.1-31.3,30.8-70.2,24v130.2h57.1v-76.3c0,0,80.1-20.7,80.1-109c0-84.4-75.7-104.1-108.1-104.1
		C204.5,93.5,120.1,99.5,121.1,201.4z"/>
	<rect x="200.1" y="409.6" class="st4" width="58" height="54.1"/>
	<rect x="200.1" y="409.6" class="st8" width="58" height="54.1"/>
	<path class="st3" d="M235.8,152.3c-0.3,0-0.6,0-0.9,0c-0.6,0-1.4-0.2-2.5-0.2c-3-0.1-6.1,0-9.1,0.4c-4.5,0.6-8.8,1.6-13.1,3.1
		c-2.5,0.9-4.9,1.9-7.3,3.1c-2.5,1.3-4.9,2.8-7.1,4.6c-2.2,1.8-4.1,3.9-5.8,6.2c-1.6,2.1-3.1,4.3-4.4,6.6c-2.2,3.9-3.9,8.1-5.2,12.4
		c-0.8,2.9-1.4,5.9-1.7,8.9c-0.1,1.1-0.1,1.9-0.2,2.5c0,0.3,0,0.6-0.1,0.9c0-0.3,0-0.6,0-0.9c0-0.6,0-1.4,0.1-2.5
		c0.2-3,0.8-6.1,1.6-9c1.2-4.4,2.9-8.6,5.1-12.5c1.3-2.3,2.8-4.6,4.4-6.7c1.7-2.3,3.7-4.4,5.9-6.3c2.2-1.8,4.6-3.4,7.2-4.7
		c2.4-1.2,4.8-2.3,7.3-3.2c4.3-1.5,8.7-2.5,13.2-3c3-0.4,6.1-0.4,9.1-0.2c0.8,0.1,1.6,0.2,2.5,0.3
		C235.2,152.1,235.5,152.2,235.8,152.3z"/>
	<path class="st3" d="M322.8,142c0,0-0.1-0.1-0.2-0.2s-0.3-0.4-0.5-0.7l-1.9-2.7c-0.4-0.6-0.9-1.3-1.4-1.9l-1.8-2.2l-2.1-2.5
		c-0.8-0.9-1.6-1.7-2.5-2.7s-1.8-1.9-2.8-2.9s-2.1-1.9-3.2-2.9c-0.6-0.5-1.1-1-1.7-1.5l-1.9-1.5c-1.3-1-2.5-2-3.9-3
		c-6-4.3-12.3-8-18.9-11.2l-5.3-2.4l-5.2-2c-1.7-0.7-3.5-1.2-5.1-1.8s-3.3-1.1-5-1.5l-4.8-1.3c-1.6-0.4-3.1-0.7-4.6-1
		s-2.9-0.6-4.3-0.8l-4-0.6c-2.5-0.4-4.9-0.5-6.9-0.7c-1-0.1-2-0.2-2.8-0.2l-2.4-0.1l-3.3-0.1h-0.9h-0.3c0.1,0,0.2,0,0.3,0h0.9h3.3
		h2.4c0.9,0,1.8,0.1,2.8,0.2c2,0.2,4.4,0.2,6.9,0.7l4,0.5c1.4,0.2,2.8,0.5,4.3,0.8s3,0.6,4.6,1l4.8,1.2c1.7,0.4,3.3,1,5,1.5
		s3.4,1,5.1,1.8l5.3,2l5.3,2.4c6.7,3.2,13,6.9,19,11.3c1.4,1,2.6,2.1,3.9,3.1l1.9,1.3c0.6,0.5,1.1,1,1.7,1.5l3.2,3
		c1,1,1.9,2,2.8,2.9s1.7,1.8,2.5,2.7l2,2.6l1.8,2.2c0.5,0.7,0.9,1.4,1.3,2c0.8,1.2,1.4,2.1,1.8,2.8l0.5,0.7
		C322.7,141.9,322.8,141.9,322.8,142z"/>
	<path class="st3" d="M316.8,266c-0.1,0.2-0.3,0.4-0.4,0.6l-1.4,1.6c-0.6,0.7-1.3,1.6-2.2,2.6s-1.8,2.1-3,3.3s-2.4,2.5-3.8,3.8
		s-2.9,2.7-4.6,4.2c-7.1,6.2-15,11.6-23.4,16.1c-1.9,1-3.8,2-5.5,2.8s-3.4,1.6-4.9,2.2s-2.9,1.2-4.1,1.6s-2.3,0.9-3.2,1.1l-2,0.6
		c-0.2,0.1-0.5,0.2-0.7,0.2c0.2-0.1,0.4-0.2,0.7-0.3l2-0.7c0.9-0.3,1.9-0.7,3.1-1.2s2.6-1,4.1-1.7s3.2-1.4,4.9-2.3s3.6-1.8,5.5-2.8
		c3.8-2.1,7.9-4.6,12.1-7.4s7.9-5.8,11.2-8.6c1.6-1.4,3.2-2.8,4.6-4.1s2.7-2.6,3.8-3.8s2.2-2.3,3.1-3.2s1.6-1.8,2.2-2.5l1.4-1.6
		C316.4,266.3,316.6,266.2,316.8,266z"/>
	<path class="st3" d="M256.4,378.3c-0.1,0-0.3-16.1-0.3-35.9s0.1-35.9,0.3-35.9s0.3,16.1,0.3,35.9S256.5,378.3,256.4,378.3z"/>
	<path class="st3" d="M258.5,460.1c-0.1,0-0.3-11.3-0.3-25.2s0.1-25.2,0.3-25.2s0.3,11.3,0.3,25.2S258.7,460.1,258.5,460.1z"/>
</g>
<g id="freepik--Character--inject-5">
	<path class="st4" d="M315.4,193.7c-1,2,2.7,3.6,4.9,4.3c2.2,0.5,4.5,0.7,6.7,0.5c3-0.2,6.1-0.4,8.7-1.9c2.3-1.4,4.1-3.4,5.2-5.9
		c1.1-2.4,2-4.9,2.6-7.5C343.5,183.2,319.9,184.7,315.4,193.7z"/>
	<g class="st9">
		<path d="M315.4,193.7c-1,2,2.7,3.6,4.9,4.3c2.2,0.5,4.5,0.7,6.7,0.5c3-0.2,6.1-0.4,8.7-1.9c2.3-1.4,4.1-3.4,5.2-5.9
			c1.1-2.4,2-4.9,2.6-7.5C343.5,183.2,319.9,184.7,315.4,193.7z"/>
	</g>
	<path class="st4" d="M382.1,187.3c3.9,2.8,8.6,4.2,13.3,4.2c2.3,0.1,4.5-0.6,6.4-2c0.8-0.7,1.4-1.6,2.1-2.3
		c0.5-0.5,1.2-0.8,1.7-1.3c0.5-0.5,0.8-1.2,0.7-1.9c-0.2-0.9-0.7-1.6-1.4-2.2c-2.7-1.5-6-1.5-9.1-1.4c-3.1,0.1-6.2,0.7-9.1,1.8
		c-2.4,0.8-5,2-6.2,4.2"/>
	<g class="st9">
		<path d="M406.4,184c-0.4-0.8-1-1.5-1.8-2c-2.7-1.5-5.6-1.7-8.7-1.6c-3.1,0.1-6.2,0.7-9.1,1.8c-2.4,0.8-5,2-6.2,4.2l1.5,0.9
			c3.9,2.8,8.6,4.2,13.3,4.2c2.3,0.1,4.5-0.6,6.4-2c0.8-0.7,1.4-1.6,2.1-2.3c0.5-0.5,1.2-0.8,1.7-1.3
			C406.2,185.4,406.5,184.7,406.4,184z"/>
	</g>
	<path class="st4" d="M336,223.2l49.9,0.7c0.4,0,0.6-0.3,0.6-0.7c0-0.1,0-0.1,0-0.2l-5.9-18.2c0,0,0.9-9.1,2-20.1
		c1.8-16.6,4.2-37.6,4.3-37.5c-3.4-9.6-23.5-11.2-23.5-11.2l-22.9,1.4l-0.8-1.4l-6.6,3.1c-1.4,0.7-2.8,1.5-4.1,2.3
		c-4.4,2.9-14.9,9.6-16.8,17.1c-4.4,17.3,3.1,36.5,3.1,36.5l4.8-3.8c1.2-0.9,2.5-1.8,3.8-2.6l9.7,25.9c-1.2,0.7-1.9,2-2.1,3.3
		C331.3,220,332.4,222.5,336,223.2"/>
	<g class="st5">
		<path d="M357.4,192.7c1.6-8.5,0.8-17.2-0.1-25.8c-2.8,7-2.7,15-5.6,21.9c-0.4,0.7-0.6,1.5-0.8,2.3c-0.2,0.8,0.1,1.7,0.7,2.3
			c0.8,0.7,2,0.3,3.1,0.2C355.6,193.4,356.5,193.1,357.4,192.7"/>
	</g>
	<g class="st9">
		<path d="M339,212.4c4,1.4,8.3-1.2,12.5-1.7c2.8-0.3,5.6,0.3,8.4,0.8c5.6,0.9,11.3,1.1,17,0.4c0.9,0,1.7-0.3,2.5-0.6
			c0.8-0.6,1.3-1.5,1.3-2.5c-9.4-1-18.8-1.5-28.3-2.5c-2.3-0.4-4.7-0.3-7.1,0.2c-2.8,0.9-5,3.1-7,5.3"/>
	</g>
	<path class="st4" d="M404.9,180.7c-4.1-9.2-18.4-34.5-18.4-34.5l-11.1,13.9l2.6,27.4c0,0,5.9-6.6,22.3-6.7c2.4,0.1,4.7,1.3,6.1,3.2
		L404.9,180.7z"/>
	<path class="st3" d="M338.2,175.9c-0.8-1.9-1.4-4-1.9-6c-0.6-2-1.1-4-1.4-6.1c0.8,1.9,1.4,4,1.9,6
		C337.5,171.8,337.9,173.8,338.2,175.9z"/>
	<path class="st3" d="M374.6,158.3c0.4,0.3,0.7,0.5,1,0.9c0.9,0.9,1.7,1.8,2.5,2.7c2.6,3.2,4.4,6.9,5.3,10.9
		c0.5,2.2,0.6,4.5,0.3,6.7c-0.3,2.1-0.6,3.9-0.9,5.4s-0.4,2.8-0.5,3.6c0,0.4,0,0.9-0.1,1.3c-0.1-0.4-0.1-0.9-0.1-1.4
		c0-1.2,0.2-2.4,0.3-3.7c0.2-1.5,0.6-3.4,0.8-5.4c0.2-2.2,0.1-4.4-0.4-6.5c-0.9-3.9-2.6-7.6-5.1-10.7
		C375.9,159.6,374.5,158.4,374.6,158.3z"/>
	<path class="st3" d="M364.4,221c-0.3,0.2-0.7,0.3-1.1,0.3c-0.4,0.1-0.9,0.2-1.3,0.3c-0.5,0.1-1.1,0.2-1.7,0.2
		c-1.5,0.1-3.1,0.1-4.6,0c-1.9-0.2-3.7-0.6-5.5-1.1c-1.8-0.6-3.5-1.3-5.2-2.2c-1.3-0.7-2.6-1.6-3.8-2.6c-0.5-0.4-0.9-0.8-1.3-1.2
		c-0.3-0.3-0.6-0.6-0.9-0.9c-0.3-0.3-0.5-0.6-0.7-0.9c0.1-0.1,1.1,1.1,3.2,2.7c1.2,0.9,2.5,1.7,3.8,2.4c1.6,0.9,3.3,1.6,5.1,2.1
		c1.8,0.5,3.6,0.9,5.4,1.1c1.5,0.2,3,0.2,4.5,0.1C362.8,221.3,364.4,220.9,364.4,221z"/>
	<path class="st3" d="M379.8,215.3c0.2,0.5,0.4,1,0.4,1.5c0.2,1.2,0.1,2.5-0.3,3.6c-0.3,1.2-1,2.3-2,3.1c-0.7,0.6-1.3,0.8-1.3,0.8
		s0.4-0.4,1.1-1c0.8-0.8,1.4-1.9,1.7-3C380.2,217.6,379.6,215.3,379.8,215.3z"/>
	<path class="st3" d="M377.1,218.8c0.4,2.1-0.4,4.3-2.1,5.5c-0.1-0.1,0.8-1.1,1.4-2.6S376.9,218.9,377.1,218.8z"/>
	<path class="st3" d="M368.1,185.9c-0.5,0.9-1.1,1.8-1.8,2.6c-0.5,0.9-1.1,1.8-1.8,2.6c0.2-1.1,0.6-2,1.3-2.9
		C366.5,187.3,367.2,186.5,368.1,185.9z"/>
	<path class="st3" d="M333.9,161.7c-0.8-0.4-1.5-0.9-2.2-1.5c-3.6-2.3-7.6-3.8-11.8-4.4c-0.9-0.1-1.8-0.2-2.6-0.4
		c0.9-0.1,1.8-0.1,2.7,0c4.3,0.4,8.5,1.9,12,4.5C332.7,160.5,333.4,161,333.9,161.7z"/>
	<path class="st3" d="M386.5,145.9c-1.8,1.4-3.5,3-5,4.7c-1.4,1.8-2.7,3.8-3.8,5.8c0.1-0.7,0.4-1.3,0.7-1.9c0.7-1.5,1.6-2.9,2.7-4.2
		c1.1-1.3,2.3-2.4,3.7-3.4C385.3,146.4,385.9,146.1,386.5,145.9z"/>
	<path class="st3" d="M365.9,137.6c0.1,0.1,0.2,0.3,0.2,0.5c0.2,0.5,0.4,0.9,0.5,1.4c0.4,1.8,0.4,3.6,0,5.4c-0.6,2.7-2,5.1-4.1,6.9
		c-2.6,2.2-5.8,3.3-9.2,3.3c-3.4,0-6.6-1.1-9.4-3.1c-2.2-1.6-3.9-3.8-5.1-6.2c-0.8-1.6-1.4-3.4-1.7-5.1c-0.1-0.5-0.2-1-0.2-1.5
		c0-0.2,0-0.3,0-0.5c0,0,0.1,0.7,0.4,1.9c0.4,1.7,1,3.4,1.8,5c1.2,2.4,3,4.4,5.1,6c2.6,1.9,5.8,3,9,3c3.2,0.1,6.4-1,8.9-3.1
		c2-1.8,3.4-4.1,4-6.6c0.4-1.7,0.5-3.5,0.2-5.3C366.2,138.3,365.9,137.6,365.9,137.6z"/>
	<g class="st5">
		<path d="M369.4,187.7c0-0.5-0.1-1.1-0.5-1.3c-0.3-0.1-0.6-0.1-0.9,0c-0.3,0.2-0.5,0.4-0.7,0.6c-1.2,1.2-2.1,2.7-2.7,4.3l4.9-0.4
			C369.5,189.8,369.5,188.7,369.4,187.7z"/>
	</g>
	<g class="st5">
		<path d="M385.7,177.4c-0.5-2.8-1.7-5.4-3.6-7.6c2.1,6.9,1.4,10.8,0.2,15.6l0.3-0.7C384,181.9,386.1,180.2,385.7,177.4z"/>
	</g>
	<polygon class="st10" points="375.9,409.9 372.9,454.7 353.4,454.5 350.4,407.9 	"/>
	<path class="st4" d="M373.5,448.8v1.3c0,0,22,8.8,22.2,13l-43.7-0.2l0.7-14.5C359.2,451.4,366,451.8,373.5,448.8z"/>
	<path class="st11" d="M357.1,453c-0.9,0.3-1.4,1.1-1.2,2c0.2,0.9,1.1,1.4,2,1.3c0.9-0.3,1.5-1.2,1.3-2.1c-0.3-0.9-1.3-1.4-2.2-1.1"
		/>
	<path class="st3" d="M352,462.9l0.2-3.5l41.8,1.5c0,0,1.9,0.9,1.7,2.2L352,462.9z"/>
	<path class="st3" d="M373.6,450.2c0,0.2-1.1,0.3-2.1,1s-1.6,1.6-1.8,1.5s0.1-1.3,1.4-2.1S373.7,450,373.6,450.2z"/>
	<path class="st3" d="M378.2,452.1c0,0.2-0.9,0.6-1.6,1.5s-0.9,1.9-1.2,1.8s-0.3-1.2,0.6-2.3S378.2,452,378.2,452.1z"/>
	<path class="st3" d="M380.8,457.6c-0.2,0-0.5-1,0.1-2.2s1.5-1.6,1.6-1.5s-0.5,0.8-1,1.8S381,457.6,380.8,457.6z"/>
	<path class="st3" d="M372.4,81.8c1.1-2.8-0.2-6.2-2.7-8c-2.6-1.7-5.7-2.3-8.7-1.7c-3,0.6-5.8,1.6-8.5,3c-3.7-3.8-9.8-3.8-13.6-0.1
		c-1.5,1.5-2.4,3.4-2.7,5.4c-3.3-0.8-6.6,1.2-7.5,4.5c-0.3,1.2-0.2,2.4,0.2,3.6l13.5,4.8l14.8,26c5,4.2,12.4,3.6,16.6-1.3
		c3.5-4.1,3.8-10,0.7-14.4c0.8-0.7,1.5-1.6,2.1-2.6c2.4-1.4,4.1-3.7,4.8-6.4C382.6,88.8,378.2,82.5,372.4,81.8z"/>
	<path class="st10" d="M363.4,136c-0.8-4.2-1.4-7.1-1.4-7.1s8-3.1,7.4-14.2c-0.3-5.5-2.4-14.3-4.4-21.3c-1.8-6.4-7.7-13.4-14-11.4
		L332,91.2c-1.9,0.6-2.2,2.4-1.8,4.4v1l7.4,30.7l3.1,13.7c1.4,5.8,7,9.6,12.9,8.8l0,0c6.3-0.9,10.7-6.7,9.9-13.1
		C363.5,136.4,363.5,136.2,363.4,136z"/>
	<path class="st3" d="M365,100.7c0.2,0.7-0.3,1.5-1,1.7c-0.7,0.2-1.5-0.2-1.7-0.9c0,0,0,0,0-0.1c-0.2-0.7,0.3-1.5,1-1.7
		C364,99.5,364.8,99.9,365,100.7C365,100.7,365,100.7,365,100.7z"/>
	<path class="st3" d="M364.1,98.6c-0.1,0.2-1.4-0.3-2.8,0s-2.4,1.3-2.6,1.1s0-0.4,0.4-0.9c0.6-0.6,1.3-1,2-1.1
		c0.8-0.2,1.6-0.1,2.3,0.3C364,98.2,364.2,98.5,364.1,98.6z"/>
	<path class="st3" d="M350.5,104c0.2,0.7-0.3,1.5-1,1.7c-0.7,0.2-1.5-0.2-1.7-0.9c0,0,0,0,0,0c-0.2-0.7,0.3-1.5,1-1.7
		C349.5,102.8,350.3,103.3,350.5,104C350.5,104,350.5,104,350.5,104z"/>
	<path class="st3" d="M349.8,102.1c-0.1,0.2-1.4-0.3-2.8,0s-2.4,1.3-2.6,1.1s0-0.4,0.4-0.9c0.6-0.6,1.3-1,2-1.1
		c0.8-0.2,1.6-0.1,2.3,0.2C349.6,101.7,349.8,102,349.8,102.1z"/>
	<path class="st3" d="M357.3,111.5c0.7-0.4,1.5-0.7,2.3-0.9c0.4-0.1,0.7-0.3,0.7-0.5c-0.1-0.4-0.2-0.8-0.5-1.1l-1.7-2.7
		c-2.4-3.8-4.3-6.9-4.1-7s2.2,2.9,4.7,6.7l1.7,2.7c0.3,0.4,0.5,0.9,0.5,1.4c-0.1,0.3-0.2,0.5-0.5,0.7c-0.2,0.1-0.4,0.2-0.6,0.2
		C358.9,111.3,358.1,111.5,357.3,111.5z"/>
	<path class="st12" d="M362,128.9c-5.1,1.1-10.3,0.9-15.2-0.8c0,0,5.2,6.8,15.8,3.6L362,128.9z"/>
	<path class="st3" d="M350,100c-0.1,0.4-1.6,0.4-3.4,0.8s-3.1,1.1-3.4,0.7c-0.1-0.2,0.1-0.6,0.6-1c0.7-0.6,1.5-1,2.4-1.2
		c0.9-0.2,1.8-0.2,2.7,0C349.7,99.5,350.1,99.8,350,100z"/>
	<path class="st3" d="M363.6,93.9c-0.2,0.4-1.5,0.3-3,0.6s-2.6,0.8-3,0.5c-0.2-0.2,0-0.5,0.4-1c0.7-0.6,1.5-0.9,2.3-1.1
		c0.8-0.2,1.7-0.1,2.5,0.2C363.4,93.4,363.7,93.7,363.6,93.9z"/>
	<path class="st3" d="M336.7,84.1c0.8,4.1,4.8,6.7,8.9,5.9c0.5-0.1,0.9-0.2,1.3-0.4c1.6-0.6,3.2-1.8,4.8-1.3s2.3,2.9,3.8,3.7
		c2.3,1.3,5-0.9,7.5-0.7c2,0.2,3.5,1.7,5.1,3s3.7,2.3,5.4,1.3c-0.4-1.7-1-3.3-1.8-4.8c-0.8-1.5-2.1-2.8-3.7-3.5
		c-0.9-0.3-1.8-0.5-2.7-0.9c-1.8-0.9-2.6-3-3.9-4.6c-1.7-2-4.4-3-7-2.8c-2.2,0.2-4.2,1.3-6.4,1.2c-1.6-0.1-3.1-0.8-4.8-0.8
		c-3.1,0-5.5,2.8-7.2,5.4"/>
	<path class="st3" d="M347.3,86.4c-1.4-0.1-4.4-0.4-5.4-1.4c-2-2.2-5.1-3.2-8-2.6c-2.9,0.9-5,3.6-5,6.7c-3.6,0.9-6.4,3.6-7.3,7.2
		c-0.9,3.7,0,7.6,2.5,10.5c0.6,0.8,1.1,1.5,1.6,2.4c-0.7,0.8-1.3,1.7-1.8,2.7c-2.3,5.1,3.9,7,3.9,7c0,3.4,3.1,3.4,5.2,3.4
		s3.1,5.4,4.7,5.2l-1.6-16.6c0.2,0.1,0.5,0.1,0.7,0.1c3.8,0.1,2.8-7.1,1.6-9c1.1-1.4,2.1-2.9,2.8-4.6c0.7-2.5,0.7-5.1,0.1-7.7
		C342.7,89.4,347.9,86.4,347.3,86.4z"/>
	<path class="st10" d="M336.6,111.5c-0.4-1.7-2.2-2.8-3.9-2.4c-0.5,0.1-0.9,0.3-1.3,0.6c-1,0.9-1.5,2.3-0.9,4.7
		c1.6,6.4,7.8,3.5,7.7,3.3S337.3,114.2,336.6,111.5z"/>
	<path class="st12" d="M335.7,115.9c0,0-0.1,0.1-0.3,0.2c-0.2,0.2-0.5,0.3-0.8,0.2c-0.7-0.1-1.6-1-1.9-2.2c-0.2-0.5-0.2-1.1-0.1-1.7
		c0-0.4,0.3-0.8,0.6-1.1c0.3-0.1,0.6-0.1,0.7,0.2c0.1,0.2,0.1,0.3,0.2,0.3s0.1-0.2,0-0.4c-0.1-0.1-0.2-0.3-0.4-0.3
		c-0.2-0.1-0.4-0.1-0.7,0c-0.5,0.2-0.9,0.7-0.9,1.3c-0.1,0.6-0.1,1.3,0.1,1.9c0.2,1.2,1.1,2.1,2.3,2.4c0.4,0,0.7-0.1,1-0.4
		C335.7,116.1,335.7,115.9,335.7,115.9z"/>
	<path class="st13" d="M371.2,102.6c0,0,0.6-0.4,1.4-1.4c1.1-1.4,1.8-3.2,2-5c0.1-1.2,0-2.5-0.4-3.7c-0.4-1.4-1.2-2.6-2.3-3.6
		c-2.5-2.2-6-2.9-9.2-1.8c-0.3,0.1-0.6,0.3-0.9,0.4s-0.5,0.3-0.8,0.4l-0.4,0.2v-0.4c0-0.8-0.3-1.5-0.8-2.1c-0.5-0.6-1.2-1-1.9-1.3
		c-1.4-0.6-2.9-0.7-4.3-0.3c-2.8,0.6-5.1,1.9-7.3,2.2c-1.7,0.3-3.5-0.1-5-1c-0.4-0.3-0.7-0.6-1-1c-0.2-0.3-0.2-0.4-0.2-0.4
		c0.4,0.5,0.8,0.9,1.3,1.3c1.5,0.8,3.2,1.1,4.8,0.8c1.2-0.2,2.3-0.6,3.4-1c1.3-0.5,2.6-0.9,3.9-1.3c0.7-0.2,1.5-0.3,2.3-0.2
		c0.8,0,1.6,0.2,2.3,0.5c0.8,0.3,1.4,0.8,2,1.4c0.6,0.7,0.9,1.5,0.9,2.4l-0.4-0.2l0.8-0.5c0.3-0.1,0.6-0.3,0.9-0.4
		c3.3-1.1,7-0.4,9.7,1.9c1.1,1,1.9,2.3,2.4,3.8c0.9,3.1,0.2,6.5-1.9,9c-0.3,0.4-0.7,0.7-1.1,1C371.4,102.4,371.3,102.5,371.2,102.6z
		"/>
	<path class="st13" d="M369.9,79.9c-0.7-0.3-1.4-0.6-2.1-0.7c-0.8-0.1-1.7,0-2.5,0.2c-1,0.3-1.9,1-2.5,1.8l-0.3,0.3l-0.1-0.4
		c-1.1-2.5-3.4-4.2-6.1-4.5c-2.1-0.1-4.1,0.5-5.9,1.7c-1.5,1-3,1.8-4.6,2.4c-1.1,0.4-2.3,0.6-3.5,0.4c-0.3-0.1-0.6-0.1-0.9-0.3
		c-0.2-0.1-0.3-0.1-0.3-0.2s0.5,0.1,1.3,0.2c1.2,0.1,2.3-0.1,3.4-0.6c1.6-0.7,3.1-1.5,4.5-2.5c0.9-0.5,1.8-1,2.8-1.4
		c1.1-0.4,2.2-0.5,3.4-0.4c2.9,0.3,5.4,2.2,6.5,4.9h-0.4c0.7-0.9,1.7-1.6,2.8-1.9c0.9-0.2,1.7-0.3,2.6-0.1c0.6,0.1,1.1,0.3,1.6,0.6
		C369.6,79.7,369.7,79.8,369.9,79.9z"/>
	<path class="st14" d="M356.7,114.5c-0.5-0.4-1.1-0.6-1.7-0.5c-0.7,0.2-1.3,0.6-1.7,1.2l0,0c0,0,0,0.1-0.1,0.1l0,0
		c-0.1,0.2-0.2,0.5-0.2,0.8c0.1,0.6,0.5,1.1,1,1.3c0.9,0.4,1.9,0.3,2.6-0.4C357.4,116.3,357.4,115.2,356.7,114.5z"/>
	<path class="st3" d="M357.2,117.6c-0.1,0-0.2-0.3-0.4-0.7c-0.7-1.1-2-1.7-3.3-1.5c-0.5,0.1-0.8,0.2-0.8,0.1s0.2-0.3,0.7-0.5
		c0.7-0.2,1.5-0.2,2.1,0.1c0.7,0.3,1.2,0.9,1.5,1.6C357.3,117.2,357.3,117.6,357.2,117.6z"/>
	<path class="st14" d="M336.8,118.8c0,0,0.3,0.5-0.1,1.3c-0.2,0.5-0.6,0.8-1.1,1c-0.6,0.2-1.2,0.1-1.8-0.2c-0.5-0.3-0.9-0.9-1-1.5
		c0-0.5,0.1-1,0.4-1.4c0.5-0.7,1.1-0.7,1.1-0.6s-0.4,0.2-0.8,0.8c-0.2,0.3-0.3,0.7-0.2,1.1c0.1,0.5,0.3,0.9,0.8,1.1
		c0.4,0.3,0.9,0.3,1.3,0.2c0.4-0.1,0.7-0.4,0.9-0.7C336.8,119.3,336.7,118.8,336.8,118.8z"/>
	<path class="st14" d="M333.4,118.4c0,0,0,0.3-0.5,0.6c-0.7,0.3-1.4,0-1.7-0.7c-0.1-0.3-0.1-0.6,0-0.9c0.1-0.3,0.3-0.5,0.5-0.7
		c0.4-0.3,0.7-0.2,0.7-0.1s-0.2,0.1-0.5,0.4c-0.3,0.4-0.3,1.1,0.2,1.4c0.2,0.2,0.5,0.2,0.7,0.2C333.2,118.6,333.4,118.4,333.4,118.4
		z"/>
	<path class="st10" d="M344.4,207.3c0,0,24.8,1.4,39.4,1.6c11.3,0.1,16.4-2.9,18.6-10.2c1.9-6.1-2.2-17.8-2.2-17.8
		c-7.7,0-12.4,1.1-17.3,3.4l1.3,5.4l-39.9,3.4L344.4,207.3z"/>
	<path class="st12" d="M392.6,195.3c-1.1-1.4-2.3-2.6-3.7-3.7c-1.5-0.9-3.1-1.6-4.8-2.1c0.5-0.1,1.1,0,1.6,0.1
		c1.3,0.3,2.5,0.8,3.5,1.6c1.1,0.7,2,1.7,2.7,2.7C392.4,194.7,392.6,195.3,392.6,195.3z"/>
	<path class="st10" d="M335.4,184.2L335.4,184.2c0,0-7.7,1.8-13.3,5.6l6,16.3c2,5.3,8.1,8,13,5.2c7.5-4.3,10.2-16.9,10.2-16.9
		l8.3-35.9l-13.7-8.6L335.4,184.2"/>
	<path class="st10" d="M345.8,149.9l0.6-11.8l-3.1-12c-0.2-0.7-0.3-1.5,0.3-1.9c0.6-0.4,1.3-0.4,1.9,0.1c0.8,0.9,4.8,11.4,4.8,11.4
		s6.1-3.6,7.1-3.8s2.4,3.1,2.5,3.3c0,0.7,0,1.5,0,2.2c0,0,3.8,0.1,4.1,0.6c0.3,1,0.4,2.1,0.4,3.2c0,0,1.6,0.5,1.8,1.7s0.8,3.2,0,3.6
		s-2.3,1.3-2.3,1.3s-0.6,6.1-0.8,6.7s-3.7,4-3.7,4L345.8,149.9z"/>
	<path class="st12" d="M333,211.5c0,0,0.4,0.2,1.1,0.5c1.1,0.4,2.3,0.5,3.5,0.3c1.9-0.3,3.7-1.1,5.1-2.4c1.9-1.7,3.5-3.8,4.8-6
		c0.7-1.3,1.4-2.7,1.9-4.1c0.5-1.6,1-3.2,1.3-4.8c0.8-3.4,1.6-7,2.5-10.9c1.8-7.7,3.8-16.3,6-25.6v-0.1h0c0.7-0.7,1.4-1.4,2.1-2.1
		c0.3-0.4,0.7-0.7,1-1.1c0.2-0.2,0.3-0.4,0.5-0.6c0.1-0.2,0.2-0.4,0.2-0.6c0.3-2,0.5-4.1,0.7-6.2v-0.1l0.1-0.1l1.9-1.1
		c0.1-0.1,0.4-0.2,0.5-0.3c0.1-0.1,0.2-0.2,0.2-0.3c0-0.3,0-0.7,0-1c-0.1-0.7-0.2-1.5-0.5-2.2c-0.3-0.6-0.9-1.1-1.6-1.3l-0.2-0.1
		v-0.2c0-0.6-0.1-1.2-0.1-1.8c0-0.3-0.1-0.6-0.1-0.9c0-0.1-0.1-0.3-0.1-0.4c0-0.1,0,0-0.1-0.1c-0.1,0-0.1-0.1-0.2-0.1
		c-1.2-0.3-2.4-0.4-3.7-0.4h-0.3v-0.3c0-0.6,0-1.3,0-2c0-0.2-0.1-0.5-0.2-0.7c-0.1-0.2-0.2-0.5-0.3-0.7c-0.2-0.5-0.5-0.9-0.8-1.3
		c-0.1-0.2-0.3-0.4-0.5-0.5c-0.1-0.1-0.4-0.1-0.5-0.1c-0.5,0.2-1,0.4-1.4,0.6c-1.9,1-3.7,2-5.5,3.1l-0.3,0.2l-0.1-0.3
		c-0.9-2.4-1.9-4.7-2.8-7c-0.5-1.2-0.9-2.3-1.4-3.4c-0.1-0.5-0.6-0.9-1.1-1c-0.5-0.2-1,0-1.3,0.5c-0.1,0.2-0.2,0.5-0.1,0.7
		c0,0.2,0.1,0.6,0.2,0.8c0.2,0.6,0.3,1.2,0.5,1.7c0.3,1.1,0.6,2.3,0.9,3.4c0.6,2.3,1.2,4.5,1.7,6.6v0.1c-0.2,4.1-0.4,8-0.6,11.8v0
		l-9.1,29.6l-2.6,8.3c-0.3,0.9-0.5,1.7-0.7,2.2s-0.3,0.7-0.3,0.7s0-0.3,0.2-0.8l0.6-2.2c0.6-1.9,1.4-4.7,2.5-8.3
		c2.2-7.2,5.2-17.4,8.9-29.7v0.1c0.2-3.7,0.3-7.7,0.5-11.8v0.1c-0.6-2.1-1.2-4.4-1.8-6.6l-0.9-3.4c-0.1-0.6-0.3-1.2-0.5-1.7
		c-0.1-0.3-0.2-0.6-0.2-0.9c0-0.3,0-0.7,0.2-1c0.2-0.3,0.5-0.6,0.8-0.7c0.7-0.2,1.4,0,2,0.4c0.3,0.2,0.4,0.5,0.5,0.9l1.4,3.4
		c0.9,2.3,1.9,4.6,2.8,7l-0.4-0.1c1.8-1.1,3.6-2.1,5.5-3.1c0.5-0.3,1-0.5,1.5-0.7c0.2-0.1,0.3-0.1,0.5-0.1c0.2,0,0.3,0.1,0.5,0.2
		c0.2,0.2,0.5,0.4,0.6,0.6c0.3,0.4,0.6,0.9,0.9,1.4c0.1,0.3,0.3,0.5,0.4,0.7c0.1,0.3,0.2,0.6,0.3,0.9c0,0.7,0,1.4,0,2l-0.3-0.3
		c1.3,0,2.6,0.2,3.8,0.4c0.1,0,0.2,0.1,0.3,0.1c0.1,0.1,0.2,0.2,0.3,0.3c0.1,0.2,0.1,0.3,0.2,0.5c0.1,0.3,0.1,0.6,0.1,0.9
		c0.1,0.6,0.1,1.2,0.1,1.8l-0.2-0.2c0.8,0.2,1.5,0.8,1.9,1.6c0.2,0.8,0.4,1.5,0.5,2.3c0.1,0.4,0.1,0.8,0,1.2c0,0.2-0.2,0.5-0.4,0.6
		c-0.2,0.1-0.3,0.2-0.5,0.3l-1.9,1l0.1-0.2c-0.2,2.1-0.4,4.1-0.7,6.2l-0.1,0.4c0,0.2-0.1,0.3-0.2,0.4c-0.1,0.2-0.3,0.4-0.5,0.6
		c-0.3,0.4-0.7,0.8-1,1.1c-0.7,0.7-1.4,1.4-2.1,2.1l0.1-0.1c-2.2,9.3-4.2,17.9-6.1,25.6c-0.9,3.9-1.8,7.5-2.6,10.8
		c-0.3,1.6-0.8,3.2-1.3,4.8c-0.5,1.4-1.2,2.8-1.9,4.2c-1.3,2.3-2.9,4.3-4.9,6.1c-1.5,1.3-3.3,2.1-5.3,2.3c-1.2,0.2-2.4,0-3.6-0.4
		c-0.3-0.1-0.6-0.2-0.9-0.4L333,211.5z"/>
	<path class="st12" d="M359.9,137.4c0,0.1-0.3,0.1-0.9,0.1c-0.7,0-1.3,0.1-2,0.2c-0.6,0.2-1.2,0.5-1.7,0.9c-0.4,0.3-0.5,0.6-0.6,0.6
		s0-0.4,0.3-0.9c0.5-0.6,1.1-1,1.8-1.2c0.7-0.2,1.4-0.2,2.1-0.1C359.6,137.2,359.9,137.3,359.9,137.4z"/>
	<path class="st12" d="M357,137.5c-0.1-0.1-0.1-0.4,0-0.7s0.3-0.6,0.5-0.5s0.1,0.4,0,0.7S357.1,137.5,357,137.5z"/>
	<path class="st12" d="M364.6,141.1c-1,0.3-2,0.4-3,0.4c-0.6,0-1.3,0.3-1.7,0.8c-0.3,0.4-0.2,0.8-0.3,0.8s-0.3-0.3-0.1-0.9
		c0.1-0.3,0.4-0.6,0.7-0.8c0.4-0.2,0.8-0.3,1.2-0.4C362.5,140.8,363.6,140.9,364.6,141.1z"/>
	<path class="st12" d="M363.9,144.7c0.1,0,0.2,0.7,0.2,1.6s-0.2,1.6-0.3,1.6s-0.2-0.8-0.2-1.7S363.8,144.7,363.9,144.7z"/>
	<path class="st11" d="M368.1,171.6l0.9-3.1c0.1-0.4,0.6-0.7,1-0.6c0.1,0,0.3,0.1,0.4,0.2l1.2,1.2l0.7-2.9c0.1-0.4,0.6-0.7,1-0.6
		c0.2,0.1,0.4,0.2,0.5,0.4l1.6,3.4L368.1,171.6z"/>
	<path class="st11" d="M375.5,171.1c-1.1,0.5-2.3,0.9-3.5,1.1c-1.2,0.4-2.4,0.6-3.7,0.6C370.6,171.9,373,171.3,375.5,171.1z"/>
	<path class="st11" d="M316,154c0,0-0.4,0.4-0.9,1.2c-0.7,1.2-1.2,2.4-1.4,3.8c-0.3,2-0.3,4-0.2,6c0.1,2.3,0.3,4.8,0.6,7.4
		c0.5,4.4,1.2,8.9,2.1,13.2c0.4,1.7,0.7,3,0.9,4c0.1,0.4,0.2,0.8,0.3,1.1s0.1,0.4,0.1,0.4s0-0.1-0.1-0.4s-0.2-0.7-0.3-1.1
		c-0.3-0.9-0.6-2.3-1-3.9c-1-4.4-1.7-8.8-2.2-13.2c-0.3-2.6-0.5-5.1-0.5-7.4c-0.2-2-0.1-4,0.2-6c0.2-1.4,0.7-2.6,1.4-3.8
		C315.3,154.8,315.6,154.4,316,154z"/>
	<path class="st11" d="M337,140.4l-0.2,0.1l-0.7,0.3c-0.6,0.3-1.4,0.7-2.4,1.2c-2.6,1.4-5.1,3-7.5,4.7c-2.9,2-5.4,3.8-7.2,5.1
		l-2.2,1.6l-0.6,0.4c-0.1,0.1-0.1,0.1-0.2,0.1c0.1-0.1,0.1-0.1,0.2-0.2l0.6-0.4l2.1-1.6c1.8-1.4,4.4-3.2,7.2-5.2
		c2.4-1.7,5-3.3,7.6-4.7c1-0.5,1.8-0.9,2.4-1.2l0.7-0.3C337,140.4,337,140.4,337,140.4z"/>
	<path class="st11" d="M384.7,146.9c-0.1,0-0.1-0.1-0.2-0.1l-0.5-0.4c-0.6-0.5-1.1-0.9-1.8-1.3c-2-1.3-4.2-2.4-6.4-3.3
		c-2.2-0.9-4.5-1.6-6.9-2.3c-0.9-0.3-1.6-0.4-2.1-0.6l-0.6-0.1c-0.1,0-0.1,0-0.2-0.1h0.2l0.6,0.1c0.5,0.1,1.2,0.3,2.1,0.5
		c2.3,0.6,4.7,1.3,6.9,2.2c2.3,0.9,4.4,2,6.4,3.3C383.3,145.5,384.1,146.1,384.7,146.9z"/>
	<path class="st11" d="M337.3,223.2c-0.1,0-0.3-0.1-0.4-0.1c-0.3-0.2-0.7-0.3-1-0.5c-1.1-0.7-1.9-1.7-2.2-2.9
		c-0.3-1.2-0.1-2.5,0.4-3.7c0.2-0.4,0.3-0.7,0.6-1c0.2-0.2,0.3-0.3,0.3-0.3c-0.3,0.4-0.5,0.9-0.7,1.3c-0.5,1.1-0.6,2.4-0.3,3.6
		c0.3,1.2,1,2.2,2,2.9C336.8,223,337.4,223.2,337.3,223.2z"/>
	<path class="st11" d="M334.1,212.4c0.2,0.4,0.4,0.8,0.5,1.3c0.2,0.4,0.3,0.9,0.3,1.3c-0.2-0.4-0.4-0.8-0.5-1.3
		C334.3,213.3,334.2,212.8,334.1,212.4z"/>
	<path class="st3" d="M347.7,436.6l30.5-0.1L377.6,331l-0.3-107.3l-41.3-0.5l-7.4,14c-3,5.6-5,11.8-5.7,18.1
		c-0.5,4.9,3.1,20.7,4.4,24.7l11.4,36.1L347.7,436.6z"/>
	<path class="st3" d="M386.3,223.9l33.5,91.4c4,11.9,2.5,25-4.1,35.7l-38.9,76l-21.9-27.4l32.6-68L358.7,285l4.8-61l13.5-0.2
		L386.3,223.9z"/>
	<path class="st13" d="M374.5,254.5c0,0,0,0.2,0,0.5s0,0.8,0.1,1.4c0.1,1.2,0.2,3,0.3,5.3c0.2,4.6,0.5,11.3,1,19.5s0.8,18,1.3,28.9
		c0.2,5.4,0.5,11.1,0.8,17.1c0.2,3,0.1,6,0.1,9s0,6.2,0,9.3c0,25.1,0.1,47.9,0.1,64.4c0,8.2,0,14.9,0,19.5c0,2.3,0,4.1,0,5.3
		c0,0.6,0,1,0,1.4s0,0.5,0,0.5s0-0.2,0-0.5v-1.4c0-1.2,0-3-0.1-5.3c0-4.6-0.1-11.3-0.1-19.5c-0.1-16.5-0.2-39.2-0.3-64.4
		c0-3.1,0-6.2,0-9.3s0.1-6.1-0.1-9c-0.3-5.9-0.5-11.6-0.7-17.1c-0.5-10.9-0.9-20.7-1.2-28.9s-0.6-14.9-0.8-19.5
		c-0.1-2.3-0.1-4.1-0.2-5.3c0-0.6,0-1,0-1.4S374.5,254.5,374.5,254.5z"/>
	<path class="st13" d="M373.8,225.7c0.1,0.3,0.2,0.7,0.2,1c0.1,0.6,0.2,1.6,0.4,2.7c0.3,2.3,0.5,5.5,0.7,9.1s0.2,6.8,0.1,9.1
		c0,1.2-0.1,2.1-0.1,2.8c0,0.3,0,0.7-0.1,1c-0.1-1.2-0.2-2.5-0.1-3.8c0-2.3-0.1-5.5-0.3-9.1s-0.4-6.7-0.5-9
		C373.8,228.2,373.8,226.9,373.8,225.7z"/>
	<path class="st13" d="M367.1,227.7c0,0.1-0.5,0.3-0.7,1.1c-0.1,0.4,0.1,0.9,0.4,1.2c0.4,0.4,1,0.5,1.5,0.3c0.5-0.3,0.8-0.8,0.8-1.3
		c0-0.5-0.3-0.9-0.7-1.1C368,227.8,367.5,227.7,367.1,227.7c0,0,0.1-0.1,0.4-0.2c0.4-0.1,0.8-0.1,1.1,0.1c0.6,0.2,1,0.8,1,1.4
		c0.1,1-0.6,1.9-1.6,2c-0.6,0.1-1.1-0.1-1.5-0.5c-0.4-0.4-0.6-1.1-0.4-1.6c0.1-0.4,0.3-0.7,0.6-0.9
		C366.9,227.7,367,227.7,367.1,227.7z"/>
	<path class="st13" d="M351.1,225.9c0.1,0.3,0.2,0.7,0.3,1c0.2,0.9,0.2,1.8,0.1,2.7c-0.1,1.3-0.5,2.7-1.1,3.9
		c-1.5,3.1-4.4,5.2-7.8,5.6c-1.3,0.2-2.7,0.1-4-0.1c-0.9-0.2-1.7-0.5-2.5-0.9c-0.3-0.1-0.6-0.3-0.8-0.6c1.1,0.5,2.3,0.9,3.4,1.1
		c5.7,1.2,11.2-2.5,12.4-8.2c0.1-0.3,0.1-0.6,0.1-0.8C351.2,228.4,351.2,227.1,351.1,225.9z"/>
	<path class="st13" d="M390.3,234.7c-0.7,0.1-1.3,0-1.9-0.2c-1.5-0.5-2.9-1.3-3.9-2.5c-1.1-1.2-1.8-2.6-2.1-4.2
		c-0.2-0.6-0.2-1.3,0-1.9c0.1,0,0.1,0.7,0.4,1.9c0.8,2.9,3,5.3,5.8,6.4C389.6,234.5,390.3,234.6,390.3,234.7z"/>
	<path class="st13" d="M402.2,333.2c-0.5,0.6-1.1,1-1.8,1.4c-0.7,0.4-1.5,0.8-2.3,1c-1,0.3-2.1,0.2-3.1-0.1
		c-1.7-0.7-3.2-1.8-4.3-3.4c-0.5-0.6-0.9-1.2-1.2-1.9c0.5,0.5,1,1.1,1.5,1.7c1.1,1.4,2.5,2.5,4.1,3.1c1.7,0.5,3.5,0.2,5-0.7
		C400.9,333.9,401.5,333.5,402.2,333.2z"/>
	<path class="st13" d="M394.6,339c-1.2-1.2-2.2-2.6-3.1-4c-1.1-1.3-2-2.8-2.7-4.3c1.2,1.2,2.2,2.6,3.2,4
		C392.9,336,393.8,337.5,394.6,339z"/>
	<path class="st15" d="M343.3,258c-0.1,0-0.5-0.5-0.8-1.3s-0.4-1.4-0.3-1.5s0.5,0.5,0.8,1.3S343.5,258,343.3,258z"/>
	<path class="st15" d="M362.7,260.8c-0.1,0-0.3-0.5-0.3-1.1s0.1-1.1,0.3-1.1s0.3,0.5,0.3,1.1S362.8,260.8,362.7,260.8z"/>
	<path class="st15" d="M354.7,271.3c-0.1,0-0.3-0.6-0.4-1.4s0-1.4,0.2-1.4s0.3,0.6,0.4,1.4S354.9,271.3,354.7,271.3z"/>
	<path class="st15" d="M340.2,279c-0.1,0.1-0.5-0.3-1.1-0.7s-1-0.7-1-0.8s0.7-0.1,1.3,0.4S340.3,279,340.2,279z"/>
	<path class="st15" d="M365.8,288.8c-0.1-0.1,0-0.5,0.3-1s0.6-0.8,0.8-0.7s0,0.5-0.3,1S365.9,288.9,365.8,288.8z"/>
	<path class="st15" d="M350,291.6c-0.1,0-0.3-0.8-0.3-1.8s0.1-1.9,0.3-1.9s0.3,0.8,0.3,1.9S350.1,291.6,350,291.6z"/>
	<path class="st15" d="M344.8,302.8c-0.1,0.1-0.6-0.1-1.2-0.5s-1-0.8-0.9-1s0.6,0.1,1.2,0.5S344.9,302.7,344.8,302.8z"/>
	<path class="st15" d="M360.8,306.7c0.1,0.1-0.3,0.4-0.7,0.6s-0.9,0.3-0.9,0.1s0.3-0.4,0.7-0.6S360.8,306.6,360.8,306.7z"/>
	<path class="st15" d="M350,325c-0.1,0.1-0.6-0.7-1.1-1.7s-0.8-1.9-0.7-2s0.6,0.7,1.1,1.7S350.1,324.9,350,325z"/>
	<path class="st15" d="M367.7,323.3c-0.1-0.1,0.1-0.7,0.5-1.5s0.9-1.3,1-1.3s-0.1,0.7-0.5,1.5S367.8,323.4,367.7,323.3z"/>
	<path class="st15" d="M359.9,338.8c-0.1,0-0.1-0.8-0.3-1.8s-0.4-1.7-0.3-1.8s0.6,0.6,0.8,1.7S360.1,338.8,359.9,338.8z"/>
	<path class="st15" d="M351.6,347.6c-0.1,0.1-0.6-0.3-1.1-0.8s-0.8-1.1-0.7-1.2s0.6,0.3,1.1,0.8S351.7,347.5,351.6,347.6z"/>
	<path class="st15" d="M371.8,351c-0.1-0.1,0.3-0.6,0.8-1.2s1.1-0.9,1.2-0.8s-0.3,0.6-0.8,1.2S371.9,351.1,371.8,351z"/>
	<path class="st15" d="M360.2,364.3c-0.1,0-0.1-0.8,0-1.7s0.4-1.6,0.5-1.6s0.1,0.8,0,1.7S360.3,364.3,360.2,364.3z"/>
	<path class="st15" d="M352.4,370.7c-0.1,0.1-0.6-0.5-1-1.2s-0.6-1.3-0.5-1.4s0.6,0.4,1,1.1S352.5,370.6,352.4,370.7z"/>
	<path class="st15" d="M371.2,378.8c0.1,0.1-0.4,0.6-1.1,1.1s-1.4,0.8-1.4,0.7s0.4-0.6,1.1-1.1S371.1,378.7,371.2,378.8z"/>
	<path class="st15" d="M355.5,389.3c-0.1,0,0-0.9,0.1-1.9s0-1.8,0.2-1.8s0.4,0.8,0.3,1.9S355.6,389.4,355.5,389.3z"/>
	<path class="st15" d="M361.8,404.4c-0.1,0.1-0.5-0.3-1-0.8s-0.6-1-0.5-1.1s0.5,0.3,0.9,0.8S361.9,404.4,361.8,404.4z"/>
	<path class="st15" d="M354.9,414.6c-0.1,0.1-0.7-0.5-1.2-1.3s-0.9-1.5-0.8-1.6s0.7,0.5,1.2,1.3S355.1,414.5,354.9,414.6z"/>
	<path class="st15" d="M373.8,401.9c-0.1,0-0.1-0.4,0-0.8s0.4-0.7,0.5-0.6s0.1,0.4,0,0.8S373.9,401.9,373.8,401.9z"/>
	<path class="st15" d="M365.5,426c-0.1-0.1,0.1-0.8,0.3-1.7s0.3-1.6,0.4-1.6s0.3,0.8,0.1,1.8S365.6,426.1,365.5,426z"/>
	<path class="st15" d="M370.9,271.5c-0.1,0.1-0.5-0.3-0.7-0.9s-0.4-1.1-0.2-1.1s0.5,0.3,0.7,0.9S371,271.4,370.9,271.5z"/>
	<path class="st15" d="M357,240.3c0.1,0.1-0.6,0.7-1.4,1.5s-1.3,1.5-1.4,1.5s0.2-1,1-1.8S356.9,240.2,357,240.3z"/>
	<path class="st15" d="M369.3,240c-0.1,0-0.4-0.6-0.7-1.3s-0.7-1.2-0.6-1.3s0.6,0.3,1,1.1S369.5,239.9,369.3,240z"/>
	<path class="st15" d="M330.8,250.1c-0.1-0.1,0-0.7,0.3-1.5s0.6-1.4,0.8-1.3s0,0.7-0.3,1.5S331,250.2,330.8,250.1z"/>
	<path class="st15" d="M332.1,265.2c-0.1,0.1-0.7-0.2-1.3-0.7s-1-1-0.9-1.1s0.7,0.2,1.3,0.7S332.2,265.1,332.1,265.2z"/>
	<path class="st15" d="M357.3,228.3c-0.1,0-0.4-0.3-0.6-0.8s-0.3-1-0.1-1s0.4,0.3,0.6,0.8S357.5,228.3,357.3,228.3z"/>
	<path class="st15" d="M381.5,235.7c-0.1,0-0.1-0.6,0-1.3s0.4-1.3,0.5-1.2s0.1,0.6,0,1.4S381.7,235.7,381.5,235.7z"/>
	<path class="st15" d="M387.2,247.1c-0.1-0.1,0-0.8,0.4-1.7s0.8-1.5,0.9-1.5s0,0.8-0.4,1.7S387.4,247.2,387.2,247.1z"/>
	<path class="st15" d="M383.2,256.4c-0.1,0.1-0.6-0.6-1.1-1.5s-0.7-1.7-0.6-1.8s0.6,0.6,1.1,1.5S383.3,256.3,383.2,256.4z"/>
	<path class="st15" d="M391.8,265.6c-0.1,0,0-0.6,0.2-1.3s0.6-1.2,0.7-1.1s0,0.6-0.2,1.3S392,265.6,391.8,265.6z"/>
	<path class="st15" d="M384.1,274.6c-0.1,0.1-0.4-0.2-0.7-0.6s-0.4-0.8-0.2-0.9s0.4,0.2,0.7,0.6S384.2,274.5,384.1,274.6z"/>
	<path class="st15" d="M385.7,293.3c-0.1,0.1-0.7-0.4-1.4-1.1s-1.1-1.4-1-1.5s0.7,0.4,1.4,1.1S385.8,293.1,385.7,293.3z"/>
	<path class="st15" d="M395.9,282.5c-0.1,0.1-0.7-0.4-1.2-1.1s-0.9-1.4-0.8-1.5s0.7,0.4,1.2,1.1S396,282.5,395.9,282.5z"/>
	<path class="st15" d="M401.5,297.3c-0.1-0.1,0.1-0.8,0.5-1.7s0.8-1.5,1-1.5s-0.1,0.8-0.5,1.7S401.6,297.4,401.5,297.3z"/>
	<path class="st15" d="M389.6,309.5c-0.1,0.1-0.6-0.5-1.2-1.1s-1.2-1-1.2-1.1s0.8,0.1,1.5,0.8S389.7,309.4,389.6,309.5z"/>
	<path class="st15" d="M390.4,322c0,0.1-0.5,0.3-1.1,0.3s-1.1-0.1-1.1-0.3s0.5-0.3,1.1-0.3S390.4,321.9,390.4,322z"/>
	<path class="st15" d="M402.5,318.5c-0.1-0.1,0.1-0.7,0.3-1.5s0.3-1.5,0.4-1.5s0.3,0.7,0.1,1.6S402.6,318.6,402.5,318.5z"/>
	<path class="st15" d="M414.6,322.7c-0.1,0-0.5-0.7-0.8-1.6s-0.5-1.7-0.3-1.7s0.5,0.6,0.8,1.6S414.8,322.7,414.6,322.7z"/>
	<path class="st15" d="M412.7,339.9c-0.1-0.1,0.2-0.9,0.7-1.9s1-1.7,1.1-1.6s-0.2,0.9-0.7,1.9S412.8,340,412.7,339.9z"/>
	<path class="st15" d="M401.6,350c-0.1,0-0.5-0.6-0.9-1.5s-0.6-1.7-0.4-1.8s0.5,0.6,0.9,1.5S401.8,350,401.6,350z"/>
	<path class="st15" d="M389.4,353.9c0,0.1-0.4,0.3-0.9,0.3s-0.9-0.1-0.9-0.3s0.4-0.3,0.9-0.3S389.4,353.8,389.4,353.9z"/>
	<path class="st15" d="M396.4,370c-0.1,0-0.4-0.5-0.6-1.3s-0.3-1.4-0.1-1.5s0.4,0.5,0.6,1.3S396.6,369.9,396.4,370z"/>
	<path class="st15" d="M387.6,364.6c-0.1-0.1,0-0.5,0.3-1s0.7-0.9,0.8-0.8s0,0.5-0.3,1.1S387.7,364.7,387.6,364.6z"/>
	<path class="st15" d="M387.4,382.3c-0.1,0-0.3-0.7-0.4-1.5s-0.1-1.6,0.1-1.6s0.3,0.7,0.4,1.5S387.5,382.3,387.4,382.3z"/>
</g>
</svg>
